<?xml version="1.0" standalone="no"?>
<!DOCTYPE svg PUBLIC "-//W3C//DTD SVG 1.1//EN" "http://www.w3.org/Graphics/SVG/1.1/DTD/svg11.dtd" >
<svg>
<metadata>
Created by FontForge 20090622 at Wed Feb 26 07:17:45 2020
 By deploy user
Copyright 2018 The Manrope Project Authors (https://github.com/sharanda/manrope)
</metadata>
<defs>
<font id="Manrope-Medium" horiz-adv-x="590" >
  <font-face 
    font-family="Manrope Medium"
    font-weight="500"
    font-stretch="semi-condensed"
    units-per-em="960"
    panose-1="0 0 6 6 0 0 0 0 0 0"
    ascent="768"
    descent="-192"
    x-height="540"
    cap-height="720"
    bbox="-27 -260 1095 970"
    underline-thickness="50"
    underline-position="-50"
    unicode-range="U+0020-U+FB02"
  />
<missing-glyph horiz-adv-x="740" 
d="M640 707h-540v13h540v-13zM640 649h-540v16h540v-16zM640 592h-540v18h540v-18zM640 533h-540v21h540v-21zM640 476h-540v22h540v-22zM640 419h-540v24h540v-24zM640 360h-540v28h540v-28zM640 303h-540v30h540v-30zM640 245h-540v33h540v-33zM640 187h-540v35h540v-35z
M640 130h-540v37h540v-37zM640 72h-540v40h540v-40zM100 0v57h540v-57h-540z" />
    <glyph glyph-name="f_f" unicode="ff" horiz-adv-x="731" 
d="M585.5 626q-15.5 -21 -15.5 -59v-27h151v-73h-151v-467h-89v467h-262v-467h-89v467h-120v73h120v21q0 37 11.5 71.5t38.5 59.5q52 44 140 44q25 0 51 -3v-78q-19 3 -40 3q-24 0 -43 -4q-38 -7 -53.5 -28t-15.5 -59v-27h262v21q0 86 49 131q52 44 140 44q26 0 51 -3v-78
q-20 3 -39 3q-26 0 -43 -4q-38 -7 -53.5 -28z" />
    <glyph glyph-name="f_f_l" unicode="ffl" horiz-adv-x="950" 
d="M880 735v-735h-89v467h-255v-467h-89v467h-228v-467h-89v467h-120v73h120v21q0 37 11.5 71.5t38.5 59.5q52 44 140 44q25 0 51 -3v-78q-19 3 -40 3q-24 0 -43 -4q-38 -7 -53.5 -28t-15.5 -59v-27h228v21q0 37 11.5 71.5t38.5 59.5q52 44 140 44q26 0 51 -3v-78
q-20 3 -40 3q-24 0 -43 -4q-38 -7 -53.5 -28t-15.5 -59v-27h255v195h89z" />
    <glyph glyph-name="fl" unicode="fl" horiz-adv-x="633" 
d="M563 735v-735h-89v467h-255v-467h-89v467h-120v73h120v21q0 37 11.5 71.5t38.5 59.5q52 44 140 44q25 0 51 -3v-78q-19 3 -40 3q-24 0 -43 -4q-38 -7 -53.5 -28t-15.5 -59v-27h255v195h89z" />
    <glyph glyph-name="t_t" unicode="tt" horiz-adv-x="768" 
d="M575 209q0 -43 1.5 -61t10.5 -33q9 -17 25.5 -27.5t36.5 -12.5q9 -1 28 -1q29 0 61 5v-79q-33 -9 -74 -9q-27 0 -52 5q-76 16 -105 73q-14 26 -17.5 56.5t-3.5 78.5v263h-267v-258q0 -43 1.5 -61t10.5 -33q8 -17 25 -27.5t37 -12.5q9 -1 28 -1q29 0 61 5v-79
q-33 -9 -75 -9q-27 0 -52 5q-76 16 -105 73q-13 26 -16.5 56.5t-3.5 78.5v263h-120v73h120v150h89v-150h267v150h89v-150h163v-73h-163v-258z" />
    <glyph glyph-name="hyphen_greater.liga" unicode="&#x2d;&#x3e;" horiz-adv-x="1005" 
d="M865 276l-237 -237l-45 45l154 155h-597v73h598l-155 154l45 46z" />
    <glyph glyph-name="parenleft_greater_parenright.liga" unicode="&#x28;&#x3e;&#x29;" horiz-adv-x="1070" 
d="M783.5 -68.5q113.5 66.5 180 180.5t66.5 248q0 135 -66.5 248.5t-180 180t-248.5 66.5q-134 0 -248 -66.5t-180.5 -180t-66.5 -248.5q0 -134 66.5 -248t180.5 -180.5t248 -66.5q135 0 248.5 66.5zM330 5q-94 55 -149 149.5t-55 206.5q0 111 55 205t149 149t206 55
q111 0 205 -55t149 -149t55 -205q0 -112 -55 -206.5t-149 -149.5t-205 -55q-112 0 -206 55zM667 360l-198 -165v330z" />
    <glyph glyph-name="parenleft_c_parenright.liga" unicode="&#x28;c&#x29;" horiz-adv-x="851" 
d="M619.5 -64q88.5 52 140 140.5t51.5 193.5t-51.5 193.5t-140 140t-193.5 51.5t-193.5 -51.5t-140.5 -140t-52 -193.5t52 -193.5t140.5 -140.5t193.5 -52t193.5 52zM275 9.5q-69 40.5 -109.5 109.5t-40.5 151t40.5 150.5t109.5 109t151 40.5q81 0 150 -40.5t109 -109
t40 -150.5t-40.5 -151t-109 -109.5t-149.5 -40.5q-82 0 -151 40.5zM529 353q-3 8 -11 19q-15 21 -39 31.5t-51 10.5q-57 0 -89 -42q-29 -36 -29 -101q0 -62 29 -100q14 -20 38.5 -31t50.5 -11t49.5 10.5t40.5 31.5q7 9 11 18l67 -29q-12 -21 -22 -32q-26 -33 -64.5 -49.5
t-84.5 -16.5q-42 0 -81 17.5t-63 48.5q-46 57 -46 143q2 91 46 145q55 65 147 65q44 0 82.5 -16.5t63.5 -48.5q14 -17 22 -34z" />
    <glyph glyph-name="space_less_three_space.liga" unicode="&#x20;&#x3c;&#x33;&#x20;" horiz-adv-x="1207" 
d="M789 539.5q34 -15.5 62 -45.5q28 -29 42 -65t14 -75q1 -38 -13.5 -74.5t-42.5 -66.5l-194 -205q-21 -23 -53 -23q-33 0 -54 23l-194 205q-27 29 -41 65.5t-15 74.5q0 39 14 75.5t42 65.5q58 61 133 61q59 0 115 -40q54 40 114 40q37 0 71 -15.5zM604 420q-61 62 -115 62
q-44 0 -79 -39q-34 -34 -36 -88q0 -25 9 -49t27 -42l194 -205l194 205q35 36 35 91q0 24 -9 47t-26 41q-36 39 -80 39q-58 0 -114 -62z" />
    <glyph glyph-name="less_hyphen.liga" unicode="&#x3c;&#x2d;" horiz-adv-x="1005" 
d="M865 239h-597l154 -155l-46 -45l-236 237l236 236l46 -46l-155 -154h598v-73z" />
    <glyph glyph-name=".notdef" horiz-adv-x="740" 
d="M640 707h-540v13h540v-13zM640 649h-540v16h540v-16zM640 592h-540v18h540v-18zM640 533h-540v21h540v-21zM640 476h-540v22h540v-22zM640 419h-540v24h540v-24zM640 360h-540v28h540v-28zM640 303h-540v30h540v-30zM640 245h-540v33h540v-33zM640 187h-540v35h540v-35z
M640 130h-540v37h540v-37zM640 72h-540v40h540v-40zM100 0v57h540v-57h-540z" />
    <glyph glyph-name=".null" horiz-adv-x="300" 
 />
    <glyph glyph-name="space" unicode=" " horiz-adv-x="220" 
 />
    <glyph glyph-name="A" unicode="A" horiz-adv-x="616" 
d="M473 135h-330l-45 -135h-93l241 720h124l241 -720h-92zM445 219l-138 407l-136 -407h274z" />
    <glyph glyph-name="Aacute" unicode="&#xc1;" horiz-adv-x="616" 
d="M184 786l-25 66l241 95l25 -67zM473 135h-330l-45 -135h-93l241 720h124l241 -720h-92zM445 219l-138 407l-136 -407h274z" />
    <glyph glyph-name="Abreve" unicode="&#x102;" horiz-adv-x="616" 
d="M244.5 798.5q-31.5 18.5 -50 50t-18.5 68.5h72q0 -27 19 -46t46 -19t45.5 19t18.5 46h72q0 -37 -18.5 -68.5t-49.5 -50t-68 -18.5t-68.5 18.5zM473 135h-330l-45 -135h-93l241 720h124l241 -720h-92zM445 219l-138 407l-136 -407h274z" />
    <glyph glyph-name="Acircumflex" unicode="&#xc2;" horiz-adv-x="616" 
d="M193 786l-36 63l152 92l151 -92l-35 -63l-116 71zM473 135h-330l-45 -135h-93l241 720h124l241 -720h-92zM445 219l-138 407l-136 -407h274z" />
    <glyph glyph-name="Adieresis" unicode="&#xc4;" horiz-adv-x="616" 
d="M256 840h-90v90h90v-90zM452 840h-90v90h90v-90zM473 135h-330l-45 -135h-93l241 720h124l241 -720h-92zM445 219l-138 407l-136 -407h274z" />
    <glyph glyph-name="Agrave" unicode="&#xc0;" horiz-adv-x="616" 
d="M432 786l-240 94l25 67l241 -95zM474 135h-330l-46 -135h-93l241 720h124l241 -720h-92zM446 219l-137 407l-137 -407h274z" />
    <glyph glyph-name="Amacron" unicode="&#x100;" horiz-adv-x="616" 
d="M437 840h-256v73h256v-73zM473 135h-330l-45 -135h-93l241 720h124l241 -720h-92zM445 219l-138 407l-136 -407h274z" />
    <glyph glyph-name="Aogonek" unicode="&#x104;" horiz-adv-x="616" 
d="M628 -194q-17 -24 -47 -37q-19 -9 -41 -9t-42 9.5t-33 25.5q-25 26 -25 68q0 20 8 44q20 53 69 99l-44 129h-330l-45 -135h-93l241 720h124l241 -720h-1q-35 -26 -55 -53q-27 -30 -39 -63q-3 -8 -3 -19q0 -15 8 -23q10 -11 25 -11q21 0 45 20zM445 219l-138 407
l-136 -407h274z" />
    <glyph glyph-name="Aring" unicode="&#xc5;" horiz-adv-x="616" 
d="M473 135h-330l-45 -135h-93l227 679q-23 18 -36.5 44.5t-13.5 56.5q0 34 17 63.5t46.5 46.5t63.5 17t63.5 -17t46.5 -46.5t17 -63.5q0 -31 -14 -58t-38 -44l227 -678h-92zM266.5 822.5q-17.5 -17.5 -17.5 -42.5t17.5 -42.5t42.5 -17.5t42.5 17.5t17.5 42.5t-17.5 42.5
t-42.5 17.5t-42.5 -17.5zM445 219l-138 407l-136 -407h274z" />
    <glyph glyph-name="Atilde" unicode="&#xc3;" horiz-adv-x="616" 
d="M155 844q-3 11 -3 23q0 25 11 45q9 15 23.5 24.5t29.5 11.5q14 2 21 2q30 0 71 -18l23.5 -11.5t26.5 -11t21 -3.5q14 0 21 7t7 18q0 7 -3 14h58q3 -10 3 -24q0 -24 -11 -44q-9 -15 -23.5 -24.5t-29.5 -11.5q-14 -2 -21 -2q-30 0 -71 18l-23.5 11.5t-26.5 11t-21 3.5
q-14 0 -21 -6.5t-7 -17.5q0 -7 3 -15h-58zM473 135h-330l-45 -135h-93l241 720h124l241 -720h-92zM445 219l-138 407l-136 -407h274z" />
    <glyph glyph-name="AE" unicode="&#xc6;" horiz-adv-x="910" 
d="M489 636v-233h301v-85h-301v-233h361v-85h-450v135h-257l-45 -135h-93l241 720h604v-84h-361zM400 219v412h-90l-138 -412h228z" />
    <glyph glyph-name="B" unicode="B" horiz-adv-x="629" 
d="M583.5 276q10.5 -31 10.5 -63q0 -36 -11.5 -70.5t-33.5 -61.5q-41 -51 -108 -71q-37 -10 -93 -10h-268v720h254q30 0 50 -1.5t34 -6.5q29 -8 54.5 -24.5t44.5 -40.5q21 -25 32 -57.5t11 -66.5q0 -58 -39 -107q-7 -11 -25 -29q33 -21 57 -54q20 -26 30.5 -57zM170 636
v-216h190q23 0 48 12.5t39 32.5q22 31 22 68q-2 40 -29 69q-31 34 -80 34h-190zM475 288q-17 23 -44 35.5t-54 12.5h-207v-251h177q47 0 73 6.5t49 31.5q34 36 34 86q0 45 -28 79z" />
    <glyph glyph-name="C" unicode="C" horiz-adv-x="737" 
d="M691 213q-20 -64 -58 -112q-45 -58 -112 -87t-144 -29q-78 0 -144.5 30t-111.5 86q-42 52 -61.5 117t-19.5 136q0 163 81 266q44 57 110.5 86t145.5 29q78 0 145 -29.5t111 -85.5q44 -57 64 -132l-92 -15q-15 57 -43 92q-31 42 -81 63.5t-108 21.5q-54 0 -102.5 -22
t-78.5 -63q-55 -72 -57 -205q2 -132 57 -205q31 -42 81 -63.5t108 -21.5q54 0 102.5 22t78.5 63q28 39 40 84z" />
    <glyph glyph-name="Cacute" unicode="&#x106;" horiz-adv-x="737" 
d="M514 880l-25 67l-241 -95l25 -66zM691 213q-20 -64 -58 -112q-45 -58 -112 -87t-144 -29q-78 0 -144.5 30t-111.5 86q-42 52 -61.5 117t-19.5 136q0 163 81 266q44 57 110.5 86t145.5 29q78 0 145 -29.5t111 -85.5q44 -57 64 -132l-92 -15q-15 57 -43 92q-31 42 -81 63.5
t-108 21.5q-54 0 -102.5 -22t-78.5 -63q-55 -72 -57 -205q2 -132 57 -205q31 -42 81 -63.5t108 -21.5q54 0 102.5 22t78.5 63q28 39 40 84z" />
    <glyph glyph-name="Ccaron" unicode="&#x10c;" horiz-adv-x="737" 
d="M230 879l151 -93l152 93l-36 62l-116 -71l-116 71zM691 213q-20 -64 -58 -112q-45 -58 -112 -87t-144 -29q-78 0 -144.5 30t-111.5 86q-42 52 -61.5 117t-19.5 136q0 163 81 266q44 57 110.5 86t145.5 29q78 0 145 -29.5t111 -85.5q44 -57 64 -132l-92 -15q-15 57 -43 92
q-31 42 -81 63.5t-108 21.5q-54 0 -102.5 -22t-78.5 -63q-55 -72 -57 -205q2 -132 57 -205q31 -42 81 -63.5t108 -21.5q54 0 102.5 22t78.5 63q28 39 40 84z" />
    <glyph glyph-name="Ccedilla" unicode="&#xc7;" horiz-adv-x="737" 
d="M602 239l89 -26q-20 -64 -58 -112q-40 -51 -98 -80t-126 -35l-14 -40q32 -13 48 -43q12 -20 12 -46q0 -32 -17 -55q-15 -22 -39.5 -33.5t-51.5 -8.5q-23 1 -55 16l22 57q22 -7 35 -8q23 0 32 15q7 10 7 20q0 6 -3 12q-5 14 -18.5 20.5t-44.5 16.5l27 77q-70 5 -129 34.5
t-99 80.5q-42 52 -61.5 117t-19.5 136q0 163 81 266q44 57 110.5 86t145.5 29q78 0 145 -29.5t111 -85.5q44 -57 64 -132l-92 -15q-15 57 -43 92q-31 42 -81 63.5t-108 21.5q-54 0 -102.5 -22t-78.5 -63q-55 -72 -57 -205q2 -132 57 -205q31 -42 81 -63.5t108 -21.5
q54 0 102.5 22t78.5 63q28 39 40 84z" />
    <glyph glyph-name="Cdotaccent" unicode="&#x10a;" horiz-adv-x="737" 
d="M433 955v-98h-98v98h98zM691 213q-20 -64 -58 -112q-45 -58 -112 -87t-144 -29q-78 0 -144.5 30t-111.5 86q-42 52 -61.5 117t-19.5 136q0 163 81 266q44 57 110.5 86t145.5 29q78 0 145 -29.5t111 -85.5q44 -57 64 -132l-92 -15q-15 57 -43 92q-31 42 -81 63.5
t-108 21.5q-54 0 -102.5 -22t-78.5 -63q-55 -72 -57 -205q2 -132 57 -205q31 -42 81 -63.5t108 -21.5q54 0 102.5 22t78.5 63q28 39 40 84z" />
    <glyph glyph-name="D" unicode="D" horiz-adv-x="686" 
d="M646 361q0 -98 -41 -177q-43 -83 -124.5 -133.5t-174.5 -50.5h-226v720h226q93 0 174.5 -49.5t124.5 -133.5q41 -79 41 -176zM555 361q-2 80 -30 135q-33 64 -92.5 101.5t-131.5 37.5l-131 1v-550h131q70 1 131.5 38.5t92.5 100.5q30 59 30 136z" />
    <glyph glyph-name="Eth" unicode="&#xd0;" horiz-adv-x="683" 
d="M643 361q-2 -98 -41 -177q-44 -84 -125.5 -134t-174.5 -50h-225v324h-67v73h67v323h225q94 0 175.5 -49.5t124.5 -133.5q39 -79 41 -176zM551 354q0 83 -29 142q-33 64 -93 101.5t-132 37.5l-130 1v-239h166v-73h-166v-238h130q71 1 132 38.5t93 100.5q29 60 29 129z" />
    <glyph glyph-name="Dcaron" unicode="&#x10e;" horiz-adv-x="686" 
d="M320 786l-152 93l36 62l116 -71l116 71l35 -62zM646 361q0 -98 -41 -177q-43 -83 -124.5 -133.5t-174.5 -50.5h-226v720h226q93 0 174.5 -49.5t124.5 -133.5q41 -79 41 -176zM555 361q-2 80 -30 135q-33 64 -92.5 101.5t-131.5 37.5l-131 1v-550h131q70 1 131.5 38.5
t92.5 100.5q30 59 30 136z" />
    <glyph glyph-name="Dcroat" unicode="&#x110;" horiz-adv-x="683" 
d="M643 361q-2 -98 -41 -177q-44 -84 -125.5 -134t-174.5 -50h-225v324h-67v73h67v323h225q94 0 175.5 -49.5t124.5 -133.5q39 -79 41 -176zM551 354q0 83 -29 142q-33 64 -93 101.5t-132 37.5l-130 1v-239h166v-73h-166v-238h130q71 1 132 38.5t93 100.5q29 60 29 129z" />
    <glyph glyph-name="E" unicode="E" 
d="M169 636v-233h301v-85h-301v-233h361v-85h-450v720h450v-84h-361z" />
    <glyph glyph-name="Eacute" unicode="&#xc9;" 
d="M184 786l-25 66l241 95l25 -67zM169 636v-233h301v-85h-301v-233h361v-85h-450v720h450v-84h-361z" />
    <glyph glyph-name="Ecaron" unicode="&#x11a;" 
d="M300 786l-151 93l35 62l116 -71l116 71l36 -62zM169 636v-233h301v-85h-301v-233h361v-85h-450v720h450v-84h-361z" />
    <glyph glyph-name="Ecircumflex" unicode="&#xca;" 
d="M169 786l-36 63l152 92l151 -92l-35 -63l-116 71zM169 636v-233h301v-85h-301v-233h361v-85h-450v720h450v-84h-361z" />
    <glyph glyph-name="Edieresis" unicode="&#xcb;" 
d="M237 840h-90v90h90v-90zM433 840h-90v90h90v-90zM169 636v-233h301v-85h-301v-233h361v-85h-450v720h450v-84h-361z" />
    <glyph glyph-name="Edotaccent" unicode="&#x116;" 
d="M359 832h-98v98h98v-98zM169 636v-233h301v-85h-301v-233h361v-85h-450v720h450v-84h-361z" />
    <glyph glyph-name="Egrave" unicode="&#xc8;" 
d="M399 786l-241 94l25 67l241 -95zM169 636v-233h301v-85h-301v-233h361v-85h-450v720h450v-84h-361z" />
    <glyph glyph-name="Emacron" unicode="&#x112;" 
d="M428 840h-256v73h256v-73zM169 636v-233h301v-85h-301v-233h361v-85h-450v720h450v-84h-361z" />
    <glyph glyph-name="Eogonek" unicode="&#x118;" 
d="M169 636v-233h301v-85h-301v-233h361v-85h-30q-35 -26 -55 -53q-27 -30 -39 -63q-3 -8 -3 -19q0 -15 8 -23q10 -11 25 -11q21 0 45 20l37 -45q-17 -24 -47 -37q-20 -9 -41 -9q-22 0 -42 9.5t-33 25.5q-25 26 -25 68q0 20 8 44q20 51 63 93h-321v720h450v-84h-361z" />
    <glyph glyph-name="F" unicode="F" horiz-adv-x="520" 
d="M169 631v-226h271v-89h-271v-316h-89v720h420v-89h-331z" />
    <glyph glyph-name="G" unicode="G" horiz-adv-x="752" 
d="M712 372v-23q-5 -155 -80 -247q-46 -58 -112.5 -87.5t-143.5 -29.5q-78 0 -145.5 29.5t-109.5 87.5q-79 96 -81 258q2 161 81 259q42 57 109 86.5t146 29.5t145 -29.5t111 -86.5q22 -27 34 -54l-82 -37q-3 5 -9.5 17t-12.5 20q-32 41 -81.5 63t-104.5 22t-104.5 -22
t-80.5 -63q-53 -69 -57 -205q4 -136 57 -204q30 -41 78.5 -63t102.5 -22q58 0 108 21.5t82 63.5q40 56 51 141h-180v75h279z" />
    <glyph glyph-name="Gbreve" unicode="&#x11e;" horiz-adv-x="752" 
d="M317.5 798.5q-31.5 18.5 -50 50t-18.5 68.5h72q0 -27 19 -46t46 -19t45.5 19t18.5 46h72q0 -37 -18.5 -68.5t-49.5 -50t-68 -18.5t-68.5 18.5zM712 372v-23q-5 -155 -80 -247q-46 -58 -112.5 -87.5t-143.5 -29.5q-78 0 -145.5 29.5t-109.5 87.5q-79 96 -81 258
q2 161 81 259q42 57 109 86.5t146 29.5t145 -29.5t111 -86.5q22 -27 34 -54l-82 -37q-3 5 -9.5 17t-12.5 20q-32 41 -81.5 63t-104.5 22t-104.5 -22t-80.5 -63q-53 -69 -57 -205q4 -136 57 -204q30 -41 78.5 -63t102.5 -22q58 0 108 21.5t82 63.5q40 56 51 141h-180v75h279z
" />
    <glyph glyph-name="uni0122" unicode="&#x122;" horiz-adv-x="752" 
d="M712 372v-23q-5 -155 -80 -247q-46 -58 -112.5 -87.5t-143.5 -29.5q-78 0 -145.5 29.5t-109.5 87.5q-79 96 -81 258q2 161 81 259q42 57 109 86.5t146 29.5t145 -29.5t111 -86.5q22 -27 34 -54l-82 -37q-3 5 -9.5 17t-12.5 20q-32 41 -81.5 63t-104.5 22t-104.5 -22
t-80.5 -63q-53 -69 -57 -205q4 -136 57 -204q30 -41 78.5 -63t102.5 -22q58 0 108 21.5t82 63.5q40 56 51 141h-180v75h279zM325 -75h94v-94q0 -42 -27 -66.5t-67 -24.5v44q17 0 34.5 10.5t16.5 36.5h-51v94z" />
    <glyph glyph-name="Gdotaccent" unicode="&#x120;" horiz-adv-x="752" 
d="M426 832h-98v98h98v-98zM712 372v-23q-5 -155 -80 -247q-46 -58 -112.5 -87.5t-143.5 -29.5q-78 0 -145.5 29.5t-109.5 87.5q-79 96 -81 258q2 161 81 259q42 57 109 86.5t146 29.5t145 -29.5t111 -86.5q22 -27 34 -54l-82 -37q-3 5 -9.5 17t-12.5 20q-32 41 -81.5 63
t-104.5 22t-104.5 -22t-80.5 -63q-53 -69 -57 -205q4 -136 57 -204q30 -41 78.5 -63t102.5 -22q58 0 108 21.5t82 63.5q40 56 51 141h-180v75h279z" />
    <glyph glyph-name="H" unicode="H" horiz-adv-x="717" 
d="M637 720v-720h-89v266h-379v-266h-89v720h89v-370h379v370h89z" />
    <glyph glyph-name="Hbar" unicode="&#x126;" horiz-adv-x="717" 
d="M707 489h-70v-489h-89v266h-379v-266h-89v489h-70v89h70v142h89v-142h379v142h89v-142h70v-89zM548 489h-379v-139h379v139z" />
    <glyph glyph-name="I" unicode="I" horiz-adv-x="249" 
d="M169 720v-720h-89v720h89z" />
    <glyph glyph-name="Iacute" unicode="&#xcd;" horiz-adv-x="249" 
d="M254 880l-25 67l-241 -95l26 -66zM169 720v-720h-89v720h89z" />
    <glyph glyph-name="Icircumflex" unicode="&#xce;" horiz-adv-x="249" 
d="M125 857l116 -71l35 63l-151 92l-152 -92l36 -63zM169 720v-720h-89v720h89z" />
    <glyph glyph-name="Idieresis" unicode="&#xcf;" horiz-adv-x="249" 
d="M72 930v-90h-91v90h91zM268 930v-90h-90v90h90zM169 720v-720h-89v720h89z" />
    <glyph glyph-name="Idotaccent" unicode="&#x130;" horiz-adv-x="249" 
d="M174 930v-98h-98v98h98zM169 720v-720h-89v720h89z" />
    <glyph glyph-name="Igrave" unicode="&#xcc;" horiz-adv-x="249" 
d="M260 852l-241 95l-25 -67l241 -94zM169 720v-720h-89v720h89z" />
    <glyph glyph-name="Imacron" unicode="&#x12a;" horiz-adv-x="249" 
d="M253 913v-73h-257v73h257zM169 720v-720h-89v720h89z" />
    <glyph glyph-name="Iogonek" unicode="&#x12e;" horiz-adv-x="249" 
d="M187 -194q-17 -24 -47 -37q-19 -9 -41 -9t-42 9.5t-33 25.5q-25 26 -25 68q0 20 8 44q20 54 73 102v711h89v-720q-35 -26 -55 -53q-27 -30 -39 -63q-3 -8 -3 -19q0 -15 8 -23q10 -11 25 -11q21 0 45 20z" />
    <glyph glyph-name="J" unicode="J" horiz-adv-x="476" 
d="M304 720v-494q0 -44 -2 -62t-11 -37q-12 -27 -38.5 -42t-56.5 -15q-33 0 -60 19q-18 12 -30.5 30t-16.5 39l-89 -21q11 -39 35 -72t58 -52q43 -28 104 -28q115 0 172 96q18 33 22.5 61t4.5 84v494h-92z" />
    <glyph glyph-name="K" unicode="K" horiz-adv-x="644" 
d="M529 0l-281 325h-78v-325h-90v720h90v-310h78l244 310h112l-275 -351l315 -369h-115z" />
    <glyph glyph-name="uni0136" unicode="&#x136;" horiz-adv-x="644" 
d="M529 0l-281 325h-78v-325h-90v720h90v-310h78l244 310h112l-275 -351l315 -369h-115zM360 -235.5q-27 -24.5 -67 -24.5v44q17 0 34.5 10.5t16.5 36.5h-51v94h94v-94q0 -42 -27 -66.5z" />
    <glyph glyph-name="L" unicode="L" horiz-adv-x="518" 
d="M80 720v-720h423v85h-334v635h-89z" />
    <glyph glyph-name="Lacute" unicode="&#x139;" horiz-adv-x="518" 
d="M346 880l-25 67l-241 -95l26 -66zM80 720v-720h423v85h-334v635h-89z" />
    <glyph glyph-name="Lcaron" unicode="&#x13d;" horiz-adv-x="518" 
d="M80 720v-720h423v85h-334v635h-89zM401.5 524q-19.5 -26 -57.5 -26q-7 0 -21 2l6 41q52 -4 46 71h-52v113h98v-128q0 -47 -19.5 -73z" />
    <glyph glyph-name="uni013B" unicode="&#x13b;" horiz-adv-x="518" 
d="M80 720v-720h423v85h-334v635h-89zM312 -235.5q-27 -24.5 -67 -24.5v44q17 0 34.5 10.5t16.5 36.5h-51v94h94v-94q0 -42 -27 -66.5z" />
    <glyph glyph-name="Lslash" unicode="&#x141;" horiz-adv-x="528" 
d="M513 85v-85h-423v222l-51 -29v98l51 29v400h89v-348l171 98v-98l-171 -98v-189h334z" />
    <glyph glyph-name="M" unicode="M" horiz-adv-x="877" 
d="M797 1h-90v524l-245 -525h-47l-245 524v-524h-90v720h89l270 -573l268 573h90v-719z" />
    <glyph glyph-name="N" unicode="N" horiz-adv-x="716" 
d="M546 163v557h90v-720h-81l-384 558v-558h-91v720h81z" />
    <glyph glyph-name="Nacute" unicode="&#x143;" horiz-adv-x="716" 
d="M504 880l-25 67l-241 -95l25 -66zM546 163v557h90v-720h-81l-384 558v-558h-91v720h81z" />
    <glyph glyph-name="Ncaron" unicode="&#x147;" horiz-adv-x="716" 
d="M209 879l151 -93l152 93l-36 62l-116 -71l-116 71zM546 163v557h90v-720h-81l-384 558v-558h-91v720h81z" />
    <glyph glyph-name="uni0145" unicode="&#x145;" horiz-adv-x="716" 
d="M546 163v557h90v-720h-81l-384 558v-558h-91v720h81zM378 -235.5q-27 -24.5 -67 -24.5v44q17 0 34.5 10.5t16.5 36.5h-51v94h94v-94q0 -42 -27 -66.5z" />
    <glyph glyph-name="Eng" unicode="&#x14a;" horiz-adv-x="716" 
d="M636 720v-812q0 -50 -19.5 -78.5t-55.5 -35.5q-19 -4 -40 -4q-23 0 -59 8v71q17 -3 32 -3q28 0 43.5 15.5t15.5 56.5q0 22 -11 54t-37 70l-46 67l9 -3l-297 432v-558h-91v720h81l385 -557v557h90z" />
    <glyph glyph-name="Ntilde" unicode="&#xd1;" horiz-adv-x="716" 
d="M517 896q0 -24 -11 -44q-9 -15 -23.5 -24.5t-29.5 -11.5q-14 -2 -21 -2q-30 0 -71 18l-23.5 11.5t-26.5 11t-21 3.5q-14 0 -21 -6.5t-7 -17.5q0 -7 3 -15h-58q-3 11 -3 23q0 25 11 45q9 15 23.5 24.5t29.5 11.5q14 2 21 2q30 0 71 -18l23.5 -11.5t26.5 -11t21 -3.5
q14 0 21 7t7 18q0 7 -3 14h58q3 -10 3 -24zM546 163v557h90v-720h-81l-384 558v-558h-91v720h81z" />
    <glyph glyph-name="O" unicode="O" horiz-adv-x="752" 
d="M230 14.5q-67 29.5 -110 86.5q-78 99 -80 259q0 74 19 141t61 119q43 56 110 85.5t142 29.5q80 0 148 -29t113 -86q77 -98 79 -260q0 -158 -79 -259q-45 -57 -112 -86.5t-145 -29.5q-79 0 -146 29.5zM480 91.5q50 21.5 81 63.5q55 72 57 205q0 131 -57 205q-30 41 -78 63
t-103 22q-58 0 -108 -21.5t-81 -63.5q-55 -72 -57 -205q0 -131 57 -205q30 -41 78.5 -63t102.5 -22q58 0 108 21.5z" />
    <glyph glyph-name="Oacute" unicode="&#xd3;" horiz-adv-x="752" 
d="M520 880l-25 67l-241 -95l25 -66zM230 14.5q-67 29.5 -110 86.5q-78 99 -80 259q0 74 19 141t61 119q43 56 110 85.5t142 29.5q80 0 148 -29t113 -86q77 -98 79 -260q0 -158 -79 -259q-45 -57 -112 -86.5t-145 -29.5q-79 0 -146 29.5zM480 91.5q50 21.5 81 63.5
q55 72 57 205q0 131 -57 205q-30 41 -78 63t-103 22q-58 0 -108 -21.5t-81 -63.5q-55 -72 -57 -205q0 -131 57 -205q30 -41 78.5 -63t102.5 -22q58 0 108 21.5z" />
    <glyph glyph-name="Ocircumflex" unicode="&#xd4;" horiz-adv-x="752" 
d="M376 857l116 -71l36 63l-152 92l-151 -92l35 -63zM230 14.5q-67 29.5 -110 86.5q-78 99 -80 259q0 74 19 141t61 119q43 56 110 85.5t142 29.5q80 0 148 -29t113 -86q77 -98 79 -260q0 -158 -79 -259q-45 -57 -112 -86.5t-145 -29.5q-79 0 -146 29.5zM480 91.5
q50 21.5 81 63.5q55 72 57 205q0 131 -57 205q-30 41 -78 63t-103 22q-58 0 -108 -21.5t-81 -63.5q-55 -72 -57 -205q0 -131 57 -205q30 -41 78.5 -63t102.5 -22q58 0 108 21.5z" />
    <glyph glyph-name="Odieresis" unicode="&#xd6;" horiz-adv-x="752" 
d="M323 930v-90h-90v90h90zM519 930v-90h-90v90h90zM230 14.5q-67 29.5 -110 86.5q-78 99 -80 259q0 74 19 141t61 119q43 56 110 85.5t142 29.5q80 0 148 -29t113 -86q77 -98 79 -260q0 -158 -79 -259q-45 -57 -112 -86.5t-145 -29.5q-79 0 -146 29.5zM480 91.5
q50 21.5 81 63.5q55 72 57 205q0 131 -57 205q-30 41 -78 63t-103 22q-58 0 -108 -21.5t-81 -63.5q-55 -72 -57 -205q0 -131 57 -205q30 -41 78.5 -63t102.5 -22q58 0 108 21.5z" />
    <glyph glyph-name="Ograve" unicode="&#xd2;" horiz-adv-x="752" 
d="M530 852l-241 95l-25 -67l240 -94zM230 14.5q-67 29.5 -110 86.5q-78 99 -80 259q0 74 19 141t61 119q43 56 110 85.5t142 29.5q80 0 148 -29t113 -86q77 -98 79 -260q0 -158 -79 -259q-45 -57 -112 -86.5t-145 -29.5q-79 0 -146 29.5zM480 91.5q50 21.5 81 63.5
q55 72 57 205q0 131 -57 205q-30 41 -78 63t-103 22q-58 0 -108 -21.5t-81 -63.5q-55 -72 -57 -205q0 -131 57 -205q30 -41 78.5 -63t102.5 -22q58 0 108 21.5z" />
    <glyph glyph-name="Ohungarumlaut" unicode="&#x150;" horiz-adv-x="752" 
d="M426 901l-45 46l-111 -108l45 -47zM578 901l-45 46l-111 -108l45 -47zM230 14.5q-67 29.5 -110 86.5q-78 99 -80 259q0 74 19 141t61 119q43 56 110 85.5t142 29.5q80 0 148 -29t113 -86q77 -98 79 -260q0 -158 -79 -259q-45 -57 -112 -86.5t-145 -29.5q-79 0 -146 29.5z
M480 91.5q50 21.5 81 63.5q55 72 57 205q0 131 -57 205q-30 41 -78 63t-103 22q-58 0 -108 -21.5t-81 -63.5q-55 -72 -57 -205q0 -131 57 -205q30 -41 78.5 -63t102.5 -22q58 0 108 21.5z" />
    <glyph glyph-name="Omacron" unicode="&#x14c;" horiz-adv-x="752" 
d="M499 913v-73h-256v73h256zM230 14.5q-67 29.5 -110 86.5q-78 99 -80 259q0 74 19 141t61 119q43 56 110 85.5t142 29.5q80 0 148 -29t113 -86q77 -98 79 -260q0 -158 -79 -259q-45 -57 -112 -86.5t-145 -29.5q-79 0 -146 29.5zM480 91.5q50 21.5 81 63.5q55 72 57 205
q0 131 -57 205q-30 41 -78 63t-103 22q-58 0 -108 -21.5t-81 -63.5q-55 -72 -57 -205q0 -131 57 -205q30 -41 78.5 -63t102.5 -22q58 0 108 21.5z" />
    <glyph glyph-name="Oslash" unicode="&#xd8;" horiz-adv-x="752" 
d="M659 582q51 -88 53 -222q0 -158 -79 -259q-45 -57 -112 -86.5t-145 -29.5q-67 0 -126.5 21.5t-102.5 64.5l-56 -56l-60 60l63 63q-52 91 -54 222q0 74 19 141t61 119q43 56 110 85.5t142 29.5q68 0 128.5 -21.5t105.5 -64.5l56 56l60 -60zM162 205l381 381
q-31 31 -73.5 47.5t-89.5 16.5q-58 0 -108 -21.5t-81 -63.5q-55 -72 -57 -205q0 -91 28 -155zM591 514l-381 -381q30 -30 73 -46.5t89 -16.5q58 0 108 21.5t81 63.5q55 72 57 205q0 91 -27 154z" />
    <glyph glyph-name="Otilde" unicode="&#xd5;" horiz-adv-x="752" 
d="M533 921q0 -24 -11 -44q-9 -15 -23.5 -24.5t-29.5 -11.5q-14 -2 -21 -2q-30 0 -71 18l-23.5 11.5t-26.5 11t-21 3.5q-14 0 -21 -6.5t-7 -17.5q0 -7 3 -15h-58q-3 11 -3 23q0 25 11 45q9 15 23.5 24.5t29.5 11.5q14 2 21 2q30 0 71 -18l23.5 -11.5t26.5 -11t21 -3.5
q14 0 21 7t7 18q0 7 -3 14h58q3 -10 3 -24zM230 14.5q-67 29.5 -110 86.5q-78 99 -80 259q0 74 19 141t61 119q43 56 110 85.5t142 29.5q80 0 148 -29t113 -86q77 -98 79 -260q0 -158 -79 -259q-45 -57 -112 -86.5t-145 -29.5q-79 0 -146 29.5zM480 91.5q50 21.5 81 63.5
q55 72 57 205q0 131 -57 205q-30 41 -78 63t-103 22q-58 0 -108 -21.5t-81 -63.5q-55 -72 -57 -205q0 -131 57 -205q30 -41 78.5 -63t102.5 -22q58 0 108 21.5z" />
    <glyph glyph-name="OE" unicode="&#x152;" horiz-adv-x="1155" 
d="M734 636v-233h301v-85h-301v-233h361v-85h-450v117l-12 -16q-45 -57 -112 -86.5t-145 -29.5q-79 0 -146 29.5t-110 86.5q-78 99 -80 259q0 74 19 141t61 119q43 56 110 85.5t142 29.5q80 0 148 -29t113 -86l12 -16v116h450v-84h-361zM618 360q0 131 -57 205
q-30 41 -78 63t-103 22q-58 0 -108 -21.5t-81 -63.5q-55 -72 -57 -205q0 -131 57 -205q30 -41 78.5 -63t102.5 -22q58 0 108 21.5t81 63.5q55 72 57 205z" />
    <glyph glyph-name="P" unicode="P" horiz-adv-x="646" 
d="M600 573q15 -39 16 -80q0 -38 -14 -75.5t-39 -67.5q-30 -38 -77 -60.5t-99 -22.5h-218v-267h-89v720h307q40 0 75 -13q57 -19 96 -65q27 -30 42 -69zM515.5 444.5q8.5 22.5 8.5 44.5q0 62 -39 102q-19 20 -45.5 32t-52.5 12h-218v-284h218q29 0 57.5 14t48.5 39
q14 18 22.5 40.5z" />
    <glyph glyph-name="Thorn" unicode="&#xde;" horiz-adv-x="617" 
d="M571 440q15 -39 16 -80q0 -38 -14 -75.5t-39 -67.5q-30 -38 -77 -60.5t-99 -22.5h-188v-134h-90v720h90v-133h188q40 0 75 -13q57 -19 96 -65q27 -30 42 -69zM486.5 311.5q8.5 22.5 8.5 44.5q0 62 -39 102q-19 20 -45.5 32t-52.5 12h-188v-284h188q29 0 57.5 14t48.5 39
q14 18 22.5 40.5z" />
    <glyph glyph-name="Q" unicode="Q" horiz-adv-x="752" 
d="M634 103l59 -59l-58 -59l-60 60q-84 -60 -199 -60q-79 0 -146 29.5t-110 86.5q-78 99 -80 259q0 74 19 141t61 119q43 56 110 85.5t142 29.5q80 0 148 -29t113 -86q77 -98 79 -260q0 -157 -78 -257zM512 108l-73 73l58 59l73 -73q46 71 48 193q0 131 -57 205
q-30 41 -78 63t-103 22q-58 0 -108 -21.5t-81 -63.5q-55 -72 -57 -205q0 -131 57 -205q30 -41 78.5 -63t102.5 -22q82 0 140 38z" />
    <glyph glyph-name="R" unicode="R" horiz-adv-x="627" 
d="M477 285l139 -285h-102l-129 267h-216v-267h-89v720h307q40 0 75 -13q57 -19 96 -65q27 -30 42 -69t16 -80q0 -38 -14 -75.5t-39 -67.5q-33 -41 -86 -65zM169 351h218q29 0 57.5 14t48.5 39q14 18 22.5 40.5t8.5 44.5q0 62 -39 102q-19 20 -45.5 32t-52.5 12h-218v-284z
" />
    <glyph glyph-name="Racute" unicode="&#x154;" horiz-adv-x="627" 
d="M201 786l-25 66l241 95l25 -67zM477 285l139 -285h-102l-129 267h-216v-267h-89v720h307q40 0 75 -13q57 -19 96 -65q27 -30 42 -69t16 -80q0 -38 -14 -75.5t-39 -67.5q-33 -41 -86 -65zM169 351h218q29 0 57.5 14t48.5 39q14 18 22.5 40.5t8.5 44.5q0 62 -39 102
q-19 20 -45.5 32t-52.5 12h-218v-284z" />
    <glyph glyph-name="Rcaron" unicode="&#x158;" horiz-adv-x="627" 
d="M305 786l-152 93l36 62l116 -71l116 71l35 -62zM477 285l139 -285h-102l-129 267h-216v-267h-89v720h307q40 0 75 -13q57 -19 96 -65q27 -30 42 -69t16 -80q0 -38 -14 -75.5t-39 -67.5q-33 -41 -86 -65zM169 351h218q29 0 57.5 14t48.5 39q14 18 22.5 40.5t8.5 44.5
q0 62 -39 102q-19 20 -45.5 32t-52.5 12h-218v-284z" />
    <glyph glyph-name="uni0156" unicode="&#x156;" horiz-adv-x="627" 
d="M477 285l139 -285h-102l-129 267h-216v-267h-89v720h307q40 0 75 -13q57 -19 96 -65q27 -30 42 -69t16 -80q0 -38 -14 -75.5t-39 -67.5q-33 -41 -86 -65zM169 351h218q29 0 57.5 14t48.5 39q14 18 22.5 40.5t8.5 44.5q0 62 -39 102q-19 20 -45.5 32t-52.5 12h-218v-284z
M268 -75h94v-94q0 -42 -27 -66.5t-67 -24.5v44q17 0 34.5 10.5t16.5 36.5h-51v94z" />
    <glyph glyph-name="S" unicode="S" horiz-adv-x="622" 
d="M497 515q-15 36 -35 62t-49 44q-22 14 -51.5 21.5t-59.5 7.5q-56 0 -95 -22q-25 -14 -39.5 -37.5t-14.5 -49.5q0 -36 24 -59q25 -26 96 -48l128 -37q43 -13 74.5 -29t56.5 -40q28 -27 44 -63.5t16 -74.5q0 -45 -23 -88t-62 -70q-67 -47 -187 -47q-154 0 -230 100
q-40 50 -60 133l90 24q12 -63 41 -101q26 -36 69.5 -53.5t92.5 -17.5q36 0 72.5 9t59.5 26q21 16 31.5 39t10.5 49q0 43 -30 71q-31 29 -87 45l-132 39q-44 13 -76.5 28.5t-57.5 38.5q-27 24 -41 58.5t-14 70.5q0 50 30 94.5t76 67.5q57 29 144 29q40 0 78.5 -9t70.5 -28
q44 -25 76.5 -66t51.5 -93z" />
    <glyph glyph-name="Sacute" unicode="&#x15a;" horiz-adv-x="622" 
d="M444 880l-25 67l-241 -95l25 -66zM497 515q-15 36 -35 62t-49 44q-22 14 -51.5 21.5t-59.5 7.5q-56 0 -95 -22q-25 -14 -39.5 -37.5t-14.5 -49.5q0 -36 24 -59q25 -26 96 -48l128 -37q43 -13 74.5 -29t56.5 -40q28 -27 44 -63.5t16 -74.5q0 -45 -23 -88t-62 -70
q-67 -47 -187 -47q-154 0 -230 100q-40 50 -60 133l90 24q12 -63 41 -101q26 -36 69.5 -53.5t92.5 -17.5q36 0 72.5 9t59.5 26q21 16 31.5 39t10.5 49q0 43 -30 71q-31 29 -87 45l-132 39q-44 13 -76.5 28.5t-57.5 38.5q-27 24 -41 58.5t-14 70.5q0 50 30 94.5t76 67.5
q57 29 144 29q40 0 78.5 -9t70.5 -28q44 -25 76.5 -66t51.5 -93z" />
    <glyph glyph-name="Scaron" unicode="&#x160;" horiz-adv-x="622" 
d="M164 879l151 -93l152 93l-36 62l-116 -71l-116 71zM497 515q-15 36 -35 62t-49 44q-22 14 -51.5 21.5t-59.5 7.5q-56 0 -95 -22q-25 -14 -39.5 -37.5t-14.5 -49.5q0 -36 24 -59q25 -26 96 -48l128 -37q43 -13 74.5 -29t56.5 -40q28 -27 44 -63.5t16 -74.5q0 -45 -23 -88
t-62 -70q-67 -47 -187 -47q-154 0 -230 100q-40 50 -60 133l90 24q12 -63 41 -101q26 -36 69.5 -53.5t92.5 -17.5q36 0 72.5 9t59.5 26q21 16 31.5 39t10.5 49q0 43 -30 71q-31 29 -87 45l-132 39q-44 13 -76.5 28.5t-57.5 38.5q-27 24 -41 58.5t-14 70.5q0 50 30 94.5
t76 67.5q57 29 144 29q40 0 78.5 -9t70.5 -28q44 -25 76.5 -66t51.5 -93z" />
    <glyph glyph-name="Scedilla" unicode="&#x15e;" horiz-adv-x="622" 
d="M576 264.5q16 -36.5 16 -74.5q0 -45 -23 -88t-62 -70q-59 -42 -162 -47l-14 -39q30 -13 48 -43q11 -19 11 -46q0 -33 -16 -55q-15 -22 -40 -33.5t-51 -8.5q-25 1 -55 16l21 57q24 -7 35 -8q24 0 33 15q6 9 6 19q0 7 -3 13q-5 14 -18 20.5t-45 16.5l28 77q-129 11 -195 99
q-40 50 -60 133l90 24q12 -63 41 -101q26 -36 69.5 -53.5t92.5 -17.5q36 0 72.5 9t59.5 26q21 16 31.5 39t10.5 49q0 43 -30 71q-31 29 -87 45l-132 39q-44 13 -76.5 28.5t-57.5 38.5q-27 24 -41 58.5t-14 70.5q0 50 30 94.5t76 67.5q57 29 144 29q40 0 78.5 -9t70.5 -28
q44 -25 76.5 -66t51.5 -93l-89 -24q-15 36 -35 62t-49 44q-22 14 -51.5 21.5t-59.5 7.5q-56 0 -95 -22q-25 -14 -39.5 -37.5t-14.5 -49.5q0 -36 24 -59q25 -26 96 -48l128 -37q43 -13 74.5 -29t56.5 -40q28 -27 44 -63.5z" />
    <glyph glyph-name="uni0218" unicode="&#x218;" horiz-adv-x="622" 
d="M497 515q-15 36 -35 62t-49 44q-22 14 -51.5 21.5t-59.5 7.5q-56 0 -95 -22q-25 -14 -39.5 -37.5t-14.5 -49.5q0 -36 24 -59q25 -26 96 -48l128 -37q43 -13 74.5 -29t56.5 -40q28 -27 44 -63.5t16 -74.5q0 -45 -23 -88t-62 -70q-67 -47 -187 -47q-154 0 -230 100
q-40 50 -60 133l90 24q12 -63 41 -101q26 -36 69.5 -53.5t92.5 -17.5q36 0 72.5 9t59.5 26q21 16 31.5 39t10.5 49q0 43 -30 71q-31 29 -87 45l-132 39q-44 13 -76.5 28.5t-57.5 38.5q-27 24 -41 58.5t-14 70.5q0 50 30 94.5t76 67.5q57 29 144 29q40 0 78.5 -9t70.5 -28
q44 -25 76.5 -66t51.5 -93zM333 -235.5q-27 -24.5 -67 -24.5v44q17 0 34.5 10.5t16.5 36.5h-51v94h94v-94q0 -42 -27 -66.5z" />
    <glyph glyph-name="T" unicode="T" horiz-adv-x="600" 
d="M590 636h-245v-636h-89v636h-246v84h580v-84z" />
    <glyph glyph-name="Tbar" unicode="&#x166;" horiz-adv-x="600" 
d="M345 636v-231h180v-89h-180v-316h-89v316h-181v89h181v231h-246v84h580v-84h-245z" />
    <glyph glyph-name="Tcaron" unicode="&#x164;" horiz-adv-x="600" 
d="M280 786l-151 93l35 62l116 -71l116 71l36 -62zM590 636h-245v-636h-89v636h-246v84h580v-84z" />
    <glyph glyph-name="uni0162" unicode="&#x162;" horiz-adv-x="600" 
d="M331 0l-20 -54q32 -13 48 -43q12 -20 12 -46q0 -32 -17 -55q-15 -22 -39.5 -33.5t-51.5 -8.5q-23 1 -55 16l22 57q22 -7 35 -8q23 0 32 15q7 10 7 20q0 6 -3 12q-5 14 -18.5 20.5t-44.5 16.5l33 91h-15v636h-246v84h580v-84h-245v-636h-14z" />
    <glyph glyph-name="uni021A" unicode="&#x21a;" horiz-adv-x="600" 
d="M590 720v-84h-245v-636h-89v636h-246v84h580zM253 -75h94v-94q0 -42 -27 -66.5t-67 -24.5v44q17 0 34.5 10.5t16.5 36.5h-51v94z" />
    <glyph glyph-name="U" unicode="U" horiz-adv-x="728" 
d="M648 262q0 -47 -16.5 -93t-45.5 -83q-39 -48 -96.5 -74.5t-121.5 -26.5q-66 0 -125.5 26t-99.5 75q-29 36 -46 83.5t-17 92.5v458h90v-431q0 -49 8 -81t34 -66q27 -34 67.5 -53.5t85.5 -19.5q44 0 84.5 19.5t67.5 53.5q25 32 33 64.5t8 82.5v431h90v-458z" />
    <glyph glyph-name="Uacute" unicode="&#xda;" horiz-adv-x="728" 
d="M493 880l-25 67l-241 -95l26 -66zM648 262q0 -47 -16.5 -93t-45.5 -83q-39 -48 -96.5 -74.5t-121.5 -26.5q-66 0 -125.5 26t-99.5 75q-29 36 -46 83.5t-17 92.5v458h90v-431q0 -49 8 -81t34 -66q27 -34 67.5 -53.5t85.5 -19.5q44 0 84.5 19.5t67.5 53.5q25 32 33 64.5
t8 82.5v431h90v-458z" />
    <glyph glyph-name="Ucircumflex" unicode="&#xdb;" horiz-adv-x="728" 
d="M356 857l116 -71l35 63l-151 92l-152 -92l36 -63zM648 262q0 -47 -16.5 -93t-45.5 -83q-39 -48 -96.5 -74.5t-121.5 -26.5q-66 0 -125.5 26t-99.5 75q-29 36 -46 83.5t-17 92.5v458h90v-431q0 -49 8 -81t34 -66q27 -34 67.5 -53.5t85.5 -19.5q44 0 84.5 19.5t67.5 53.5
q25 32 33 64.5t8 82.5v431h90v-458z" />
    <glyph glyph-name="Udieresis" unicode="&#xdc;" horiz-adv-x="728" 
d="M297 930v-90h-90v90h90zM493 930v-90h-90v90h90zM648 262q0 -47 -16.5 -93t-45.5 -83q-39 -48 -96.5 -74.5t-121.5 -26.5q-66 0 -125.5 26t-99.5 75q-29 36 -46 83.5t-17 92.5v458h90v-431q0 -49 8 -81t34 -66q27 -34 67.5 -53.5t85.5 -19.5q44 0 84.5 19.5t67.5 53.5
q25 32 33 64.5t8 82.5v431h90v-458z" />
    <glyph glyph-name="Ugrave" unicode="&#xd9;" horiz-adv-x="728" 
d="M498 852l-241 95l-25 -67l241 -94zM648 262q0 -47 -16.5 -93t-45.5 -83q-39 -48 -96.5 -74.5t-121.5 -26.5q-66 0 -125.5 26t-99.5 75q-29 36 -46 83.5t-17 92.5v458h90v-431q0 -49 8 -81t34 -66q27 -34 67.5 -53.5t85.5 -19.5q44 0 84.5 19.5t67.5 53.5q25 32 33 64.5
t8 82.5v431h90v-458z" />
    <glyph glyph-name="Uhungarumlaut" unicode="&#x170;" horiz-adv-x="728" 
d="M389 901l-45 46l-111 -108l45 -47zM541 901l-45 46l-111 -108l45 -47zM648 262q0 -47 -16.5 -93t-45.5 -83q-39 -48 -96.5 -74.5t-121.5 -26.5q-66 0 -125.5 26t-99.5 75q-29 36 -46 83.5t-17 92.5v458h90v-431q0 -49 8 -81t34 -66q27 -34 67.5 -53.5t85.5 -19.5
q44 0 84.5 19.5t67.5 53.5q25 32 33 64.5t8 82.5v431h90v-458z" />
    <glyph glyph-name="Umacron" unicode="&#x16a;" horiz-adv-x="728" 
d="M491 913v-73h-256v73h256zM648 262q0 -47 -16.5 -93t-45.5 -83q-39 -48 -96.5 -74.5t-121.5 -26.5q-66 0 -125.5 26t-99.5 75q-29 36 -46 83.5t-17 92.5v458h90v-431q0 -49 8 -81t34 -66q27 -34 67.5 -53.5t85.5 -19.5q44 0 84.5 19.5t67.5 53.5q25 32 33 64.5t8 82.5
v431h90v-458z" />
    <glyph glyph-name="Uogonek" unicode="&#x172;" horiz-adv-x="728" 
d="M648 720v-458q0 -47 -16.5 -93t-45.5 -83q-7 -9 -23 -25l-46 -46q-43 -41 -58 -62q-31 -44 -39 -69q-4 -12 -4 -20q0 -13 9 -22q10 -11 24 -11q22 0 46 20l36 -45q-18 -24 -46 -37q-19 -9 -41 -9t-42 9.5t-33 25.5q-25 26 -25 68q0 20 8 44q14 38 45 77l2 3
q-12 -2 -37 -2q-64 0 -122.5 26.5t-96.5 74.5q-29 36 -46 83.5t-17 92.5v458h90v-431q0 -49 8 -81t34 -66q27 -34 67.5 -53.5t85.5 -19.5q44 0 84.5 19.5t67.5 53.5q25 32 33 64.5t8 82.5v431h90z" />
    <glyph glyph-name="Uring" unicode="&#x16e;" horiz-adv-x="728" 
d="M427.5 952.5q29.5 -17.5 46.5 -46.5t17 -63t-17 -63.5t-46.5 -46.5t-63.5 -17t-63 17t-46.5 46.5t-17.5 63.5t17.5 63t46.5 46.5t63 17.5t63.5 -17.5zM321.5 885.5q-17.5 -17.5 -17.5 -42.5t17.5 -42.5t42.5 -17.5t42.5 17.5t17.5 42.5t-17.5 42.5t-42.5 17.5
t-42.5 -17.5zM648 262q0 -47 -16.5 -93t-45.5 -83q-39 -48 -96.5 -74.5t-121.5 -26.5q-66 0 -125.5 26t-99.5 75q-29 36 -46 83.5t-17 92.5v458h90v-431q0 -49 8 -81t34 -66q27 -34 67.5 -53.5t85.5 -19.5q44 0 84.5 19.5t67.5 53.5q25 32 33 64.5t8 82.5v431h90v-458z" />
    <glyph glyph-name="V" unicode="V" horiz-adv-x="616" 
d="M5 720h93l209 -625l212 625h92l-241 -720h-124z" />
    <glyph glyph-name="W" unicode="W" horiz-adv-x="949" 
d="M934 720l-208 -720h-89l-163 565l-161 -565h-89l-209 720h93l160 -569l159 569h94l160 -569l160 569h93z" />
    <glyph glyph-name="Wacute" unicode="&#x1e82;" horiz-adv-x="949" 
d="M590 880l-25 67l-241 -95l26 -66zM934 720l-208 -720h-89l-163 565l-161 -565h-89l-209 720h93l160 -569l159 569h94l160 -569l160 569h93z" />
    <glyph glyph-name="Wcircumflex" unicode="&#x174;" horiz-adv-x="949" 
d="M475 857l116 -71l36 63l-152 92l-151 -92l35 -63zM934 720l-208 -720h-89l-163 565l-161 -565h-89l-209 720h93l160 -569l159 569h94l160 -569l160 569h93z" />
    <glyph glyph-name="Wdieresis" unicode="&#x1e84;" horiz-adv-x="949" 
d="M422 930v-90h-90v90h90zM618 930v-90h-90v90h90zM934 720l-208 -720h-89l-163 565l-161 -565h-89l-209 720h93l160 -569l159 569h94l160 -569l160 569h93z" />
    <glyph glyph-name="Wgrave" unicode="&#x1e80;" horiz-adv-x="949" 
d="M613 852l-241 95l-25 -67l240 -94zM934 720l-208 -720h-89l-163 565l-161 -565h-89l-209 720h93l160 -569l159 569h94l160 -569l160 569h93z" />
    <glyph glyph-name="X" unicode="X" horiz-adv-x="623" 
d="M618 0h-109l-197 287l-198 -287h-109l253 365l-246 355h108l192 -278l191 278h109l-246 -355z" />
    <glyph glyph-name="Y" unicode="Y" horiz-adv-x="575" 
d="M575 720l-242 -420v-300h-90v300l-243 420h104l184 -318l183 318h104z" />
    <glyph glyph-name="Yacute" unicode="&#xdd;" horiz-adv-x="575" 
d="M431 880l-25 67l-241 -95l25 -66zM575 720l-242 -420v-300h-90v300l-243 420h104l184 -318l183 318h104z" />
    <glyph glyph-name="Ycircumflex" unicode="&#x176;" horiz-adv-x="575" 
d="M288 857l116 -71l35 63l-151 92l-152 -92l36 -63zM575 720l-242 -420v-300h-90v300l-243 420h104l184 -318l183 318h104z" />
    <glyph glyph-name="Ydieresis" unicode="&#x178;" horiz-adv-x="575" 
d="M235 930v-90h-90v90h90zM431 930v-90h-90v90h90zM575 720l-242 -420v-300h-90v300l-243 420h104l184 -318l183 318h104z" />
    <glyph glyph-name="Ygrave" unicode="&#x1ef2;" horiz-adv-x="575" 
d="M436 852l-241 95l-25 -67l240 -94zM575 720l-242 -420v-300h-90v300l-243 420h104l184 -318l183 318h104z" />
    <glyph glyph-name="Z" unicode="Z" horiz-adv-x="631" 
d="M571 85v-85h-511v85l398 551h-398v84h511v-85l-398 -550h398z" />
    <glyph glyph-name="Zacute" unicode="&#x179;" horiz-adv-x="631" 
d="M471 880l-25 67l-241 -95l26 -66zM571 85v-85h-511v85l398 551h-398v84h511v-85l-398 -550h398z" />
    <glyph glyph-name="Zcaron" unicode="&#x17d;" horiz-adv-x="631" 
d="M179 879l152 -93l151 93l-35 62l-116 -71l-116 71zM571 85v-85h-511v85l398 551h-398v84h511v-85l-398 -550h398z" />
    <glyph glyph-name="Zdotaccent" unicode="&#x17b;" horiz-adv-x="631" 
d="M385 930v-98h-98v98h98zM571 85v-85h-511v85l398 551h-398v84h511v-85l-398 -550h398z" />
    <glyph glyph-name="a" unicode="a" horiz-adv-x="579" 
d="M62 440l15 22q69 92 201 92q77 0 134 -29t85 -89q22 -44 22 -97v-339h-79v105q-13 -27 -38 -50.5t-53 -36.5q-61 -32 -125 -32q-44 0 -85.5 19.5t-64.5 51.5q-17 26 -25.5 49.5t-8.5 51.5q0 43 21.5 79t59.5 59q33 19 66.5 27t95.5 18q9 1 36 5l108 15q-3 24 -14.5 44.5
t-29.5 33.5q-39 31 -101 31q-87 0 -125 -52q-5 -5 -13 -17zM304 265q-56 -9 -91 -18.5t-59 -30t-24 -55.5q0 -38 31 -65t76 -27q54 0 104 28t70 76q13 27 16.5 51t3.5 61q-68 -9 -127 -20z" />
    <glyph glyph-name="aacute" unicode="&#xe1;" horiz-adv-x="579" 
d="M430 700l-25 67l-241 -95l26 -66zM62 440l15 22q69 92 201 92q77 0 134 -29t85 -89q22 -44 22 -97v-339h-79v105q-13 -27 -38 -50.5t-53 -36.5q-61 -32 -125 -32q-44 0 -85.5 19.5t-64.5 51.5q-17 26 -25.5 49.5t-8.5 51.5q0 43 21.5 79t59.5 59q33 19 66.5 27t95.5 18
q9 1 36 5l108 15q-3 24 -14.5 44.5t-29.5 33.5q-39 31 -101 31q-87 0 -125 -52q-5 -5 -13 -17zM304 265q-56 -9 -91 -18.5t-59 -30t-24 -55.5q0 -38 31 -65t76 -27q54 0 104 28t70 76q13 27 16.5 51t3.5 61q-68 -9 -127 -20z" />
    <glyph glyph-name="abreve" unicode="&#x103;" horiz-adv-x="579" 
d="M435 737q0 -37 -18.5 -68.5t-50 -50t-68.5 -18.5t-68 18.5t-49.5 50t-18.5 68.5h72q0 -27 19 -46t45 -19q27 0 46 19t19 46h72zM62 440l15 22q69 92 201 92q77 0 134 -29t85 -89q22 -44 22 -97v-339h-79v105q-13 -27 -38 -50.5t-53 -36.5q-61 -32 -125 -32
q-44 0 -85.5 19.5t-64.5 51.5q-17 26 -25.5 49.5t-8.5 51.5q0 43 21.5 79t59.5 59q33 19 66.5 27t95.5 18q9 1 36 5l108 15q-3 24 -14.5 44.5t-29.5 33.5q-39 31 -101 31q-87 0 -125 -52q-5 -5 -13 -17zM304 265q-56 -9 -91 -18.5t-59 -30t-24 -55.5q0 -38 31 -65t76 -27
q54 0 104 28t70 76q13 27 16.5 51t3.5 61q-68 -9 -127 -20z" />
    <glyph glyph-name="acircumflex" unicode="&#xe2;" horiz-adv-x="579" 
d="M295 677l116 -71l35 63l-151 92l-152 -92l36 -63zM62 440l15 22q69 92 201 92q77 0 134 -29t85 -89q22 -44 22 -97v-339h-79v105q-13 -27 -38 -50.5t-53 -36.5q-61 -32 -125 -32q-44 0 -85.5 19.5t-64.5 51.5q-17 26 -25.5 49.5t-8.5 51.5q0 43 21.5 79t59.5 59
q33 19 66.5 27t95.5 18q9 1 36 5l108 15q-3 24 -14.5 44.5t-29.5 33.5q-39 31 -101 31q-87 0 -125 -52q-5 -5 -13 -17zM304 265q-56 -9 -91 -18.5t-59 -30t-24 -55.5q0 -38 31 -65t76 -27q54 0 104 28t70 76q13 27 16.5 51t3.5 61q-68 -9 -127 -20z" />
    <glyph glyph-name="adieresis" unicode="&#xe4;" horiz-adv-x="579" 
d="M245 750v-90h-90v90h90zM441 750v-90h-90v90h90zM62 440l15 22q69 92 201 92q77 0 134 -29t85 -89q22 -44 22 -97v-339h-79v105q-13 -27 -38 -50.5t-53 -36.5q-61 -32 -125 -32q-44 0 -85.5 19.5t-64.5 51.5q-17 26 -25.5 49.5t-8.5 51.5q0 43 21.5 79t59.5 59
q33 19 66.5 27t95.5 18q9 1 36 5l108 15q-3 24 -14.5 44.5t-29.5 33.5q-39 31 -101 31q-87 0 -125 -52q-5 -5 -13 -17zM304 265q-56 -9 -91 -18.5t-59 -30t-24 -55.5q0 -38 31 -65t76 -27q54 0 104 28t70 76q13 27 16.5 51t3.5 61q-68 -9 -127 -20z" />
    <glyph glyph-name="agrave" unicode="&#xe0;" horiz-adv-x="579" 
d="M455 672l-241 95l-25 -67l241 -94zM62 440l15 22q69 92 201 92q77 0 134 -29t85 -89q22 -44 22 -97v-339h-79v105q-13 -27 -38 -50.5t-53 -36.5q-61 -32 -125 -32q-44 0 -85.5 19.5t-64.5 51.5q-17 26 -25.5 49.5t-8.5 51.5q0 43 21.5 79t59.5 59q33 19 66.5 27t95.5 18
q9 1 36 5l108 15q-3 24 -14.5 44.5t-29.5 33.5q-39 31 -101 31q-87 0 -125 -52q-5 -5 -13 -17zM304 265q-56 -9 -91 -18.5t-59 -30t-24 -55.5q0 -38 31 -65t76 -27q54 0 104 28t70 76q13 27 16.5 51t3.5 61q-68 -9 -127 -20z" />
    <glyph glyph-name="amacron" unicode="&#x101;" horiz-adv-x="579" 
d="M431 733v-73h-256v73h256zM62 440l15 22q69 92 201 92q77 0 134 -29t85 -89q22 -44 22 -97v-339h-79v105q-13 -27 -38 -50.5t-53 -36.5q-61 -32 -125 -32q-44 0 -85.5 19.5t-64.5 51.5q-17 26 -25.5 49.5t-8.5 51.5q0 43 21.5 79t59.5 59q33 19 66.5 27t95.5 18q9 1 36 5
l108 15q-3 24 -14.5 44.5t-29.5 33.5q-39 31 -101 31q-87 0 -125 -52q-5 -5 -13 -17zM304 265q-56 -9 -91 -18.5t-59 -30t-24 -55.5q0 -38 31 -65t76 -27q54 0 104 28t70 76q13 27 16.5 51t3.5 61q-68 -9 -127 -20z" />
    <glyph glyph-name="aogonek" unicode="&#x105;" horiz-adv-x="579" 
d="M537 -194q-17 -24 -47 -37q-19 -9 -41 -9t-42 9.5t-33 25.5q-25 26 -25 68q0 20 8 44q24 64 83 110v88q-13 -27 -38 -50.5t-53 -36.5q-61 -32 -125 -32q-44 0 -85.5 19.5t-64.5 51.5q-17 26 -25.5 49.5t-8.5 51.5q0 43 21.5 79t59.5 59q33 19 66.5 27t95.5 18q9 1 36 5
l108 15q-3 24 -14.5 44.5t-29.5 33.5q-39 31 -101 31q-87 0 -125 -52q-5 -5 -13 -17l-82 39l15 22q69 92 201 92q77 0 134 -29t85 -89q22 -44 22 -97v-339q-35 -26 -55 -53q-27 -30 -39 -63q-3 -8 -3 -19q0 -15 8 -23q10 -11 25 -11q21 0 45 20zM427.5 224q3.5 24 3.5 61
q-68 -9 -127 -20q-56 -9 -91 -18.5t-59 -30t-24 -55.5q0 -38 31 -65t76 -27q54 0 104 28t70 76q13 27 16.5 51z" />
    <glyph glyph-name="aring" unicode="&#xe5;" horiz-adv-x="579" 
d="M519 339v-339h-79v105q-13 -27 -38 -50.5t-53 -36.5q-61 -32 -125 -32q-44 0 -85.5 19.5t-64.5 51.5q-17 26 -25.5 49.5t-8.5 51.5q0 43 21.5 79t59.5 59q33 19 66.5 27t95.5 18q9 1 36 5l108 15q-3 24 -14.5 44.5t-29.5 33.5q-39 31 -101 31q-87 0 -125 -52
q-5 -5 -13 -17l-82 39l15 22q43 57 108 78q-25 33 -25 75q0 34 17.5 63.5t46.5 46.5t63 17t63.5 -17t46.5 -46.5t17 -63.5q0 -45 -28 -79q77 -28 111 -100q22 -44 22 -97zM244.5 657.5q-17.5 -17.5 -17.5 -42.5t17.5 -42.5t42.5 -17.5t42.5 17.5t17.5 42.5t-17.5 42.5
t-42.5 17.5t-42.5 -17.5zM427.5 224q3.5 24 3.5 61q-68 -9 -127 -20q-56 -9 -91 -18.5t-59 -30t-24 -55.5q0 -38 31 -65t76 -27q54 0 104 28t70 76q13 27 16.5 51z" />
    <glyph glyph-name="atilde" unicode="&#xe3;" horiz-adv-x="579" 
d="M453 714q0 -25 -10 -42q-9 -15 -23.5 -24.5t-30.5 -11.5q-14 -2 -21 -2q-30 0 -70 18l-19 9q-14 7 -27.5 12t-24.5 5q-15 0 -21.5 -7t-6.5 -18q0 -9 2 -14h-57q-3 12 -3 26q0 23 10 42q9 15 23.5 24.5t30.5 11.5q14 2 21 2q30 0 70 -18q12 -6 18 -8q18 -9 30 -13.5
t24 -4.5q14 0 20.5 7.5t6.5 18.5q0 5 -2 13h57q3 -12 3 -26zM62 440l15 22q69 92 201 92q77 0 134 -29t85 -89q22 -44 22 -97v-339h-79v105q-13 -27 -38 -50.5t-53 -36.5q-61 -32 -125 -32q-44 0 -85.5 19.5t-64.5 51.5q-17 26 -25.5 49.5t-8.5 51.5q0 43 21.5 79t59.5 59
q33 19 66.5 27t95.5 18q9 1 36 5l108 15q-3 24 -14.5 44.5t-29.5 33.5q-39 31 -101 31q-87 0 -125 -52q-5 -5 -13 -17zM304 265q-56 -9 -91 -18.5t-59 -30t-24 -55.5q0 -38 31 -65t76 -27q54 0 104 28t70 76q13 27 16.5 51t3.5 61q-68 -9 -127 -20z" />
    <glyph glyph-name="ae" unicode="&#xe6;" horiz-adv-x="948" 
d="M513 242q5 -74 36 -117q21 -29 53 -44.5t70 -15.5t69.5 14.5t52.5 43.5q13 16 19 29l73 -40q-14 -26 -25 -40q-33 -43 -80.5 -65t-104.5 -22t-108 23t-83 66q-13 17 -25 41l-7 -11q-38 -64 -102 -93q-52 -24 -116 -24q-30 0 -56 6q-79 17 -110 68q-29 41 -29 90
q0 31 14 64t42 55.5t63 31.5q36 11 73 14.5t96 3.5h100q0 44 -11.5 72.5t-36.5 47.5q-40 30 -111 30q-66 0 -106 -43q-10 -8 -22 -26l-82 39q3 4 6.5 10t9.5 13q33 45 85 68t114 23q90 0 153 -41q32 -23 53 -53l5 7q33 43 81.5 65.5t105.5 22.5t105.5 -22.5t81.5 -65.5
q30 -39 44 -90t14 -108q0 -16 -1 -23h-402q-1 -1 -1 -4zM602 460.5q-32 -15.5 -53 -44.5q-24 -32 -32 -83v-14h312q-7 59 -35 97q-20 29 -52 44.5t-70 15.5t-70 -15.5zM427 240v1h-77q-101 0 -130 -3q-27 -3 -48.5 -15t-32.5 -31q-9 -15 -9 -37q0 -25 14 -45
q13 -18 34.5 -29t42.5 -13l15 -1q45 0 88 19q22 10 42 28t32 38q22 34 29 88z" />
    <glyph glyph-name="b" unicode="b" horiz-adv-x="616" 
d="M561.5 378.5q14.5 -51.5 14.5 -107.5q0 -123 -60 -199q-33 -42 -82.5 -64.5t-104.5 -22.5t-101 20t-78 58v-63h-80v720h90v-231q33 32 77 49t92 17q56 0 105 -22t82 -64q31 -39 45.5 -90.5zM481 271q0 93 -38 143q-21 30 -54 45t-74 15q-38 0 -70 -14t-53 -41
q-42 -53 -42 -148q0 -45 10.5 -84t31.5 -65q22 -27 55 -41t71 -14t71.5 15t54.5 45q37 49 37 144z" />
    <glyph glyph-name="c" unicode="c" horiz-adv-x="562" 
d="M443 384q-6 16 -17 28q-21 29 -54.5 44t-71.5 15t-71.5 -15t-54.5 -44q-38 -48 -40 -142q2 -92 40 -142q21 -28 54.5 -43t71.5 -15t71.5 15t54.5 43q9 12 16 27l85 -36q-16 -28 -29 -45q-36 -44 -88 -67t-110 -22q-59 -1 -110.5 22t-87.5 67q-60 75 -62 196q2 121 62 197
q36 44 87 66t111 22t111.5 -22.5t86.5 -65.5q19 -26 29 -47z" />
    <glyph glyph-name="cacute" unicode="&#x107;" horiz-adv-x="562" 
d="M429 700l-25 67l-241 -95l26 -66zM443 384q-6 16 -17 28q-21 29 -54.5 44t-71.5 15t-71.5 -15t-54.5 -44q-38 -48 -40 -142q2 -92 40 -142q21 -28 54.5 -43t71.5 -15t71.5 15t54.5 43q9 12 16 27l85 -36q-16 -28 -29 -45q-36 -44 -88 -67t-110 -22q-59 -1 -110.5 22
t-87.5 67q-60 75 -62 196q2 121 62 197q36 44 87 66t111 22t111.5 -22.5t86.5 -65.5q19 -26 29 -47z" />
    <glyph glyph-name="ccaron" unicode="&#x10d;" horiz-adv-x="562" 
d="M154 699l151 -93l152 93l-36 62l-116 -71l-116 71zM443 384q-6 16 -17 28q-21 29 -54.5 44t-71.5 15t-71.5 -15t-54.5 -44q-38 -48 -40 -142q2 -92 40 -142q21 -28 54.5 -43t71.5 -15t71.5 15t54.5 43q9 12 16 27l85 -36q-16 -28 -29 -45q-36 -44 -88 -67t-110 -22
q-59 -1 -110.5 22t-87.5 67q-60 75 -62 196q2 121 62 197q36 44 87 66t111 22t111.5 -22.5t86.5 -65.5q19 -26 29 -47z" />
    <glyph glyph-name="ccedilla" unicode="&#xe7;" horiz-adv-x="562" 
d="M442 155l85 -36q-16 -28 -29 -45q-29 -36 -69.5 -58t-87.5 -28l-14 -42q30 -13 48 -43q11 -19 11 -46q0 -33 -16 -55q-15 -22 -40 -33.5t-51 -8.5q-25 1 -55 16l21 57q24 -7 35 -8q24 0 33 15q6 9 6 19q0 7 -3 13q-5 14 -18 20.5t-45 16.5l27 76q-53 3 -99 26t-79 63
q-60 75 -62 196q2 121 62 197q36 44 87 66t111 22t111.5 -22.5t86.5 -65.5q19 -26 29 -47l-84 -36q-6 16 -17 28q-21 29 -54.5 44t-71.5 15t-71.5 -15t-54.5 -44q-38 -48 -40 -142q2 -92 40 -142q21 -28 54.5 -43t71.5 -15t71.5 15t54.5 43q9 12 16 27z" />
    <glyph glyph-name="cdotaccent" unicode="&#x10b;" horiz-adv-x="562" 
d="M358 750v-98h-98v98h98zM443 384q-6 16 -17 28q-21 29 -54.5 44t-71.5 15t-71.5 -15t-54.5 -44q-38 -48 -40 -142q2 -92 40 -142q21 -28 54.5 -43t71.5 -15t71.5 15t54.5 43q9 12 16 27l85 -36q-16 -28 -29 -45q-36 -44 -88 -67t-110 -22q-59 -1 -110.5 22t-87.5 67
q-60 75 -62 196q2 121 62 197q36 44 87 66t111 22t111.5 -22.5t86.5 -65.5q19 -26 29 -47z" />
    <glyph glyph-name="d" unicode="d" horiz-adv-x="616" 
d="M546 720v-720h-80v63q-32 -38 -78 -58t-101 -20t-104.5 22.5t-82.5 64.5q-60 76 -60 199q0 56 14.5 107.5t45.5 90.5q33 42 82 64t105 22q48 0 92 -17t77 -49v231h90zM455.5 187q10.5 39 10.5 84q0 95 -42 148q-21 27 -53 41t-70 14q-41 0 -74 -15t-54 -45
q-38 -50 -38 -143q0 -95 37 -144q21 -30 54.5 -45t71.5 -15t71 14t55 41q21 26 31.5 65z" />
    <glyph glyph-name="eth" unicode="&#xf0;" horiz-adv-x="587" 
d="M532.5 467.5q14.5 -80.5 14.5 -213.5q0 -56 -16 -105t-48 -85q-31 -42 -81.5 -60.5t-111.5 -18.5q-54 0 -103 20.5t-83 58.5q-32 36 -47.5 85t-16.5 103q2 119 64 188q34 39 84 59t106 20q90 0 142 -47q13 -8 23 -18q-7 62 -42 109q-22 32 -53 57l-51 -65l-58 46l44 56
q-37 15 -83 18l13 72q65 -3 120 -26l58 74l58 -46l-52 -67q37 -31 61 -70q44 -64 58.5 -144.5zM448 254q0 43 -16 79q-13 31 -36.5 52.5t-54.5 32.5q-26 8 -49 8q-40 0 -74 -20q-54 -31 -72 -101q-7 -24 -7 -54q0 -44 16 -80q13 -31 37 -52.5t55 -31.5q24 -9 50 -9
q39 0 73 20q27 15 45 41.5t26 60.5q7 24 7 54z" />
    <glyph glyph-name="dcaron" unicode="&#x10f;" horiz-adv-x="741" 
d="M546 720v-720h-80v63q-32 -38 -78 -58t-101 -20t-104.5 22.5t-82.5 64.5q-60 76 -60 199q0 56 14.5 107.5t45.5 90.5q33 42 82 64t105 22q48 0 92 -17t77 -49v231h90zM455.5 187q10.5 39 10.5 84q0 95 -42 148q-21 27 -53 41t-70 14q-41 0 -74 -15t-54 -45
q-38 -50 -38 -143q0 -95 37 -144q21 -30 54.5 -45t71.5 -15t71 14t55 41q21 26 31.5 65zM703.5 524q-19.5 -26 -57.5 -26q-7 0 -21 2l6 41q52 -4 46 71h-52v113h98v-128q0 -47 -19.5 -73z" />
    <glyph glyph-name="dcroat" unicode="&#x111;" horiz-adv-x="616" 
d="M599 590h-53v-590h-80v63q-32 -38 -78 -58t-101 -20t-104.5 22.5t-82.5 64.5q-60 76 -60 199q0 56 14.5 107.5t45.5 90.5q33 42 82 64t105 22q48 0 92 -17t77 -49v101h-113v73h113v57h90v-57h53v-73zM455.5 187q10.5 39 10.5 84q0 95 -42 148q-21 27 -53 41t-70 14
q-41 0 -74 -15t-54 -45q-38 -50 -38 -143q0 -95 37 -144q21 -30 54.5 -45t71.5 -15t71 14t55 41q21 26 31.5 65z" />
    <glyph glyph-name="e" unicode="e" 
d="M170 125q21 -29 56 -44.5t74 -15.5q40 0 73.5 14.5t56.5 43.5q13 16 19 29l78 -40q-12 -23 -27 -40q-35 -43 -85 -65t-111 -22q-60 0 -113.5 23t-88.5 66q-62 79 -62 193q0 123 62 200q35 43 86.5 65.5t111.5 22.5t111.5 -22.5t86.5 -65.5q31 -39 46.5 -90.5t15.5 -107.5
l-1 -23h-427q3 -75 38 -121zM226 460.5q-35 -15.5 -56 -44.5q-27 -35 -36 -97h333q-8 60 -37 97q-21 29 -55.5 44.5t-74.5 15.5q-39 0 -74 -15.5z" />
    <glyph glyph-name="eacute" unicode="&#xe9;" 
d="M192 606l-25 66l241 95l25 -67zM170 125q21 -29 56 -44.5t74 -15.5q40 0 73.5 14.5t56.5 43.5q13 16 19 29l78 -40q-12 -23 -27 -40q-35 -43 -85 -65t-111 -22q-60 0 -113.5 23t-88.5 66q-62 79 -62 193q0 123 62 200q35 43 86.5 65.5t111.5 22.5t111.5 -22.5t86.5 -65.5
q31 -39 46.5 -90.5t15.5 -107.5l-1 -23h-427q3 -75 38 -121zM226 460.5q-35 -15.5 -56 -44.5q-27 -35 -36 -97h333q-8 60 -37 97q-21 29 -55.5 44.5t-74.5 15.5q-39 0 -74 -15.5z" />
    <glyph glyph-name="ecaron" unicode="&#x11b;" 
d="M316 606l-151 93l35 62l116 -71l116 71l36 -62zM170 125q21 -29 56 -44.5t74 -15.5q40 0 73.5 14.5t56.5 43.5q13 16 19 29l78 -40q-12 -23 -27 -40q-35 -43 -85 -65t-111 -22q-60 0 -113.5 23t-88.5 66q-62 79 -62 193q0 123 62 200q35 43 86.5 65.5t111.5 22.5
t111.5 -22.5t86.5 -65.5q31 -39 46.5 -90.5t15.5 -107.5l-1 -23h-427q3 -75 38 -121zM226 460.5q-35 -15.5 -56 -44.5q-27 -35 -36 -97h333q-8 60 -37 97q-21 29 -55.5 44.5t-74.5 15.5q-39 0 -74 -15.5z" />
    <glyph glyph-name="ecircumflex" unicode="&#xea;" 
d="M184 606l-35 63l151 92l152 -92l-36 -63l-116 71zM170 125q21 -29 56 -44.5t74 -15.5q40 0 73.5 14.5t56.5 43.5q13 16 19 29l78 -40q-12 -23 -27 -40q-35 -43 -85 -65t-111 -22q-60 0 -113.5 23t-88.5 66q-62 79 -62 193q0 123 62 200q35 43 86.5 65.5t111.5 22.5
t111.5 -22.5t86.5 -65.5q31 -39 46.5 -90.5t15.5 -107.5l-1 -23h-427q3 -75 38 -121zM226 460.5q-35 -15.5 -56 -44.5q-27 -35 -36 -97h333q-8 60 -37 97q-21 29 -55.5 44.5t-74.5 15.5q-39 0 -74 -15.5z" />
    <glyph glyph-name="edieresis" unicode="&#xeb;" 
d="M247 660h-90v90h90v-90zM443 660h-90v90h90v-90zM170 125q21 -29 56 -44.5t74 -15.5q40 0 73.5 14.5t56.5 43.5q13 16 19 29l78 -40q-12 -23 -27 -40q-35 -43 -85 -65t-111 -22q-60 0 -113.5 23t-88.5 66q-62 79 -62 193q0 123 62 200q35 43 86.5 65.5t111.5 22.5
t111.5 -22.5t86.5 -65.5q31 -39 46.5 -90.5t15.5 -107.5l-1 -23h-427q3 -75 38 -121zM226 460.5q-35 -15.5 -56 -44.5q-27 -35 -36 -97h333q-8 60 -37 97q-21 29 -55.5 44.5t-74.5 15.5q-39 0 -74 -15.5z" />
    <glyph glyph-name="edotaccent" unicode="&#x117;" 
d="M355 652h-98v98h98v-98zM170 125q21 -29 56 -44.5t74 -15.5q40 0 73.5 14.5t56.5 43.5q13 16 19 29l78 -40q-12 -23 -27 -40q-35 -43 -85 -65t-111 -22q-60 0 -113.5 23t-88.5 66q-62 79 -62 193q0 123 62 200q35 43 86.5 65.5t111.5 22.5t111.5 -22.5t86.5 -65.5
q31 -39 46.5 -90.5t15.5 -107.5l-1 -23h-427q3 -75 38 -121zM226 460.5q-35 -15.5 -56 -44.5q-27 -35 -36 -97h333q-8 60 -37 97q-21 29 -55.5 44.5t-74.5 15.5q-39 0 -74 -15.5z" />
    <glyph glyph-name="egrave" unicode="&#xe8;" 
d="M441 606l-240 94l25 67l241 -95zM170 125q21 -29 56 -44.5t74 -15.5q40 0 73.5 14.5t56.5 43.5q13 16 19 29l78 -40q-12 -23 -27 -40q-35 -43 -85 -65t-111 -22q-60 0 -113.5 23t-88.5 66q-62 79 -62 193q0 123 62 200q35 43 86.5 65.5t111.5 22.5t111.5 -22.5
t86.5 -65.5q31 -39 46.5 -90.5t15.5 -107.5l-1 -23h-427q3 -75 38 -121zM226 460.5q-35 -15.5 -56 -44.5q-27 -35 -36 -97h333q-8 60 -37 97q-21 29 -55.5 44.5t-74.5 15.5q-39 0 -74 -15.5z" />
    <glyph glyph-name="emacron" unicode="&#x113;" 
d="M438 660h-256v73h256v-73zM170 125q21 -29 56 -44.5t74 -15.5q40 0 73.5 14.5t56.5 43.5q13 16 19 29l78 -40q-12 -23 -27 -40q-35 -43 -85 -65t-111 -22q-60 0 -113.5 23t-88.5 66q-62 79 -62 193q0 123 62 200q35 43 86.5 65.5t111.5 22.5t111.5 -22.5t86.5 -65.5
q31 -39 46.5 -90.5t15.5 -107.5l-1 -23h-427q3 -75 38 -121zM226 460.5q-35 -15.5 -56 -44.5q-27 -35 -36 -97h333q-8 60 -37 97q-21 29 -55.5 44.5t-74.5 15.5q-39 0 -74 -15.5z" />
    <glyph glyph-name="eogonek" unicode="&#x119;" 
d="M170 125q21 -29 56 -44.5t74 -15.5q40 0 73.5 14.5t56.5 43.5q13 16 19 29l68 -35h13q-27 -52 -79 -122l-22 -32q-29 -47 -39 -79q-3 -8 -3 -17q0 -16 9 -25q10 -11 25 -11q21 0 45 20l37 -45q-17 -24 -47 -37q-20 -9 -41 -9q-22 0 -42 9.5t-33 25.5q-25 26 -25 68
q0 20 8 44q14 39 47 85q-29 -7 -66 -7q-60 0 -113.5 23t-88.5 66q-62 79 -62 193q0 123 62 200q35 43 86.5 65.5t111.5 22.5t111.5 -22.5t86.5 -65.5q31 -39 46.5 -90.5t15.5 -107.5l-1 -23h-427q3 -75 38 -121zM226 460.5q-35 -15.5 -56 -44.5q-27 -35 -36 -97h333
q-8 60 -37 97q-21 29 -55.5 44.5t-74.5 15.5q-39 0 -74 -15.5z" />
    <glyph glyph-name="f" unicode="f" horiz-adv-x="381" 
d="M234.5 626q-15.5 -21 -15.5 -59v-27h152v-73h-152v-467h-89v467h-120v73h120v21q0 37 11.5 71.5t38.5 59.5q52 44 140 44q25 0 51 -3v-78q-19 3 -40 3q-24 0 -43 -4q-38 -7 -53.5 -28z" />
    <glyph glyph-name="g" unicode="g" horiz-adv-x="615" 
d="M545 540v-544q0 -74 -19.5 -121.5t-66.5 -80.5q-70 -49 -165 -49q-43 0 -83.5 15t-69.5 42q-41 25 -61 61l82 40q7 -12 23 -28q19 -22 48.5 -33t60.5 -11q34 0 64.5 9t52.5 27q27 22 36 50t9 80v54q-31 -33 -74.5 -49.5t-94.5 -16.5q-55 0 -104.5 22.5t-82.5 64.5
q-60 76 -60 199q0 56 14.5 107.5t45.5 90.5q33 42 82 64t105 22q52 0 99 -20t80 -56v61h79zM455.5 187q10.5 39 10.5 84q0 95 -42 148q-21 27 -53 41t-70 14q-41 0 -74 -15t-54 -45q-38 -50 -38 -143q0 -95 37 -144q21 -30 54.5 -45t71.5 -15t71 14t55 41q21 26 31.5 65z
" />
    <glyph glyph-name="gbreve" unicode="&#x11f;" horiz-adv-x="615" 
d="M255.5 618.5q-31.5 18.5 -50 50t-18.5 68.5h72q0 -27 19 -46t46 -19t45.5 19t18.5 46h72q0 -37 -18.5 -68.5t-49.5 -50t-68 -18.5t-68.5 18.5zM545 540v-544q0 -74 -19.5 -121.5t-66.5 -80.5q-70 -49 -165 -49q-43 0 -83.5 15t-69.5 42q-41 25 -61 61l82 40q7 -12 23 -28
q19 -22 48.5 -33t60.5 -11q34 0 64.5 9t52.5 27q27 22 36 50t9 80v54q-31 -33 -74.5 -49.5t-94.5 -16.5q-55 0 -104.5 22.5t-82.5 64.5q-60 76 -60 199q0 56 14.5 107.5t45.5 90.5q33 42 82 64t105 22q52 0 99 -20t80 -56v61h79zM455.5 187q10.5 39 10.5 84q0 95 -42 148
q-21 27 -53 41t-70 14q-41 0 -74 -15t-54 -45q-38 -50 -38 -143q0 -95 37 -144q21 -30 54.5 -45t71.5 -15t71 14t55 41q21 26 31.5 65z" />
    <glyph glyph-name="uni0123" unicode="&#x123;" horiz-adv-x="615" 
d="M368 600h-94v94q0 42 27 66.5t67 24.5v-44q-17 0 -34.5 -10.5t-16.5 -36.5h51v-94zM545 540v-544q0 -74 -19.5 -121.5t-66.5 -80.5q-70 -49 -165 -49q-43 0 -83.5 15t-69.5 42q-41 25 -61 61l82 40q7 -12 23 -28q19 -22 48.5 -33t60.5 -11q34 0 64.5 9t52.5 27
q27 22 36 50t9 80v54q-31 -33 -74.5 -49.5t-94.5 -16.5q-55 0 -104.5 22.5t-82.5 64.5q-60 76 -60 199q0 56 14.5 107.5t45.5 90.5q33 42 82 64t105 22q52 0 99 -20t80 -56v61h79zM455.5 187q10.5 39 10.5 84q0 95 -42 148q-21 27 -53 41t-70 14q-41 0 -74 -15t-54 -45
q-38 -50 -38 -143q0 -95 37 -144q21 -30 54.5 -45t71.5 -15t71 14t55 41q21 26 31.5 65z" />
    <glyph glyph-name="gdotaccent" unicode="&#x121;" horiz-adv-x="615" 
d="M369 652h-98v98h98v-98zM545 540v-544q0 -74 -19.5 -121.5t-66.5 -80.5q-70 -49 -165 -49q-43 0 -83.5 15t-69.5 42q-41 25 -61 61l82 40q7 -12 23 -28q19 -22 48.5 -33t60.5 -11q34 0 64.5 9t52.5 27q27 22 36 50t9 80v54q-31 -33 -74.5 -49.5t-94.5 -16.5
q-55 0 -104.5 22.5t-82.5 64.5q-60 76 -60 199q0 56 14.5 107.5t45.5 90.5q33 42 82 64t105 22q52 0 99 -20t80 -56v61h79zM455.5 187q10.5 39 10.5 84q0 95 -42 148q-21 27 -53 41t-70 14q-41 0 -74 -15t-54 -45q-38 -50 -38 -143q0 -95 37 -144q21 -30 54.5 -45t71.5 -15
t71 14t55 41q21 26 31.5 65z" />
    <glyph glyph-name="h" unicode="h" horiz-adv-x="595" 
d="M528.5 408q17.5 -58 16.5 -141v-267h-90v267q0 62 -12 103.5t-45 67.5q-36 29 -93 29q-55 0 -92 -32q-36 -30 -47 -86q-6 -25 -6 -73v-276h-90v720h80v-237l14 14q31 29 72 42.5t84 13.5q38 0 74.5 -12t65.5 -35q51 -40 68.5 -98z" />
    <glyph glyph-name="hbar" unicode="&#x127;" horiz-adv-x="595" 
d="M528.5 408q17.5 -58 16.5 -141v-267h-90v267q0 62 -12 103.5t-45 67.5q-36 29 -93 29q-55 0 -92 -32q-36 -30 -47 -86q-6 -25 -6 -73v-276h-90v590h-61v73h61v57h80v-57h115v-73h-115v-107l14 14q31 29 72 42.5t84 13.5q38 0 74.5 -12t65.5 -35q51 -40 68.5 -98z" />
    <glyph glyph-name="i" unicode="i" horiz-adv-x="249" 
d="M169 723v-92h-89v92h89zM169 540v-540h-89v540h89z" />
    <glyph glyph-name="dotlessi" unicode="&#x131;" horiz-adv-x="249" 
d="M169 540v-540h-89v540h89z" />
    <glyph glyph-name="iacute" unicode="&#xed;" horiz-adv-x="249" 
d="M257 700l-25 67l-241 -95l26 -66zM169 540v-540h-89v540h89z" />
    <glyph glyph-name="icircumflex" unicode="&#xee;" horiz-adv-x="249" 
d="M130 677l116 -71l35 63l-151 92l-152 -92l36 -63zM169 540v-540h-89v540h89z" />
    <glyph glyph-name="idieresis" unicode="&#xef;" horiz-adv-x="249" 
d="M72 750v-90h-91v90h91zM268 750v-90h-90v90h90zM169 540v-540h-89v540h89z" />
    <glyph glyph-name="i.loclTRK" horiz-adv-x="249" 
d="M169 723v-92h-89v92h89zM169 540v-540h-89v540h89z" />
    <glyph glyph-name="igrave" unicode="&#xec;" horiz-adv-x="249" 
d="M258 672l-241 95l-25 -67l241 -94zM169 540v-540h-89v540h89z" />
    <glyph glyph-name="imacron" unicode="&#x12b;" horiz-adv-x="249" 
d="M253 733v-73h-257v73h257zM169 540v-540h-89v540h89z" />
    <glyph glyph-name="iogonek" unicode="&#x12f;" horiz-adv-x="249" 
d="M169 631h-89v92h89v-92zM187 -194q-17 -24 -47 -37q-19 -9 -41 -9t-42 9.5t-33 25.5q-25 26 -25 68q0 20 8 44q20 54 73 102v531h89v-540q-35 -26 -55 -53q-27 -30 -39 -63q-3 -8 -3 -19q0 -15 8 -23q10 -11 25 -11q21 0 45 20z" />
    <glyph glyph-name="j" unicode="j" horiz-adv-x="268" 
d="M188 715v-92h-89v92h89zM15 -255q40 0 73.5 14.5t56.5 42.5q27 31 35 71t8 108v559h-89v-559q0 -54 -4.5 -80t-20.5 -43q-20 -22 -59 -22v-91z" />
    <glyph glyph-name="k" unicode="k" horiz-adv-x="516" 
d="M161 0h-91l1 720h90v-397h56l171 217h104l-197 -254l221 -286h-105l-193 249h-57v-249z" />
    <glyph glyph-name="uni0137" unicode="&#x137;" horiz-adv-x="516" 
d="M161 0h-91l1 720h90v-397h56l171 217h104l-197 -254l221 -286h-105l-193 249h-57v-249zM301 -235.5q-27 -24.5 -67 -24.5v44q17 0 34.5 10.5t16.5 36.5h-51v94h94v-94q0 -42 -27 -66.5z" />
    <glyph glyph-name="l" unicode="l" horiz-adv-x="229" 
d="M159 0v735h-89v-735h89z" />
    <glyph glyph-name="lacute" unicode="&#x13a;" horiz-adv-x="229" 
d="M247 880l-25 67l-241 -95l26 -66zM159 0v735h-89v-735h89z" />
    <glyph glyph-name="lcaron" unicode="&#x13e;" horiz-adv-x="367" 
d="M159 0v735h-89v-735h89zM330.5 524q-19.5 -26 -57.5 -26q-7 0 -21 2l6 41q52 -4 46 71h-52v113h98v-128q0 -47 -19.5 -73z" />
    <glyph glyph-name="uni013C" unicode="&#x13c;" horiz-adv-x="229" 
d="M159 0v735h-89v-735h89zM137 -235.5q-27 -24.5 -67 -24.5v44q17 0 34.5 10.5t16.5 36.5h-51v94h94v-94q0 -42 -27 -66.5z" />
    <glyph glyph-name="lslash" unicode="&#x142;" horiz-adv-x="384" 
d="M348 408l-111 -64v-344h-89v293l-112 -64v98l112 64v344h89v-293l111 64v-98z" />
    <glyph glyph-name="m" unicode="m" horiz-adv-x="856" 
d="M794 438q12 -41 12 -106l-1 -332h-89l1 332q0 43 -7.5 67t-32.5 46q-15 14 -35 22t-41 8q-27 0 -51 -11t-40 -31t-21.5 -41t-5.5 -49v-11l-1 -332h-89l1 332q0 43 -7.5 67t-32.5 46q-15 14 -35 22t-41 8q-27 0 -51 -11t-40 -31t-21.5 -41t-5.5 -49v-343h-90v540h80v-58
q27 34 66.5 53t84.5 19q32 0 63.5 -11t55.5 -32q26 -22 40 -48l6 9q26 39 68 60.5t90 21.5q32 0 63.5 -11t55.5 -32q39 -32 51 -73z" />
    <glyph glyph-name="n" unicode="n" horiz-adv-x="595" 
d="M528.5 408q17.5 -58 16.5 -141v-267h-90v267q0 62 -12 103.5t-45 67.5q-36 29 -93 29q-55 0 -92 -32q-36 -30 -47 -86q-6 -25 -6 -73v-276h-90v540h80v-57l14 14q31 29 72 42.5t84 13.5q38 0 74.5 -12t65.5 -35q51 -40 68.5 -98z" />
    <glyph glyph-name="nacute" unicode="&#x144;" horiz-adv-x="595" 
d="M213 606l-26 66l241 95l25 -67zM528.5 408q17.5 -58 16.5 -141v-267h-90v267q0 62 -12 103.5t-45 67.5q-36 29 -93 29q-55 0 -92 -32q-36 -30 -47 -86q-6 -25 -6 -73v-276h-90v540h80v-57l14 14q31 29 72 42.5t84 13.5q38 0 74.5 -12t65.5 -35q51 -40 68.5 -98z" />
    <glyph glyph-name="ncaron" unicode="&#x148;" horiz-adv-x="595" 
d="M318 606l-152 93l36 62l116 -71l116 71l35 -62zM528.5 408q17.5 -58 16.5 -141v-267h-90v267q0 62 -12 103.5t-45 67.5q-36 29 -93 29q-55 0 -92 -32q-36 -30 -47 -86q-6 -25 -6 -73v-276h-90v540h80v-57l14 14q31 29 72 42.5t84 13.5q38 0 74.5 -12t65.5 -35
q51 -40 68.5 -98z" />
    <glyph glyph-name="uni0146" unicode="&#x146;" horiz-adv-x="595" 
d="M528.5 408q17.5 -58 16.5 -141v-267h-90v267q0 62 -12 103.5t-45 67.5q-36 29 -93 29q-55 0 -92 -32q-36 -30 -47 -86q-6 -25 -6 -73v-276h-90v540h80v-57l14 14q31 29 72 42.5t84 13.5q38 0 74.5 -12t65.5 -35q51 -40 68.5 -98zM262 -75h94v-94q0 -42 -27 -66.5
t-67 -24.5v44q17 0 34.5 10.5t16.5 36.5h-51v94z" />
    <glyph glyph-name="eng" unicode="&#x14b;" horiz-adv-x="595" 
d="M528.5 408q17.5 -58 16.5 -141v-359q0 -50 -21 -78.5t-58 -35.5q-19 -4 -39 -4t-56 8v68q18 -2 27 -2q28 0 42.5 16t14.5 59v328q0 62 -12 103.5t-45 67.5q-36 29 -93 29q-55 0 -92 -32q-36 -30 -47 -86q-6 -25 -6 -73v-276h-90v540h80v-57l14 14q31 29 72 42.5t84 13.5
q38 0 74.5 -12t65.5 -35q51 -40 68.5 -98z" />
    <glyph glyph-name="ntilde" unicode="&#xf1;" horiz-adv-x="595" 
d="M166 639q-3 12 -3 26q0 23 10 42q9 15 23.5 24.5t30.5 11.5q14 2 21 2q30 0 70 -18q12 -6 18 -8q18 -9 30 -13.5t24 -4.5q14 0 20.5 7.5t6.5 18.5q0 5 -2 13h57q3 -12 3 -26q0 -25 -10 -42q-9 -15 -23.5 -24.5t-30.5 -11.5q-14 -2 -21 -2q-30 0 -70 18l-19 9
q-14 7 -27.5 12t-24.5 5q-15 0 -21.5 -7t-6.5 -18q0 -9 2 -14h-57zM528.5 408q17.5 -58 16.5 -141v-267h-90v267q0 62 -12 103.5t-45 67.5q-36 29 -93 29q-55 0 -92 -32q-36 -30 -47 -86q-6 -25 -6 -73v-276h-90v540h80v-57l14 14q31 29 72 42.5t84 13.5q38 0 74.5 -12
t65.5 -35q51 -40 68.5 -98z" />
    <glyph glyph-name="o" unicode="o" horiz-adv-x="601" 
d="M189 7.5q-52 22.5 -87 66.5q-62 79 -62 197q0 119 62 196q34 42 86.5 65t111.5 23q60 0 112 -22.5t86 -65.5q63 -76 63 -196q0 -119 -63 -197q-35 -44 -86.5 -66.5t-111.5 -22.5q-59 0 -111 22.5zM466 271q0 93 -39 142q-20 28 -54 43t-73 15t-72.5 -15t-53.5 -43
q-39 -49 -39 -142q0 -92 39 -143q21 -28 54.5 -43t71.5 -15q39 0 72.5 15t54.5 43q39 51 39 143z" />
    <glyph glyph-name="oacute" unicode="&#xf3;" horiz-adv-x="601" 
d="M421 700l-25 67l-241 -95l26 -66zM189 7.5q-52 22.5 -87 66.5q-62 79 -62 197q0 119 62 196q34 42 86.5 65t111.5 23q60 0 112 -22.5t86 -65.5q63 -76 63 -196q0 -119 -63 -197q-35 -44 -86.5 -66.5t-111.5 -22.5q-59 0 -111 22.5zM466 271q0 93 -39 142q-20 28 -54 43
t-73 15t-72.5 -15t-53.5 -43q-39 -49 -39 -142q0 -92 39 -143q21 -28 54.5 -43t71.5 -15q39 0 72.5 15t54.5 43q39 51 39 143z" />
    <glyph glyph-name="ocircumflex" unicode="&#xf4;" horiz-adv-x="601" 
d="M301 677l116 -71l35 63l-151 92l-152 -92l36 -63zM189 7.5q-52 22.5 -87 66.5q-62 79 -62 197q0 119 62 196q34 42 86.5 65t111.5 23q60 0 112 -22.5t86 -65.5q63 -76 63 -196q0 -119 -63 -197q-35 -44 -86.5 -66.5t-111.5 -22.5q-59 0 -111 22.5zM466 271q0 93 -39 142
q-20 28 -54 43t-73 15t-72.5 -15t-53.5 -43q-39 -49 -39 -142q0 -92 39 -143q21 -28 54.5 -43t71.5 -15q39 0 72.5 15t54.5 43q39 51 39 143z" />
    <glyph glyph-name="odieresis" unicode="&#xf6;" horiz-adv-x="601" 
d="M248 750v-90h-90v90h90zM444 750v-90h-90v90h90zM189 7.5q-52 22.5 -87 66.5q-62 79 -62 197q0 119 62 196q34 42 86.5 65t111.5 23q60 0 112 -22.5t86 -65.5q63 -76 63 -196q0 -119 -63 -197q-35 -44 -86.5 -66.5t-111.5 -22.5q-59 0 -111 22.5zM466 271q0 93 -39 142
q-20 28 -54 43t-73 15t-72.5 -15t-53.5 -43q-39 -49 -39 -142q0 -92 39 -143q21 -28 54.5 -43t71.5 -15q39 0 72.5 15t54.5 43q39 51 39 143z" />
    <glyph glyph-name="ograve" unicode="&#xf2;" horiz-adv-x="601" 
d="M446 672l-241 95l-25 -67l240 -94zM189.5 7.5q-51.5 22.5 -86.5 66.5q-63 78 -63 197q0 120 63 196q34 43 86 65.5t112 22.5q59 0 111.5 -23t86.5 -65q62 -77 62 -196q0 -118 -62 -197q-35 -44 -87 -66.5t-111 -22.5q-60 0 -111.5 22.5zM228.5 85q33.5 -15 72.5 -15
q38 0 71.5 15t54.5 43q39 51 39 143q0 93 -39 142q-20 28 -53.5 43t-72.5 15t-73 -15t-54 -43q-39 -49 -39 -142q0 -92 39 -143q21 -28 54.5 -43z" />
    <glyph glyph-name="ohungarumlaut" unicode="&#x151;" horiz-adv-x="601" 
d="M334 721l-45 46l-111 -108l45 -47zM485 721l-45 46l-111 -108l45 -47zM189 7.5q-52 22.5 -87 66.5q-62 79 -62 197q0 119 62 196q34 42 86.5 65t111.5 23q60 0 112 -22.5t86 -65.5q63 -76 63 -196q0 -119 -63 -197q-35 -44 -86.5 -66.5t-111.5 -22.5q-59 0 -111 22.5z
M466 271q0 93 -39 142q-20 28 -54 43t-73 15t-72.5 -15t-53.5 -43q-39 -49 -39 -142q0 -92 39 -143q21 -28 54.5 -43t71.5 -15q39 0 72.5 15t54.5 43q39 51 39 143z" />
    <glyph glyph-name="omacron" unicode="&#x14d;" horiz-adv-x="601" 
d="M429 733v-73h-256v73h256zM189 7.5q-52 22.5 -87 66.5q-62 79 -62 197q0 119 62 196q34 42 86.5 65t111.5 23q60 0 112 -22.5t86 -65.5q63 -76 63 -196q0 -119 -63 -197q-35 -44 -86.5 -66.5t-111.5 -22.5q-59 0 -111 22.5zM466 271q0 93 -39 142q-20 28 -54 43t-73 15
t-72.5 -15t-53.5 -43q-39 -49 -39 -142q0 -92 39 -143q21 -28 54.5 -43t71.5 -15q39 0 72.5 15t54.5 43q39 51 39 143z" />
    <glyph glyph-name="oslash" unicode="&#xf8;" horiz-adv-x="601" 
d="M523 432q38 -68 38 -161q0 -119 -63 -197q-35 -44 -86.5 -66.5t-111.5 -22.5q-48 0 -91 14.5t-76 43.5l-51 -51l-60 61l56 56q-38 69 -38 162q0 119 62 196q34 42 86.5 65t111.5 23q48 0 91.5 -14.5t76.5 -42.5l51 50l60 -60zM148 178l258 258q-43 35 -106 35
q-39 0 -72.5 -15t-53.5 -43q-39 -49 -39 -142q0 -55 13 -93zM453 363l-257 -258q43 -35 104 -35q39 0 72.5 15t54.5 43q39 51 39 143q0 54 -13 92z" />
    <glyph glyph-name="otilde" unicode="&#xf5;" horiz-adv-x="601" 
d="M457 714q0 -25 -10 -42q-9 -15 -23.5 -24.5t-30.5 -11.5q-14 -2 -21 -2q-30 0 -70 18l-19 9q-14 7 -27.5 12t-24.5 5q-15 0 -21.5 -7t-6.5 -18q0 -9 2 -14h-57q-3 12 -3 26q0 23 10 42q9 15 23.5 24.5t30.5 11.5q14 2 21 2q30 0 70 -18q12 -6 18 -8q18 -9 30 -13.5
t24 -4.5q14 0 20.5 7.5t6.5 18.5q0 5 -2 13h57q3 -12 3 -26zM189 7.5q-52 22.5 -87 66.5q-62 79 -62 197q0 119 62 196q34 42 86.5 65t111.5 23q60 0 112 -22.5t86 -65.5q63 -76 63 -196q0 -119 -63 -197q-35 -44 -86.5 -66.5t-111.5 -22.5q-59 0 -111 22.5zM466 271
q0 93 -39 142q-20 28 -54 43t-73 15t-72.5 -15t-53.5 -43q-39 -49 -39 -142q0 -92 39 -143q21 -28 54.5 -43t71.5 -15q39 0 72.5 15t54.5 43q39 51 39 143z" />
    <glyph glyph-name="oe" unicode="&#x153;" horiz-adv-x="1016" 
d="M559 230q7 -63 38 -105q21 -29 55.5 -44.5t74.5 -15.5q39 0 73 14.5t56 43.5q13 14 20 29l77 -40q-12 -22 -26 -40q-36 -43 -86 -65t-110 -22t-114 23t-88 66q-9 11 -15 21q-10 -14 -16 -21q-35 -44 -86.5 -66.5t-111.5 -22.5q-59 0 -111 22.5t-87 66.5q-62 79 -62 197
q0 119 62 196q34 42 86.5 65t111.5 23q60 0 112 -22.5t86 -65.5q6 -7 16 -21l15 21q35 43 86.5 65.5t111.5 22.5t111.5 -22.5t86.5 -65.5q31 -39 46 -90t15 -108q0 -16 -1 -23h-425q0 -11 -1 -16zM652.5 460.5q-34.5 -15.5 -55.5 -44.5q-29 -37 -37 -97h333q-8 60 -37 97
q-21 29 -55.5 44.5t-73.5 15.5q-40 0 -74.5 -15.5zM466 271q0 93 -39 142q-20 28 -54 43t-73 15t-72.5 -15t-53.5 -43q-39 -49 -39 -142q0 -92 39 -143q21 -28 54.5 -43t71.5 -15q39 0 72.5 15t54.5 43q39 51 39 143z" />
    <glyph glyph-name="p" unicode="p" horiz-adv-x="616" 
d="M561.5 378.5q14.5 -51.5 14.5 -107.5q0 -123 -60 -199q-33 -42 -82.5 -64.5t-104.5 -22.5q-51 0 -94.5 16.5t-74.5 49.5v-291h-90v780h80v-61q33 36 80 56t99 20q56 0 105 -22t82 -64q31 -39 45.5 -90.5zM481 271q0 93 -38 143q-21 30 -54 45t-74 15q-38 0 -70 -14
t-53 -41q-42 -53 -42 -148q0 -45 10.5 -84t31.5 -65q22 -27 55 -41t71 -14t71.5 15t54.5 45q37 49 37 144z" />
    <glyph glyph-name="thorn" unicode="&#xfe;" horiz-adv-x="616" 
d="M561.5 378.5q14.5 -51.5 14.5 -107.5q0 -123 -60 -199q-33 -42 -82.5 -64.5t-104.5 -22.5q-51 0 -94.5 16.5t-74.5 49.5v-291h-90v960h90v-231q33 32 77 49t92 17q56 0 105 -22t82 -64q31 -39 45.5 -90.5zM481 271q0 93 -38 143q-21 30 -54 45t-74 15q-38 0 -70 -14
t-53 -41q-42 -53 -42 -148q0 -45 10.5 -84t31.5 -65q22 -27 55 -41t71 -14t71.5 15t54.5 45q37 49 37 144z" />
    <glyph glyph-name="q" unicode="q" horiz-adv-x="616" 
d="M546 540v-780h-90v291q-31 -33 -74.5 -49.5t-94.5 -16.5q-55 0 -104.5 22.5t-82.5 64.5q-60 76 -60 199q0 56 14.5 107.5t45.5 90.5q33 42 82 64t105 22q52 0 99 -20t80 -56v61h80zM455.5 187q10.5 39 10.5 84q0 95 -42 148q-21 27 -53 41t-70 14q-41 0 -74 -15t-54 -45
q-38 -50 -38 -143q0 -95 37 -144q21 -30 54.5 -45t71.5 -15t71 14t55 41q21 26 31.5 65z" />
    <glyph glyph-name="r" unicode="r" horiz-adv-x="419" 
d="M394 543v-84q-40 15 -84 12q-31 -1 -57.5 -11.5t-44.5 -28.5q-31 -29 -39.5 -66.5t-8.5 -99.5v-265h-90v540h80v-79q18 30 48 53q51 41 127 41q36 0 69 -12z" />
    <glyph glyph-name="racute" unicode="&#x155;" horiz-adv-x="419" 
d="M96 606l-26 66l241 95l25 -67zM394 543v-84q-40 15 -84 12q-31 -1 -57.5 -11.5t-44.5 -28.5q-31 -29 -39.5 -66.5t-8.5 -99.5v-265h-90v540h80v-79q18 30 48 53q51 41 127 41q36 0 69 -12z" />
    <glyph glyph-name="rcaron" unicode="&#x159;" horiz-adv-x="419" 
d="M222 606l-152 93l36 62l116 -71l116 71l35 -62zM394 543v-84q-40 15 -84 12q-31 -1 -57.5 -11.5t-44.5 -28.5q-31 -29 -39.5 -66.5t-8.5 -99.5v-265h-90v540h80v-79q18 30 48 53q51 41 127 41q36 0 69 -12z" />
    <glyph glyph-name="uni0157" unicode="&#x157;" horiz-adv-x="419" 
d="M394 543v-84q-40 15 -84 12q-31 -1 -57.5 -11.5t-44.5 -28.5q-31 -29 -39.5 -66.5t-8.5 -99.5v-265h-90v540h80v-79q18 30 48 53q51 41 127 41q36 0 69 -12zM68 -75h94v-94q0 -42 -27 -66.5t-67 -24.5v44q17 0 34.5 10.5t16.5 36.5h-51v94z" />
    <glyph glyph-name="s" unicode="s" horiz-adv-x="531" 
d="M408 378q-20 55 -65 78q-17 9 -39 14.5t-42 5.5q-43 0 -76 -14q-18 -8 -30 -23t-12 -32q0 -27 19 -43q17 -15 54 -25q33 -11 116 -33q61 -14 104 -49q58 -45 58 -111q0 -36 -19 -70.5t-51 -53.5q-56 -37 -147 -37q-120 0 -186 71q-23 26 -32.5 48.5t-24.5 72.5l85 21
q3 -23 12.5 -46.5t22.5 -39.5q22 -25 54.5 -36t69.5 -11q27 0 55.5 6.5t45.5 17.5q32 22 32 59q0 14 -7.5 27.5t-21.5 23.5q-15 10 -29.5 16.5t-44.5 14.5l-118 34q-66 22 -95 52q-18 17 -27 41t-9 47q0 43 25.5 78t65.5 53q47 20 105 20q73 0 125 -26q38 -20 69 -55.5
t43 -74.5z" />
    <glyph glyph-name="sacute" unicode="&#x15b;" horiz-adv-x="531" 
d="M409 700l-25 67l-241 -95l25 -66zM408 378q-20 55 -65 78q-17 9 -39 14.5t-42 5.5q-43 0 -76 -14q-18 -8 -30 -23t-12 -32q0 -27 19 -43q17 -15 54 -25q33 -11 116 -33q61 -14 104 -49q58 -45 58 -111q0 -36 -19 -70.5t-51 -53.5q-56 -37 -147 -37q-120 0 -186 71
q-23 26 -32.5 48.5t-24.5 72.5l85 21q3 -23 12.5 -46.5t22.5 -39.5q22 -25 54.5 -36t69.5 -11q27 0 55.5 6.5t45.5 17.5q32 22 32 59q0 14 -7.5 27.5t-21.5 23.5q-15 10 -29.5 16.5t-44.5 14.5l-118 34q-66 22 -95 52q-18 17 -27 41t-9 47q0 43 25.5 78t65.5 53
q47 20 105 20q73 0 125 -26q38 -20 69 -55.5t43 -74.5z" />
    <glyph glyph-name="scaron" unicode="&#x161;" horiz-adv-x="531" 
d="M124 699l152 -93l151 93l-35 62l-116 -71l-116 71zM408 378q-20 55 -65 78q-17 9 -39 14.5t-42 5.5q-43 0 -76 -14q-18 -8 -30 -23t-12 -32q0 -27 19 -43q17 -15 54 -25q33 -11 116 -33q61 -14 104 -49q58 -45 58 -111q0 -36 -19 -70.5t-51 -53.5q-56 -37 -147 -37
q-120 0 -186 71q-23 26 -32.5 48.5t-24.5 72.5l85 21q3 -23 12.5 -46.5t22.5 -39.5q22 -25 54.5 -36t69.5 -11q27 0 55.5 6.5t45.5 17.5q32 22 32 59q0 14 -7.5 27.5t-21.5 23.5q-15 10 -29.5 16.5t-44.5 14.5l-118 34q-66 22 -95 52q-18 17 -27 41t-9 47q0 43 25.5 78
t65.5 53q47 20 105 20q73 0 125 -26q38 -20 69 -55.5t43 -74.5z" />
    <glyph glyph-name="scedilla" unicode="&#x15f;" horiz-adv-x="531" 
d="M495 146q0 -36 -19 -70.5t-51 -53.5q-47 -31 -115 -36l-14 -40q32 -13 48 -43q12 -20 12 -46q0 -32 -17 -55q-15 -22 -39.5 -33.5t-51.5 -8.5q-23 1 -55 16l22 57q22 -7 35 -8q23 0 32 15q7 10 7 20q0 6 -3 12q-5 14 -18.5 20.5t-44.5 16.5l27 77q-99 6 -158 70
q-23 26 -32.5 48.5t-24.5 72.5l85 21q3 -23 12.5 -46.5t22.5 -39.5q22 -25 54.5 -36t69.5 -11q27 0 55.5 6.5t45.5 17.5q32 22 32 59q0 14 -7.5 27.5t-21.5 23.5q-15 10 -29.5 16.5t-44.5 14.5l-118 34q-66 22 -95 52q-18 17 -27 41t-9 47q0 43 25.5 78t65.5 53
q47 20 105 20q73 0 125 -26q38 -20 69 -55.5t43 -74.5l-85 -21q-20 55 -65 78q-17 9 -39 14.5t-42 5.5q-43 0 -76 -14q-18 -8 -30 -23t-12 -32q0 -27 19 -43q17 -15 54 -25q33 -11 116 -33q61 -14 104 -49q58 -45 58 -111z" />
    <glyph glyph-name="uni0219" unicode="&#x219;" horiz-adv-x="531" 
d="M408 378q-20 55 -65 78q-17 9 -39 14.5t-42 5.5q-43 0 -76 -14q-18 -8 -30 -23t-12 -32q0 -27 19 -43q17 -15 54 -25q33 -11 116 -33q61 -14 104 -49q58 -45 58 -111q0 -36 -19 -70.5t-51 -53.5q-56 -37 -147 -37q-120 0 -186 71q-23 26 -32.5 48.5t-24.5 72.5l85 21
q3 -23 12.5 -46.5t22.5 -39.5q22 -25 54.5 -36t69.5 -11q27 0 55.5 6.5t45.5 17.5q32 22 32 59q0 14 -7.5 27.5t-21.5 23.5q-15 10 -29.5 16.5t-44.5 14.5l-118 34q-66 22 -95 52q-18 17 -27 41t-9 47q0 43 25.5 78t65.5 53q47 20 105 20q73 0 125 -26q38 -20 69 -55.5
t43 -74.5zM291 -235.5q-27 -24.5 -67 -24.5v44q17 0 34.5 10.5t16.5 36.5h-51v94h94v-94q0 -42 -27 -66.5z" />
    <glyph glyph-name="germandbls" unicode="&#xdf;" horiz-adv-x="601" 
d="M70 540q0 47 20.5 88t58.5 68q52 39 131 39q35 0 69.5 -10t60.5 -30q38 -27 59 -69t21 -87q0 -52 -32 -95q-17 -27 -47 -49q51 -21 85 -55q27 -27 41 -61t14 -71q0 -103 -69 -155q-38 -30 -87.5 -41.5t-116.5 -11.5h-46v90h46q46 0 80.5 7.5t59.5 26.5q40 30 40 85
q0 60 -50 95q-26 19 -57.5 27.5t-70.5 11.5v80q59 10 91 46q28 31 28 69q0 26 -12 49.5t-32 38.5q-33 25 -75 25q-44 0 -76 -25q-19 -14 -30.5 -37.5t-11.5 -46.5v-542h-92v540z" />
    <glyph glyph-name="t" unicode="t" horiz-adv-x="412" 
d="M219 209q0 -43 1.5 -61t10.5 -33q8 -17 25 -27.5t37 -12.5q9 -1 28 -1q29 0 61 5v-79q-33 -9 -75 -9q-27 0 -52 5q-76 16 -105 73q-13 26 -16.5 56.5t-3.5 78.5v263h-120v73h120v150h89v-150h163v-73h-163v-258z" />
    <glyph glyph-name="tbar" unicode="&#x167;" horiz-adv-x="432" 
d="M219 467v-155h163v-73h-163v-30q0 -43 1.5 -61t10.5 -33q8 -17 25 -27.5t37 -12.5q9 -1 28 -1q29 0 61 5v-79q-33 -9 -75 -9q-27 0 -52 5q-76 16 -105 73q-13 26 -16.5 56.5t-3.5 78.5v35h-120v73h120v155h-120v73h120v150h89v-150h163v-73h-163z" />
    <glyph glyph-name="tcaron" unicode="&#x165;" horiz-adv-x="412" 
d="M219 209q0 -43 1.5 -61t10.5 -33q8 -17 25 -27.5t37 -12.5q9 -1 28 -1q29 0 61 5v-79q-33 -9 -75 -9q-27 0 -52 5q-76 16 -105 73q-13 26 -16.5 56.5t-3.5 78.5v263h-120v73h120v150h89v-150h163v-73h-163v-258zM398.5 635q-19.5 -26 -57.5 -26q-7 0 -21 2l6 41
q52 -4 46 71h-52v113h98v-128q0 -47 -19.5 -73z" />
    <glyph glyph-name="uni0163" unicode="&#x163;" horiz-adv-x="432" 
d="M219 209q0 -43 1.5 -61t10.5 -33q8 -17 25 -27.5t37 -12.5q9 -1 28 -1q29 0 61 5v-79q-33 -9 -75 -9q-27 0 -52 5l-8 2l-19 -53q32 -13 48 -43q12 -20 12 -46q0 -32 -17 -55q-15 -22 -39.5 -33.5t-51.5 -8.5q-23 1 -55 16l22 57q22 -7 35 -8q23 0 32 15q7 10 7 20
q0 6 -3 12q-5 14 -18.5 20.5t-44.5 16.5l39 112q-30 19 -44 49q-13 26 -16.5 56.5t-3.5 78.5v263h-120v73h120v150h89v-150h163v-73h-163v-258z" />
    <glyph glyph-name="uni021B" unicode="&#x21b;" horiz-adv-x="412" 
d="M219 209q0 -43 1.5 -61t10.5 -33q8 -17 25 -27.5t37 -12.5q9 -1 28 -1q29 0 61 5v-79q-33 -9 -75 -9q-27 0 -52 5q-76 16 -105 73q-13 26 -16.5 56.5t-3.5 78.5v263h-120v73h120v150h89v-150h163v-73h-163v-258zM172 -75h94v-94q0 -42 -27 -66.5t-67 -24.5v44
q17 0 34.5 10.5t16.5 36.5h-51v94z" />
    <glyph glyph-name="u" unicode="u" horiz-adv-x="595" 
d="M525 540v-540h-80v58l-14 -15q-31 -28 -72 -42t-83 -14q-39 0 -75.5 12t-65.5 35q-51 40 -68.5 98.5t-16.5 141.5v266h90v-266q0 -62 12 -104t45 -68q38 -29 94 -29q54 0 91 32q36 31 47 87q6 25 6 72v276h90z" />
    <glyph glyph-name="uacute" unicode="&#xfa;" horiz-adv-x="595" 
d="M190 606l-25 66l241 95l25 -67zM525 540v-540h-80v58l-14 -15q-31 -28 -72 -42t-83 -14q-39 0 -75.5 12t-65.5 35q-51 40 -68.5 98.5t-16.5 141.5v266h90v-266q0 -62 12 -104t45 -68q38 -29 94 -29q54 0 91 32q36 31 47 87q6 25 6 72v276h90z" />
    <glyph glyph-name="ucircumflex" unicode="&#xfb;" horiz-adv-x="595" 
d="M172 606l-36 63l152 92l151 -92l-35 -63l-116 71zM525 540v-540h-80v58l-14 -15q-31 -28 -72 -42t-83 -14q-39 0 -75.5 12t-65.5 35q-51 40 -68.5 98.5t-16.5 141.5v266h90v-266q0 -62 12 -104t45 -68q38 -29 94 -29q54 0 91 32q36 31 47 87q6 25 6 72v276h90z" />
    <glyph glyph-name="udieresis" unicode="&#xfc;" horiz-adv-x="595" 
d="M234 660h-90v90h90v-90zM430 660h-90v90h90v-90zM525 540v-540h-80v58l-14 -15q-31 -28 -72 -42t-83 -14q-39 0 -75.5 12t-65.5 35q-51 40 -68.5 98.5t-16.5 141.5v266h90v-266q0 -62 12 -104t45 -68q38 -29 94 -29q54 0 91 32q36 31 47 87q6 25 6 72v276h90z" />
    <glyph glyph-name="ugrave" unicode="&#xf9;" horiz-adv-x="595" 
d="M418 606l-241 94l25 67l241 -95zM525 540v-540h-80v58l-14 -15q-31 -28 -72 -42t-83 -14q-39 0 -75.5 12t-65.5 35q-51 40 -68.5 98.5t-16.5 141.5v266h90v-266q0 -62 12 -104t45 -68q38 -29 94 -29q54 0 91 32q36 31 47 87q6 25 6 72v276h90z" />
    <glyph glyph-name="uhungarumlaut" unicode="&#x171;" horiz-adv-x="595" 
d="M216 612l-45 47l111 108l45 -46zM322 659l111 108l45 -46l-111 -109zM525 540v-540h-80v58l-14 -15q-31 -28 -72 -42t-83 -14q-39 0 -75.5 12t-65.5 35q-51 40 -68.5 98.5t-16.5 141.5v266h90v-266q0 -62 12 -104t45 -68q38 -29 94 -29q54 0 91 32q36 31 47 87q6 25 6 72
v276h90z" />
    <glyph glyph-name="umacron" unicode="&#x16b;" horiz-adv-x="595" 
d="M428 660h-256v73h256v-73zM525 540v-540h-80v58l-14 -15q-31 -28 -72 -42t-83 -14q-39 0 -75.5 12t-65.5 35q-51 40 -68.5 98.5t-16.5 141.5v266h90v-266q0 -62 12 -104t45 -68q38 -29 94 -29q54 0 91 32q36 31 47 87q6 25 6 72v276h90z" />
    <glyph glyph-name="uogonek" unicode="&#x173;" horiz-adv-x="595" 
d="M542 -194q-18 -24 -46 -37q-20 -9 -41 -9q-22 0 -42 9.5t-33 25.5q-25 26 -25 68q0 20 8 44q22 61 82 110v41l-14 -15q-31 -28 -72 -42t-83 -14q-39 0 -75.5 12t-65.5 35q-51 40 -68.5 98.5t-16.5 141.5v266h90v-266q0 -62 12 -104t45 -68q38 -29 94 -29q54 0 91 32
q36 31 47 87q6 25 6 72v276h90v-540q-32 -23 -56 -53q-29 -34 -38 -63q-4 -12 -4 -20q0 -13 9 -22q10 -11 24 -11q22 0 46 20z" />
    <glyph glyph-name="uring" unicode="&#x16f;" horiz-adv-x="595" 
d="M233.5 602q-29.5 17 -46.5 46.5t-17 63.5t17 63.5t46.5 46.5t63.5 17t63.5 -17t46.5 -46.5t17 -63.5t-17 -63.5t-46.5 -46.5t-63.5 -17t-63.5 17zM254.5 754.5q-17.5 -17.5 -17.5 -42.5t17.5 -42.5t42.5 -17.5t42.5 17.5t17.5 42.5t-17.5 42.5t-42.5 17.5t-42.5 -17.5z
M525 540v-540h-80v58l-14 -15q-31 -28 -72 -42t-83 -14q-39 0 -75.5 12t-65.5 35q-51 40 -68.5 98.5t-16.5 141.5v266h90v-266q0 -62 12 -104t45 -68q38 -29 94 -29q54 0 91 32q36 31 47 87q6 25 6 72v276h90z" />
    <glyph glyph-name="v" unicode="v" horiz-adv-x="514" 
d="M499 540l-197 -540h-90l-197 540h90l152 -426l151 426h91z" />
    <glyph glyph-name="w" unicode="w" horiz-adv-x="759" 
d="M749 540l-165 -540h-88l-116 396l-121 -396h-84l-165 541l89 -1l121 -395l121 395h78l121 -395l121 395h88z" />
    <glyph glyph-name="wacute" unicode="&#x1e83;" horiz-adv-x="759" 
d="M506 700l-25 67l-241 -95l25 -66zM749 540l-165 -540h-88l-116 396l-121 -396h-84l-165 541l89 -1l121 -395l121 395h78l121 -395l121 395h88z" />
    <glyph glyph-name="wcircumflex" unicode="&#x175;" horiz-adv-x="759" 
d="M391 677l116 -71l35 63l-151 92l-152 -92l36 -63zM749 540l-165 -540h-88l-116 396l-121 -396h-84l-165 541l89 -1l121 -395l121 395h78l121 -395l121 395h88z" />
    <glyph glyph-name="wdieresis" unicode="&#x1e85;" horiz-adv-x="759" 
d="M323 750v-90h-90v90h90zM519 750v-90h-90v90h90zM749 540l-165 -540h-88l-116 396l-121 -396h-84l-165 541l89 -1l121 -395l121 395h78l121 -395l121 395h88z" />
    <glyph glyph-name="wgrave" unicode="&#x1e81;" horiz-adv-x="759" 
d="M513 672l-241 95l-25 -67l240 -94zM749 540l-165 -540h-88l-116 396l-121 -396h-84l-165 541l89 -1l121 -395l121 395h78l121 -395l121 395h88z" />
    <glyph glyph-name="x" unicode="x" horiz-adv-x="531" 
d="M317 273l204 -273h-104l-151 202l-152 -202h-104l204 273l-199 267h103l148 -195l147 195h103z" />
    <glyph glyph-name="y" unicode="y" horiz-adv-x="555" 
d="M545 540l-243 -638q-33 -85 -76 -116q-21 -16 -45.5 -21t-57.5 -5h-13v86l17 -2q37 -2 55 11q14 10 28.5 38t37.5 91l-228 556h91l179 -441l165 441h90z" />
    <glyph glyph-name="yacute" unicode="&#xfd;" horiz-adv-x="555" 
d="M427 700l-25 67l-241 -95l25 -66zM545 540l-243 -638q-33 -85 -76 -116q-21 -16 -45.5 -21t-57.5 -5h-13v86l17 -2q37 -2 55 11q14 10 28.5 38t37.5 91l-228 556h91l179 -441l165 441h90z" />
    <glyph glyph-name="ycircumflex" unicode="&#x177;" horiz-adv-x="555" 
d="M289 677l116 -71l35 63l-151 92l-152 -92l36 -63zM545 540l-243 -638q-33 -85 -76 -116q-21 -16 -45.5 -21t-57.5 -5h-13v86l17 -2q37 -2 55 11q14 10 28.5 38t37.5 91l-228 556h91l179 -441l165 441h90z" />
    <glyph glyph-name="ydieresis" unicode="&#xff;" horiz-adv-x="555" 
d="M230 750v-90h-90v90h90zM426 750v-90h-90v90h90zM545 540l-243 -638q-33 -85 -76 -116q-21 -16 -45.5 -21t-57.5 -5h-13v86l17 -2q37 -2 55 11q14 10 28.5 38t37.5 91l-228 556h91l179 -441l165 441h90z" />
    <glyph glyph-name="ygrave" unicode="&#x1ef3;" horiz-adv-x="555" 
d="M425 672l-241 95l-25 -67l240 -94zM545 540l-243 -638q-33 -85 -76 -116q-21 -16 -45.5 -21t-57.5 -5h-13v86l17 -2q37 -2 55 11q14 10 28.5 38t37.5 91l-228 556h91l179 -441l165 441h90z" />
    <glyph glyph-name="z" unicode="z" horiz-adv-x="577" 
d="M507 0h-437v80l320 379h-320v81h437v-81l-319 -378h319v-81z" />
    <glyph glyph-name="zacute" unicode="&#x17a;" horiz-adv-x="577" 
d="M430 700l-25 67l-241 -95l25 -66zM507 0h-437v80l320 379h-320v81h437v-81l-319 -378h319v-81z" />
    <glyph glyph-name="zcaron" unicode="&#x17e;" horiz-adv-x="577" 
d="M153 699l152 -93l151 93l-35 62l-116 -71l-116 71zM507 0h-437v80l320 379h-320v81h437v-81l-319 -378h319v-81z" />
    <glyph glyph-name="zdotaccent" unicode="&#x17c;" horiz-adv-x="577" 
d="M348 750v-98h-98v98h98zM507 0h-437v80l320 379h-320v81h437v-81l-319 -378h319v-81z" />
    <glyph glyph-name="uni0410" unicode="&#x410;" horiz-adv-x="616" 
d="M473 135h-330l-45 -135h-93l241 720h124l241 -720h-92zM445 219l-138 407l-136 -407h274z" />
    <glyph glyph-name="uni0411" unicode="&#x411;" horiz-adv-x="646" 
d="M602 303q14 -37 14 -76q-1 -41 -16 -79.5t-42 -68.5q-38 -46 -96 -66q-39 -13 -75 -13h-307v720h463v-84h-374v-182h218q51 0 98.5 -22.5t77.5 -61.5q25 -30 39 -67zM493 316q-20 25 -48.5 39t-57.5 14h-218v-284h218q26 0 52.5 12t45.5 32t29 47t10 55q0 46 -31 85z" />
    <glyph glyph-name="uni0412" unicode="&#x412;" horiz-adv-x="629" 
d="M583.5 276q10.5 -31 10.5 -63q0 -36 -11.5 -70.5t-33.5 -61.5q-41 -51 -108 -71q-37 -10 -93 -10h-268v720h254q30 0 50 -1.5t34 -6.5q29 -8 54.5 -24.5t44.5 -40.5q21 -25 32 -57.5t11 -66.5q0 -58 -39 -107q-7 -11 -25 -29q33 -21 57 -54q20 -26 30.5 -57zM170 636
v-216h190q23 0 48 12.5t39 32.5q22 31 22 68q-2 40 -29 69q-31 34 -80 34h-190zM475 288q-17 23 -44 35.5t-54 12.5h-207v-251h177q47 0 73 6.5t49 31.5q34 36 34 86q0 45 -28 79z" />
    <glyph glyph-name="uni0413" unicode="&#x413;" horiz-adv-x="545" 
d="M535 636h-366v-636h-89v720h455v-84z" />
    <glyph glyph-name="uni0403" unicode="&#x403;" horiz-adv-x="545" 
d="M146 786l-26 66l241 95l25 -67zM535 636h-366v-636h-89v720h455v-84z" />
    <glyph glyph-name="uni0490" unicode="&#x490;" horiz-adv-x="545" 
d="M535 805v-169h-366v-636h-89v720h366v85h89z" />
    <glyph glyph-name="uni0414" unicode="&#x414;" horiz-adv-x="766" 
d="M716 85v-170h-85v85h-517v-85h-85v170q105 0 129 208l50 427h451v-635h57zM575 636h-291l-42 -353q-8 -71 -24.5 -120t-44.5 -78h402v551z" />
    <glyph glyph-name="uni0415" unicode="&#x415;" 
d="M169 636v-233h301v-85h-301v-233h361v-85h-450v720h450v-84h-361z" />
    <glyph glyph-name="uni0400" unicode="&#x400;" 
d="M399 786l-241 94l25 67l241 -95zM169 636v-233h301v-85h-301v-233h361v-85h-450v720h450v-84h-361z" />
    <glyph glyph-name="uni0401" unicode="&#x401;" 
d="M237 840h-90v90h90v-90zM433 840h-90v90h90v-90zM169 636v-233h301v-85h-301v-233h361v-85h-450v720h450v-84h-361z" />
    <glyph glyph-name="uni0416" unicode="&#x416;" horiz-adv-x="958" 
d="M249 375l-224 345h107l195 -308h107v308h90v-308h107l196 308h107l-224 -345l243 -375h-107l-215 338h-107v-338h-90v338h-107l-214 -338h-108z" />
    <glyph glyph-name="uni0417" unicode="&#x417;" horiz-adv-x="597" 
d="M85.5 642q22.5 34 59.5 57q31 19 71 27.5t81 8.5q96 0 153 -36q43 -28 66 -69t23 -91q0 -35 -13 -67t-38 -55q-18 -19 -35 -30q32 -21 53 -49q51 -52 51 -132q0 -54 -23 -99.5t-66 -75.5q-66 -46 -171 -46q-104 0 -170 46q-37 25 -59.5 62.5t-27.5 82.5l93 16
q2 -27 14 -50.5t33 -38.5q22 -16 51.5 -24.5t60.5 -8.5q78 0 123 33q24 18 36 44.5t11 58.5q1 32 -11 58.5t-36 43.5q-43 32 -118 34h-51v86h51q63 0 103 27q22 13 33.5 35.5t10.5 48.5q1 26 -10.5 48.5t-33.5 36.5q-40 27 -103 27t-103 -27q-38 -25 -43 -74l-93 15
q5 43 27.5 77z" />
    <glyph glyph-name="uni0418" unicode="&#x418;" horiz-adv-x="716" 
d="M636 720v-720h-91v558l-384 -558h-81v720h90v-557l385 557h81z" />
    <glyph glyph-name="uni0419" unicode="&#x419;" horiz-adv-x="716" 
d="M502 917q0 -37 -18.5 -68.5t-49.5 -50t-68 -18.5t-68.5 18.5t-50 50t-18.5 68.5h72q0 -27 19 -46t46 -19t45.5 19t18.5 46h72zM636 720v-720h-91v558l-384 -558h-81v720h90v-557l385 557h81z" />
    <glyph glyph-name="uni040D" unicode="&#x40d;" horiz-adv-x="716" 
d="M484 852l-241 95l-25 -67l240 -94zM636 720v-720h-91v558l-384 -558h-81v720h90v-557l385 557h81z" />
    <glyph glyph-name="uni041A" unicode="&#x41a;" horiz-adv-x="644" 
d="M529 0l-281 325h-78v-325h-90v720h90v-310h78l244 310h112l-275 -351l315 -369h-115z" />
    <glyph glyph-name="uni040C" unicode="&#x40c;" horiz-adv-x="644" 
d="M471 880l-25 67l-241 -95l25 -66zM529 0l-281 325h-78v-325h-90v720h90v-310h78l244 310h112l-275 -351l315 -369h-115z" />
    <glyph glyph-name="uni041B" unicode="&#x41b;" horiz-adv-x="722" 
d="M642 0h-89v636h-285l-48 -407q-13 -111 -53 -170.5t-128 -59.5l-19 1v81q59 1 83.5 40.5t34.5 124.5l57 474h447v-720z" />
    <glyph glyph-name="uni041C" unicode="&#x41c;" horiz-adv-x="877" 
d="M797 1h-90v524l-245 -525h-47l-245 524v-524h-90v720h89l270 -573l268 573h90v-719z" />
    <glyph glyph-name="uni041D" unicode="&#x41d;" horiz-adv-x="717" 
d="M637 720v-720h-89v266h-379v-266h-89v720h89v-370h379v370h89z" />
    <glyph glyph-name="uni041E" unicode="&#x41e;" horiz-adv-x="752" 
d="M230 14.5q-67 29.5 -110 86.5q-78 99 -80 259q0 74 19 141t61 119q43 56 110 85.5t142 29.5q80 0 148 -29t113 -86q77 -98 79 -260q0 -158 -79 -259q-45 -57 -112 -86.5t-145 -29.5q-79 0 -146 29.5zM480 91.5q50 21.5 81 63.5q55 72 57 205q0 131 -57 205q-30 41 -78 63
t-103 22q-58 0 -108 -21.5t-81 -63.5q-55 -72 -57 -205q0 -131 57 -205q30 -41 78.5 -63t102.5 -22q58 0 108 21.5z" />
    <glyph glyph-name="uni041F" unicode="&#x41f;" horiz-adv-x="745" 
d="M665 0h-89v636h-407v-636h-89v720h585v-720z" />
    <glyph glyph-name="uni0420" unicode="&#x420;" horiz-adv-x="646" 
d="M600 573q15 -39 16 -80q0 -38 -14 -75.5t-39 -67.5q-30 -38 -77 -60.5t-99 -22.5h-218v-267h-89v720h307q40 0 75 -13q57 -19 96 -65q27 -30 42 -69zM515.5 444.5q8.5 22.5 8.5 44.5q0 62 -39 102q-19 20 -45.5 32t-52.5 12h-218v-284h218q29 0 57.5 14t48.5 39
q14 18 22.5 40.5z" />
    <glyph glyph-name="uni0421" unicode="&#x421;" horiz-adv-x="737" 
d="M691 213q-20 -64 -58 -112q-45 -58 -112 -87t-144 -29q-78 0 -144.5 30t-111.5 86q-42 52 -61.5 117t-19.5 136q0 163 81 266q44 57 110.5 86t145.5 29q78 0 145 -29.5t111 -85.5q44 -57 64 -132l-92 -15q-15 57 -43 92q-31 42 -81 63.5t-108 21.5q-54 0 -102.5 -22
t-78.5 -63q-55 -72 -57 -205q2 -132 57 -205q31 -42 81 -63.5t108 -21.5q54 0 102.5 22t78.5 63q28 39 40 84z" />
    <glyph glyph-name="uni0422" unicode="&#x422;" horiz-adv-x="600" 
d="M590 636h-245v-636h-89v636h-246v84h580v-84z" />
    <glyph glyph-name="uni0423" unicode="&#x423;" horiz-adv-x="630" 
d="M620 720l-279 -599q-21 -43 -44 -72.5t-52 -45.5q-17 -9 -39.5 -13.5t-41.5 -4.5q-36 0 -79 15l30 78q27 -10 49 -10q29 0 44 9q20 11 35 33.5t33 59.5l-256 550h92l207 -456l209 456h92z" />
    <glyph glyph-name="uni040E" unicode="&#x40e;" horiz-adv-x="630" 
d="M452 917q0 -37 -18.5 -68.5t-49.5 -50t-68 -18.5t-68.5 18.5t-50 50t-18.5 68.5h72q0 -27 19 -46t46 -19t45.5 19t18.5 46h72zM620 720l-279 -599q-21 -43 -44 -72.5t-52 -45.5q-17 -9 -39.5 -13.5t-41.5 -4.5q-36 0 -79 15l30 78q27 -10 49 -10q29 0 44 9q20 11 35 33.5
t33 59.5l-256 550h92l207 -456l209 456h92z" />
    <glyph glyph-name="uni0424" unicode="&#x424;" horiz-adv-x="766" 
d="M700.5 508.5q27.5 -59.5 25.5 -126.5q2 -68 -26 -127t-82 -98q-78 -55 -191 -65v-92h-88v92q-116 10 -191 65q-52 38 -80 96.5t-28 125.5q0 69 27 129t80 99q79 56 192 66v47h88v-46q117 -12 192 -67q54 -39 81.5 -98.5zM339 183v397q-87 -10 -138 -50q-66 -49 -66 -148
t65 -149q57 -42 139 -50zM632 382q0 97 -66 148q-53 40 -139 50v-398q86 10 139 51q66 51 66 149z" />
    <glyph glyph-name="uni0425" unicode="&#x425;" horiz-adv-x="623" 
d="M618 0h-109l-197 287l-198 -287h-109l253 365l-246 355h108l192 -278l191 278h109l-246 -355z" />
    <glyph glyph-name="uni0427" unicode="&#x427;" horiz-adv-x="657" 
d="M577 720v-720h-90v327q-33 -42 -82.5 -64.5t-107.5 -22.5q-59 0 -112 24t-87 68t-46 98t-12 128v162h90v-147q0 -66 9 -110t37 -78q46 -58 132 -58q43 0 79 16t58 46q26 33 38 95q4 32 4 59v177h90z" />
    <glyph glyph-name="uni0426" unicode="&#x426;" horiz-adv-x="793" 
d="M753 85v-170h-89v85h-584v720h89v-635h407v635h89v-635h88z" />
    <glyph glyph-name="uni0428" unicode="&#x428;" horiz-adv-x="920" 
d="M840 720v-720h-760v720h89v-635h247v635h89v-635h246v635h89z" />
    <glyph glyph-name="uni0429" unicode="&#x429;" horiz-adv-x="968" 
d="M928 85v-170h-89v85h-759v720h89v-635h247v635h89v-635h246v635h89v-635h88z" />
    <glyph glyph-name="uni040F" unicode="&#x40f;" horiz-adv-x="745" 
d="M665 720v-720h-248v-120h-89v120h-248v720h89v-635h407v635h89z" />
    <glyph glyph-name="uni042C" unicode="&#x42c;" horiz-adv-x="646" 
d="M602 303q14 -37 14 -76q-1 -41 -16 -79.5t-42 -68.5q-38 -46 -96 -66q-39 -13 -75 -13h-307v720h89v-266h218q51 0 98.5 -22.5t77.5 -61.5q25 -30 39 -67zM493 316q-20 25 -48.5 39t-57.5 14h-218v-284h218q26 0 52.5 12t45.5 32t29 47t10 55q0 46 -31 85z" />
    <glyph glyph-name="uni042A" unicode="&#x42a;" horiz-adv-x="627" 
d="M617 303q14 -37 14 -76q-1 -41 -16 -79.5t-42 -68.5q-38 -46 -96 -66q-39 -13 -75 -13h-307v647h-105v73h194v-266h218q51 0 98.5 -22.5t77.5 -61.5q25 -30 39 -67zM508 316q-20 25 -48.5 39t-57.5 14h-218v-284h218q26 0 52.5 12t45.5 32t29 47t10 55q0 46 -31 85z" />
    <glyph glyph-name="uni042B" unicode="&#x42b;" horiz-adv-x="895" 
d="M602 303q14 -37 14 -76q-1 -41 -16 -79.5t-42 -68.5q-38 -46 -96 -66q-39 -13 -75 -13h-307v720h89v-266h218q51 0 98.5 -22.5t77.5 -61.5q25 -30 39 -67zM493 316q-20 25 -48.5 39t-57.5 14h-218v-284h218q26 0 52.5 12t45.5 32t29 47t10 55q0 46 -31 85zM815 720v-720
h-89v720h89z" />
    <glyph glyph-name="uni0409" unicode="&#x409;" horiz-adv-x="1119" 
d="M1075 303q14 -37 14 -76q-1 -41 -16 -79.5t-42 -68.5q-38 -46 -96 -66q-39 -13 -75 -13h-307v636h-285l-48 -407q-13 -111 -53 -170.5t-128 -59.5l-19 1v81q59 1 83.5 40.5t34.5 124.5l57 474h447v-266h218q51 0 98.5 -22.5t77.5 -61.5q25 -30 39 -67zM966 316
q-20 25 -48.5 39t-57.5 14h-218v-284h218q26 0 52.5 12t45.5 32t29 47t10 55q0 46 -31 85z" />
    <glyph glyph-name="uni040A" unicode="&#x40a;" horiz-adv-x="1104" 
d="M1060 303q14 -37 14 -76q-1 -41 -16 -79.5t-42 -68.5q-38 -46 -96 -66q-39 -13 -75 -13h-307v369h-369v-369h-89v720h89v-266h369v266h89v-266h218q51 0 98.5 -22.5t77.5 -61.5q25 -30 39 -67zM951 316q-20 25 -48.5 39t-57.5 14h-218v-284h218q26 0 52.5 12t45.5 32
t29 47t10 55q0 46 -31 85z" />
    <glyph glyph-name="uni0405" unicode="&#x405;" horiz-adv-x="622" 
d="M497 515q-15 36 -35 62t-49 44q-22 14 -51.5 21.5t-59.5 7.5q-56 0 -95 -22q-25 -14 -39.5 -37.5t-14.5 -49.5q0 -36 24 -59q25 -26 96 -48l128 -37q43 -13 74.5 -29t56.5 -40q28 -27 44 -63.5t16 -74.5q0 -45 -23 -88t-62 -70q-67 -47 -187 -47q-154 0 -230 100
q-40 50 -60 133l90 24q12 -63 41 -101q26 -36 69.5 -53.5t92.5 -17.5q36 0 72.5 9t59.5 26q21 16 31.5 39t10.5 49q0 43 -30 71q-31 29 -87 45l-132 39q-44 13 -76.5 28.5t-57.5 38.5q-27 24 -41 58.5t-14 70.5q0 50 30 94.5t76 67.5q57 29 144 29q40 0 78.5 -9t70.5 -28
q44 -25 76.5 -66t51.5 -93z" />
    <glyph glyph-name="uni0404" unicode="&#x404;" horiz-adv-x="737" 
d="M602 239l89 -26q-20 -64 -58 -112q-45 -58 -112 -87t-144 -29q-78 0 -144.5 30t-111.5 86q-42 52 -61.5 117t-19.5 136q0 163 81 266q44 57 110.5 86t145.5 29q78 0 145 -29.5t111 -85.5q44 -57 64 -132l-92 -15q-15 57 -43 92q-31 42 -81 63.5t-108 21.5
q-54 0 -102.5 -22t-78.5 -63q-45 -59 -55 -160h261v-89h-261q8 -98 55 -161q31 -42 81 -63.5t108 -21.5q54 0 102.5 22t78.5 63q28 39 40 84z" />
    <glyph glyph-name="uni042D" unicode="&#x42d;" horiz-adv-x="737" 
d="M677.5 218q-19.5 -65 -61.5 -117q-45 -56 -111.5 -86t-144.5 -30q-77 0 -144 29t-112 87q-38 48 -58 112l89 26q12 -45 40 -84q30 -41 78.5 -63t102.5 -22q58 0 108 21.5t81 63.5q47 63 55 161h-261v89h261q-10 101 -55 160q-30 41 -78.5 63t-102.5 22q-58 0 -108 -21.5
t-81 -63.5q-28 -35 -43 -92l-92 15q20 75 64 132q44 56 111 85.5t145 29.5q79 0 145.5 -29t110.5 -86q81 -103 81 -266q0 -71 -19.5 -136z" />
    <glyph glyph-name="uni0406" unicode="&#x406;" horiz-adv-x="249" 
d="M169 720v-720h-89v720h89z" />
    <glyph glyph-name="uni0407" unicode="&#x407;" horiz-adv-x="249" 
d="M72 930v-90h-91v90h91zM268 930v-90h-90v90h90zM169 720v-720h-89v720h89z" />
    <glyph glyph-name="uni0408" unicode="&#x408;" horiz-adv-x="476" 
d="M304 720v-494q0 -44 -2 -62t-11 -37q-12 -27 -38.5 -42t-56.5 -15q-33 0 -60 19q-18 12 -30.5 30t-16.5 39l-89 -21q11 -39 35 -72t58 -52q43 -28 104 -28q115 0 172 96q18 33 22.5 61t4.5 84v494h-92z" />
    <glyph glyph-name="uni040B" unicode="&#x40b;" horiz-adv-x="657" 
d="M605 291q12 -54 12 -128v-163h-90v147q0 67 -9 111t-37 77q-24 30 -58 44.5t-74 14.5q-43 0 -79 -16t-58 -46q-26 -35 -38 -95q-4 -32 -4 -59v-178h-90v639h-80v81h315v-81h-145v-246q33 43 82.5 65t107.5 22q60 0 112.5 -24t86.5 -68q34 -43 46 -97z" />
    <glyph glyph-name="uni042E" unicode="&#x42e;" horiz-adv-x="1042" 
d="M1002 360q0 -158 -79 -259q-45 -57 -112 -86.5t-145 -29.5q-79 0 -146 29.5t-110 86.5q-66 82 -78 215h-163v-316h-89v720h89v-315h163q10 130 78 215q43 56 110 85.5t142 29.5q80 0 148 -29t113 -86q77 -98 79 -260zM908 360q0 131 -57 205q-30 41 -78 63t-103 22
q-58 0 -108 -21.5t-81 -63.5q-55 -72 -57 -205q0 -131 57 -205q30 -41 78.5 -63t102.5 -22q58 0 108 21.5t81 63.5q55 72 57 205z" />
    <glyph glyph-name="uni042F" unicode="&#x42f;" horiz-adv-x="627" 
d="M547 0h-89v267h-216l-129 -267h-102l139 285q-53 24 -86 65q-25 30 -39 67.5t-14 75.5q1 41 16 80t42 69q39 46 96 65q35 13 75 13h307v-720zM458 635h-218q-26 0 -52.5 -12t-45.5 -32q-39 -40 -39 -102q0 -22 8.5 -44.5t22.5 -40.5q20 -25 48.5 -39t57.5 -14h218v284z
" />
    <glyph glyph-name="uni0402" unicode="&#x402;" horiz-adv-x="591" 
d="M534.5 409q16.5 -51 16.5 -116q0 -154 -85 -232q-31 -28 -72 -44t-81 -17v90q26 1 50.5 11t43.5 27q54 51 54 160q0 96 -45 142q-19 19 -46.5 29t-56.5 10q-52 0 -88 -27q-40 -28 -54 -91q-6 -28 -6 -74v-277h-90v639h-75v81h315v-81h-160v-155q9 10 21 21q28 24 66.5 37
t75.5 13q102 0 162 -59q38 -36 54.5 -87z" />
    <glyph glyph-name="uni04AE" unicode="&#x4ae;" horiz-adv-x="575" 
d="M575 720l-242 -420v-300h-90v300l-243 420h104l184 -318l183 318h104z" />
    <glyph glyph-name="uni04BA" unicode="&#x4ba;" horiz-adv-x="657" 
d="M80 0v720h90v-327q33 43 82.5 65t107.5 22q60 0 112.5 -24t86.5 -68q34 -43 46 -97t12 -128v-163h-90v147q0 67 -9 111t-37 77q-24 30 -58 44.5t-74 14.5q-43 0 -79 -16t-58 -46q-26 -35 -38 -95q-4 -32 -4 -59v-178h-90z" />
    <glyph glyph-name="uni04E8" unicode="&#x4e8;" horiz-adv-x="752" 
d="M712 360q0 -158 -79 -259q-45 -57 -112 -86.5t-145 -29.5q-79 0 -146 29.5t-110 86.5q-78 99 -80 259q0 74 19 141t61 119q43 56 110 85.5t142 29.5q80 0 148 -29t113 -86q77 -98 79 -260zM136 405h480q-8 98 -55 160q-30 41 -78 63t-103 22q-58 0 -108 -21.5t-81 -63.5
q-45 -59 -55 -160zM616 316h-480q8 -99 55 -161q30 -41 78.5 -63t102.5 -22q58 0 108 21.5t81 63.5q47 62 55 161z" />
    <glyph glyph-name="uni0414.loclBGR" horiz-adv-x="766" 
d="M716 85v-170h-85v85h-517v-85h-85v170h69l213 635h124l213 -635h68zM554 85l-182 541l-181 -541h363z" />
    <glyph glyph-name="uni0416.loclBGR" horiz-adv-x="958" 
d="M249 375l-224 345h107l195 -308h107v308h90v-308h107l196 308h107l-224 -345l243 -375h-107l-215 338h-107v-338h-90v338h-107l-214 -338h-108z" />
    <glyph glyph-name="uni041A.loclBGR" horiz-adv-x="644" 
d="M529 0l-281 325h-78v-325h-90v720h90v-310h78l244 310h112l-275 -351l315 -369h-115z" />
    <glyph glyph-name="uni041B.loclBGR" horiz-adv-x="616" 
d="M370 720l241 -720h-92l-212 626l-209 -626h-93l241 720h124z" />
    <glyph glyph-name="uni0430" unicode="&#x430;" horiz-adv-x="579" 
d="M62 440l15 22q69 92 201 92q77 0 134 -29t85 -89q22 -44 22 -97v-339h-79v105q-13 -27 -38 -50.5t-53 -36.5q-61 -32 -125 -32q-44 0 -85.5 19.5t-64.5 51.5q-17 26 -25.5 49.5t-8.5 51.5q0 43 21.5 79t59.5 59q33 19 66.5 27t95.5 18q9 1 36 5l108 15q-3 24 -14.5 44.5
t-29.5 33.5q-39 31 -101 31q-87 0 -125 -52q-5 -5 -13 -17zM304 265q-56 -9 -91 -18.5t-59 -30t-24 -55.5q0 -38 31 -65t76 -27q54 0 104 28t70 76q13 27 16.5 51t3.5 61q-68 -9 -127 -20z" />
    <glyph glyph-name="uni0431" unicode="&#x431;" horiz-adv-x="588" 
d="M404.5 491.5q49.5 -19.5 82.5 -59.5q31 -37 46 -85t15 -100q1 -53 -16 -102t-51 -86q-36 -38 -85.5 -57t-103.5 -17q-53 -1 -103 20t-84 61q-61 70 -64 186l-1 59q0 84 10 153q20 134 111 200q45 32 102 44t127 12q56 0 116 -10v-83q-61 10 -128 10q-114 0 -168 -39
q-34 -24 -50.5 -64t-23.5 -96q32 35 73 54t89 19q57 0 106.5 -19.5zM227 418q-32 -13 -53 -38q-38 -45 -38 -127q0 -86 38 -129q21 -25 52.5 -38t68.5 -13q36 0 68 12.5t52 37.5q39 46 39 129q0 84 -39 128q-21 25 -52.5 38t-67.5 12q-36 1 -68 -12z" />
    <glyph glyph-name="uni0432" unicode="&#x432;" horiz-adv-x="568" 
d="M334 540q73 0 116 -42q25 -21 38 -49.5t13 -61.5q0 -48 -28 -85q-7 -12 -18 -21q25 -16 41 -39q15 -17 23.5 -40.5t8.5 -47.5q0 -34 -14.5 -65t-40.5 -52q-20 -18 -48 -27.5t-55 -9.5h-300v539zM160 306h174q37 0 59 28q17 23 17 53q-2 29 -17 51q-11 15 -25 21.5
t-34 6.5h-174v-160zM160 73h196q39 0 61 25q20 23 20 56q2 31 -20 54q-14 15 -29 20t-40 5h-188v-160z" />
    <glyph glyph-name="uni0433" unicode="&#x433;" horiz-adv-x="470" 
d="M445 451h-286v-451h-89v540h375v-89z" />
    <glyph glyph-name="uni0453" unicode="&#x453;" horiz-adv-x="470" 
d="M361 700l-25 67l-241 -95l26 -66zM445 451h-286v-451h-89v540h375v-89z" />
    <glyph glyph-name="uni0491" unicode="&#x491;" horiz-adv-x="470" 
d="M445 625v-174h-286v-451h-89v540h286v85h89z" />
    <glyph glyph-name="uni0434" unicode="&#x434;" horiz-adv-x="630" 
d="M528 85h47v-157h-85v72h-385v-72h-85v157q37 0 68 39.5t42 140.5l32 275h366v-455zM443 459h-207l-23 -204q-14 -119 -56 -170h286v374z" />
    <glyph glyph-name="uni0435" unicode="&#x435;" 
d="M170 125q21 -29 56 -44.5t74 -15.5q40 0 73.5 14.5t56.5 43.5q13 16 19 29l78 -40q-12 -23 -27 -40q-35 -43 -85 -65t-111 -22q-60 0 -113.5 23t-88.5 66q-62 79 -62 193q0 123 62 200q35 43 86.5 65.5t111.5 22.5t111.5 -22.5t86.5 -65.5q31 -39 46.5 -90.5t15.5 -107.5
l-1 -23h-427q3 -75 38 -121zM226 460.5q-35 -15.5 -56 -44.5q-27 -35 -36 -97h333q-8 60 -37 97q-21 29 -55.5 44.5t-74.5 15.5q-39 0 -74 -15.5z" />
    <glyph glyph-name="uni0450" unicode="&#x450;" 
d="M441 606l-240 94l25 67l241 -95zM170 125q21 -29 56 -44.5t74 -15.5q40 0 73.5 14.5t56.5 43.5q13 16 19 29l78 -40q-12 -23 -27 -40q-35 -43 -85 -65t-111 -22q-60 0 -113.5 23t-88.5 66q-62 79 -62 193q0 123 62 200q35 43 86.5 65.5t111.5 22.5t111.5 -22.5
t86.5 -65.5q31 -39 46.5 -90.5t15.5 -107.5l-1 -23h-427q3 -75 38 -121zM226 460.5q-35 -15.5 -56 -44.5q-27 -35 -36 -97h333q-8 60 -37 97q-21 29 -55.5 44.5t-74.5 15.5q-39 0 -74 -15.5z" />
    <glyph glyph-name="uni0451" unicode="&#x451;" 
d="M247 660h-90v90h90v-90zM443 660h-90v90h90v-90zM170 125q21 -29 56 -44.5t74 -15.5q40 0 73.5 14.5t56.5 43.5q13 16 19 29l78 -40q-12 -23 -27 -40q-35 -43 -85 -65t-111 -22q-60 0 -113.5 23t-88.5 66q-62 79 -62 193q0 123 62 200q35 43 86.5 65.5t111.5 22.5
t111.5 -22.5t86.5 -65.5q31 -39 46.5 -90.5t15.5 -107.5l-1 -23h-427q3 -75 38 -121zM226 460.5q-35 -15.5 -56 -44.5q-27 -35 -36 -97h333q-8 60 -37 97q-21 29 -55.5 44.5t-74.5 15.5q-39 0 -74 -15.5z" />
    <glyph glyph-name="uni0436" unicode="&#x436;" horiz-adv-x="744" 
d="M557 271l177 -271l-101 1l-146 232h-74v-233h-81v233h-74l-147 -232l-101 -1l177 271l-168 269h101l138 -233h74v233h81v-233h73l139 233h100z" />
    <glyph glyph-name="uni0437" unicode="&#x437;" horiz-adv-x="546" 
d="M82 483.5q21 26.5 52 42.5q54 29 137 29q84 0 138 -29q40 -21 61.5 -55.5t23.5 -78.5q0 -36 -11.5 -62.5t-36.5 -46.5q30 -19 45 -50.5t15 -70.5q0 -47 -24 -84.5t-65 -60.5q-59 -32 -146 -32q-89 0 -145 32q-66 35 -86 113l88 22q9 -37 42 -58q39 -23 101 -23t101 23
q44 25 44 69q0 57 -54 70q-29 9 -88 9h-51v74h51q28 0 46.5 1.5t34.5 7.5q27 9 38 24.5t11 38.5q0 19 -11 35t-29 26q-34 20 -93 22q-60 -2 -92 -22q-30 -17 -36 -47l-89 21q7 34 28 60.5z" />
    <glyph glyph-name="uni0438" unicode="&#x438;" horiz-adv-x="591" 
d="M521 0h-90v396l-281 -396h-80v540h90v-390l281 390h80v-540z" />
    <glyph glyph-name="uni0439" unicode="&#x439;" horiz-adv-x="591" 
d="M441 737q0 -37 -18.5 -68.5t-49.5 -50t-68 -18.5t-68.5 18.5t-50 50t-18.5 68.5h72q0 -27 19 -46t46 -19t45.5 19t18.5 46h72zM521 0h-90v396l-281 -396h-80v540h90v-390l281 390h80v-540z" />
    <glyph glyph-name="uni045D" unicode="&#x45d;" horiz-adv-x="591" 
d="M452 672l-241 95l-25 -67l240 -94zM521 0h-90v396l-281 -396h-80v540h90v-390l281 390h80v-540z" />
    <glyph glyph-name="uni043A" unicode="&#x43a;" horiz-adv-x="516" 
d="M161 0h-91l1 540h90v-233h56l169 233h103l-194 -269l221 -271h-106l-192 233h-57v-233z" />
    <glyph glyph-name="uni045C" unicode="&#x45c;" horiz-adv-x="516" 
d="M383 700l-25 67l-241 -95l25 -66zM161 0h-91l1 540h90v-233h56l169 233h103l-194 -269l221 -271h-106l-192 233h-57v-233z" />
    <glyph glyph-name="uni043B" unicode="&#x43b;" horiz-adv-x="577" 
d="M507 540v-540h-85v459h-197l-34 -269q-11 -93 -44 -142t-106 -49q-14 0 -21 1v81q35 0 52.5 14t24.5 39.5t13 73.5l40 332h357z" />
    <glyph glyph-name="uni043C" unicode="&#x43c;" horiz-adv-x="701" 
d="M630 540l1 -540h-90v365l-161 -278h-59l-160 278v-365h-91v540h82l199 -340l199 340h80z" />
    <glyph glyph-name="uni043D" unicode="&#x43d;" horiz-adv-x="602" 
d="M532 540v-540h-89v242h-284v-242h-89v540h89v-209h284v209h89z" />
    <glyph glyph-name="uni043E" unicode="&#x43e;" horiz-adv-x="601" 
d="M189 7.5q-52 22.5 -87 66.5q-62 79 -62 197q0 119 62 196q34 42 86.5 65t111.5 23q60 0 112 -22.5t86 -65.5q63 -76 63 -196q0 -119 -63 -197q-35 -44 -86.5 -66.5t-111.5 -22.5q-59 0 -111 22.5zM466 271q0 93 -39 142q-20 28 -54 43t-73 15t-72.5 -15t-53.5 -43
q-39 -49 -39 -142q0 -92 39 -143q21 -28 54.5 -43t71.5 -15q39 0 72.5 15t54.5 43q39 51 39 143z" />
    <glyph glyph-name="uni043F" unicode="&#x43f;" horiz-adv-x="602" 
d="M532 0h-89v451h-284v-451h-89v540h462v-540z" />
    <glyph glyph-name="uni0440" unicode="&#x440;" horiz-adv-x="616" 
d="M561.5 378.5q14.5 -51.5 14.5 -107.5q0 -123 -60 -199q-33 -42 -82.5 -64.5t-104.5 -22.5q-51 0 -94.5 16.5t-74.5 49.5v-291h-90v780h80v-61q33 36 80 56t99 20q56 0 105 -22t82 -64q31 -39 45.5 -90.5zM481 271q0 93 -38 143q-21 30 -54 45t-74 15q-38 0 -70 -14
t-53 -41q-42 -53 -42 -148q0 -45 10.5 -84t31.5 -65q22 -27 55 -41t71 -14t71.5 15t54.5 45q37 49 37 144z" />
    <glyph glyph-name="uni0441" unicode="&#x441;" horiz-adv-x="562" 
d="M443 384q-6 16 -17 28q-21 29 -54.5 44t-71.5 15t-71.5 -15t-54.5 -44q-38 -48 -40 -142q2 -92 40 -142q21 -28 54.5 -43t71.5 -15t71.5 15t54.5 43q9 12 16 27l85 -36q-16 -28 -29 -45q-36 -44 -88 -67t-110 -22q-59 -1 -110.5 22t-87.5 67q-60 75 -62 196q2 121 62 197
q36 44 87 66t111 22t111.5 -22.5t86.5 -65.5q19 -26 29 -47z" />
    <glyph glyph-name="uni0442" unicode="&#x442;" horiz-adv-x="515" 
d="M490 459h-188v-459h-89v459h-188v81h465v-81z" />
    <glyph glyph-name="uni0443" unicode="&#x443;" horiz-adv-x="555" 
d="M545 540l-243 -638q-33 -85 -76 -116q-21 -16 -45.5 -21t-57.5 -5h-13v86l17 -2q37 -2 55 11q14 10 28.5 38t37.5 91l-228 556h91l179 -441l165 441h90z" />
    <glyph glyph-name="uni045E" unicode="&#x45e;" horiz-adv-x="555" 
d="M423 737q0 -37 -18.5 -68.5t-49.5 -50t-68 -18.5t-68.5 18.5t-50 50t-18.5 68.5h72q0 -27 19 -46t46 -19t45.5 19t18.5 46h72zM545 540l-243 -638q-33 -85 -76 -116q-21 -16 -45.5 -21t-57.5 -5h-13v86l17 -2q37 -2 55 11q14 10 28.5 38t37.5 91l-228 556h91l179 -441
l165 441h90z" />
    <glyph glyph-name="uni0444" unicode="&#x444;" horiz-adv-x="721" 
d="M681 270q-3 -143 -100 -222q-34 -27 -81 -43t-99 -21v-209h-81v209q-113 10 -179 64q-49 40 -74.5 96.5t-26.5 125.5q1 67 26 124t75 96q33 27 79.5 43t99.5 21v161h81v-161q52 -4 99 -19.5t81 -44.5q97 -78 100 -220zM590 270q-1 48 -18 88.5t-52 67.5q-41 34 -119 43
v-399q76 9 119 43q68 54 70 157zM320 70v398q-76 -7 -119 -42q-67 -53 -69 -156q2 -103 69 -157q41 -34 119 -43z" />
    <glyph glyph-name="uni0445" unicode="&#x445;" horiz-adv-x="531" 
d="M317 273l204 -273h-104l-151 202l-152 -202h-104l204 273l-199 267h103l148 -195l147 195h103z" />
    <glyph glyph-name="uni0447" unicode="&#x447;" horiz-adv-x="585" 
d="M515 540v-540h-90v181l-4 -4q-31 -29 -72 -42.5t-84 -13.5q-38 0 -74.5 12t-65.5 35q-51 40 -68.5 98t-16.5 141v133h90v-133q0 -62 12 -103.5t45 -67.5q36 -29 93 -29q55 0 92 32q36 30 47 86q6 25 6 73v142h90z" />
    <glyph glyph-name="uni0446" unicode="&#x446;" horiz-adv-x="660" 
d="M620 85v-170h-89v85h-461v540h89v-451h284v451h89v-455h88z" />
    <glyph glyph-name="uni0448" unicode="&#x448;" horiz-adv-x="747" 
d="M70 540h81v-455h183v455h81v-455h181v455h81v-540h-607v540z" />
    <glyph glyph-name="uni0449" unicode="&#x449;" horiz-adv-x="805" 
d="M765 85v-170h-89v85h-606v540h81v-455h183v455h81v-455h181v455h81v-455h88z" />
    <glyph glyph-name="uni045F" unicode="&#x45f;" horiz-adv-x="602" 
d="M532 540v-540h-186v-120h-89v120h-187v540h89v-451h284v451h89z" />
    <glyph glyph-name="uni044C" unicode="&#x44c;" horiz-adv-x="533" 
d="M161 540v-195h161q34 0 65.5 -12.5t55.5 -36.5t37 -56.5t13 -67.5q0 -34 -13 -66.5t-37 -55.5q-24 -24 -56 -37t-65 -13h-251l-1 540h91zM161 85h158q33 0 58 28q24 24 24 59q0 34 -23 59q-25 28 -59 28h-158v-174z" />
    <glyph glyph-name="uni044A" unicode="&#x44a;" horiz-adv-x="533" 
d="M480 239.5q13 -32.5 13 -67.5q0 -34 -13 -66.5t-37 -55.5q-24 -24 -56 -37t-65 -13h-251l-1 467h-75v73h166v-195h161q34 0 65.5 -12.5t55.5 -36.5t37 -56.5zM401 172q0 34 -23 59q-25 28 -59 28h-158v-174h158q33 0 58 28q24 24 24 59z" />
    <glyph glyph-name="uni044B" unicode="&#x44b;" horiz-adv-x="694" 
d="M161 540v-195h141q34 0 65.5 -12.5t55.5 -36.5t37 -56.5t13 -67.5q0 -34 -13 -66.5t-37 -55.5q-24 -24 -56 -37t-65 -13h-231l-1 540h91zM624 540v-540h-89v540h89zM161 85h138q33 0 58 28q24 24 24 59q0 34 -23 59q-25 28 -59 28h-138v-174z" />
    <glyph glyph-name="uni0459" unicode="&#x459;" horiz-adv-x="884" 
d="M831 239.5q13 -32.5 13 -67.5q0 -34 -13 -66.5t-37 -55.5q-24 -24 -56 -37t-65 -13h-251l-1 459h-196l-34 -269q-11 -93 -44 -142t-106 -49q-14 0 -21 1v81q35 0 52.5 14t24.5 39.5t13 73.5l40 332h362v-195h161q34 0 65.5 -12.5t55.5 -36.5t37 -56.5zM752 172
q0 34 -23 59q-25 28 -59 28h-158v-174h158q33 0 58 28q24 24 24 59z" />
    <glyph glyph-name="uni045A" unicode="&#x45a;" horiz-adv-x="895" 
d="M842 239.5q13 -32.5 13 -67.5q0 -34 -13 -66.5t-37 -55.5q-24 -24 -56 -37t-65 -13h-251v259h-274v-259h-89v540h89v-195h273v195h91v-195h161q34 0 65.5 -12.5t55.5 -36.5t37 -56.5zM763 172q0 34 -23 59q-25 28 -59 28h-158v-174h158q33 0 58 28q24 24 24 59z" />
    <glyph glyph-name="uni0455" unicode="&#x455;" horiz-adv-x="531" 
d="M408 378q-20 55 -65 78q-17 9 -39 14.5t-42 5.5q-43 0 -76 -14q-18 -8 -30 -23t-12 -32q0 -27 19 -43q17 -15 54 -25q33 -11 116 -33q61 -14 104 -49q58 -45 58 -111q0 -36 -19 -70.5t-51 -53.5q-56 -37 -147 -37q-120 0 -186 71q-23 26 -32.5 48.5t-24.5 72.5l85 21
q3 -23 12.5 -46.5t22.5 -39.5q22 -25 54.5 -36t69.5 -11q27 0 55.5 6.5t45.5 17.5q32 22 32 59q0 14 -7.5 27.5t-21.5 23.5q-15 10 -29.5 16.5t-44.5 14.5l-118 34q-66 22 -95 52q-18 17 -27 41t-9 47q0 43 25.5 78t65.5 53q47 20 105 20q73 0 125 -26q38 -20 69 -55.5
t43 -74.5z" />
    <glyph glyph-name="uni0454" unicode="&#x454;" horiz-adv-x="562" 
d="M442 155l85 -36q-16 -28 -29 -45q-36 -44 -88 -67t-110 -22q-59 -1 -110.5 22t-87.5 67q-60 75 -62 196q2 121 62 197q36 44 87 66t111 22t111.5 -22.5t86.5 -65.5q19 -26 29 -47l-84 -36q-6 16 -17 28q-21 29 -54.5 44t-71.5 15t-71.5 -15t-54.5 -44q-31 -39 -38 -105
h223v-73h-223q7 -65 38 -106q21 -28 54.5 -43t71.5 -15t71.5 15t54.5 43q9 12 16 27z" />
    <glyph glyph-name="uni044D" unicode="&#x44d;" horiz-adv-x="562" 
d="M522 270q-2 -121 -62 -196q-36 -44 -87.5 -67t-110.5 -22q-58 -1 -110 22t-88 67q-13 17 -29 45l85 36q7 -15 16 -27q21 -28 54.5 -43t71.5 -15t71.5 15t54.5 43q31 41 38 106h-223v73h223q-7 66 -38 105q-21 29 -54.5 44t-71.5 15t-71.5 -15t-54.5 -44q-11 -12 -17 -28
l-84 36q10 21 29 47q35 43 86.5 65.5t111.5 22.5t111 -22t87 -66q60 -76 62 -197z" />
    <glyph glyph-name="uni0456" unicode="&#x456;" horiz-adv-x="249" 
d="M169 723v-92h-89v92h89zM169 540v-540h-89v540h89z" />
    <glyph glyph-name="uni0457" unicode="&#x457;" horiz-adv-x="249" 
d="M72 750v-90h-91v90h91zM268 750v-90h-90v90h90zM169 540v-540h-89v540h89z" />
    <glyph glyph-name="uni0458" unicode="&#x458;" horiz-adv-x="268" 
d="M188 715v-92h-89v92h89zM15 -255q40 0 73.5 14.5t56.5 42.5q27 31 35 71t8 108v559h-89v-559q0 -54 -4.5 -80t-20.5 -43q-20 -22 -59 -22v-91z" />
    <glyph glyph-name="uni045B" unicode="&#x45b;" horiz-adv-x="595" 
d="M528.5 408q17.5 -58 16.5 -141v-267h-90v267q0 62 -12 103.5t-45 67.5q-36 29 -93 29q-55 0 -92 -32q-36 -30 -47 -86q-6 -25 -6 -73v-276h-90v590h-61v73h61v57h80v-57h115v-73h-115v-107l14 14q31 29 72 42.5t84 13.5q38 0 74.5 -12t65.5 -35q51 -40 68.5 -98z" />
    <glyph glyph-name="uni044E" unicode="&#x44e;" horiz-adv-x="809" 
d="M769 271q0 -118 -62 -197q-35 -44 -86.5 -66.5t-111.5 -22.5t-111.5 23t-86.5 66q-50 63 -60 152h-92v-226h-89v540h89v-225h92q12 91 60 152q34 42 86.5 65t111.5 23t111.5 -22.5t86.5 -65.5q62 -77 62 -196zM675 271q0 91 -39 142q-21 28 -54.5 43t-72.5 15t-73 -15
t-54 -43q-39 -51 -39 -142t39 -143q21 -28 54.5 -43t72.5 -15q38 0 72 15t55 43q39 52 39 143z" />
    <glyph glyph-name="uni044F" unicode="&#x44f;" horiz-adv-x="563" 
d="M402 0v196h-165l-95 -196h-102l103 210q-30 12 -53 35q-24 24 -37 56.5t-13 66.5t13 66.5t37 56.5t55.5 36.5t65.5 12.5h281l1 -540h-91zM402 281v175h-188q-33 -2 -58 -28q-24 -24 -24 -60q0 -34 23 -59q25 -28 59 -28h188z" />
    <glyph glyph-name="uni0452" unicode="&#x452;" horiz-adv-x="595" 
d="M528.5 408q17.5 -58 16.5 -141v-359q0 -50 -21 -78.5t-58 -35.5q-19 -4 -39 -4t-56 8v68q18 -2 27 -2q28 0 42.5 16t14.5 59v328q0 62 -12 103.5t-45 67.5q-36 29 -93 29q-55 0 -92 -32q-36 -30 -47 -86q-6 -25 -6 -73v-276h-90v590h-61v73h61v57h80v-57h115v-73h-115
v-107l14 14q31 29 72 42.5t84 13.5q38 0 74.5 -12t65.5 -35q51 -40 68.5 -98z" />
    <glyph glyph-name="uni04AF" unicode="&#x4af;" horiz-adv-x="514" 
d="M302 0h-1v-180h-88v180h-1l-197 540h90l152 -426l151 426h91z" />
    <glyph glyph-name="uni04BB" unicode="&#x4bb;" horiz-adv-x="585" 
d="M528.5 274.5q17.5 -58.5 16.5 -141.5v-133h-90v133q0 62 -12 104t-45 68q-38 29 -94 29q-54 0 -91 -32q-36 -31 -47 -87q-6 -25 -6 -72v-143h-90v540h90v-180l4 4q31 28 72 42t83 14q39 0 75.5 -12t65.5 -35q51 -40 68.5 -98.5z" />
    <glyph glyph-name="uni04E9" unicode="&#x4e9;" horiz-adv-x="601" 
d="M561 271q0 -119 -63 -197q-35 -44 -86.5 -66.5t-111.5 -22.5q-59 0 -111 22.5t-87 66.5q-62 79 -62 197q0 119 62 196q34 42 86.5 65t111.5 23q60 0 112 -22.5t86 -65.5q63 -76 63 -196zM227.5 456q-33.5 -15 -53.5 -43q-32 -40 -37 -106h327q-5 66 -37 106
q-20 28 -54 43t-73 15t-72.5 -15zM372.5 85q33.5 15 54.5 43q32 42 37 106h-327q5 -64 37 -106q21 -28 54.5 -43t71.5 -15q39 0 72.5 15z" />
    <glyph glyph-name="uni0432.loclBGR" horiz-adv-x="586" 
d="M349.5 725q34.5 -10 60.5 -30q38 -27 59 -69t21 -87q0 -52 -32 -95q-17 -27 -47 -49q53 -21 86 -56q26 -26 40 -60t14 -71q0 -92 -63 -156q-33 -34 -78 -50.5t-97 -16.5q-53 0 -101 15t-81 47q-31 28 -46 70t-15 88v335q0 47 20.5 88t58.5 68q52 39 131 39q35 0 69.5 -10
zM204 626q-19 -14 -30.5 -37.5t-11.5 -46.5v-337q0 -36 10 -60.5t32 -41.5q40 -33 112 -33q34 0 63 12.5t49 36.5q33 41 33 87q0 31 -15.5 56t-40.5 42q-50 34 -125 39v80q59 10 91 46q28 31 28 69q0 26 -12 49.5t-32 38.5q-33 25 -75 25q-44 0 -76 -25z" />
    <glyph glyph-name="uni0433.loclBGR" horiz-adv-x="531" 
d="M81 473.5q31 35.5 69 55.5q52 26 125 26q58 0 105 -20q40 -18 65.5 -53t25.5 -78q0 -23 -9 -47t-27 -41q-29 -30 -95 -52l-118 -34q-30 -8 -44.5 -14.5t-29.5 -16.5q-14 -10 -21.5 -23.5t-7.5 -27.5q0 -37 32 -59q17 -11 45.5 -17.5t55.5 -6.5q37 0 69.5 11t54.5 36
q13 16 22.5 39.5t12.5 46.5l85 -21q-15 -50 -24.5 -72.5t-32.5 -48.5q-66 -71 -186 -71q-91 0 -147 37q-32 19 -51 53.5t-19 70.5q0 66 58 111q43 35 104 49q83 22 116 33q37 10 54 25q19 16 19 43q0 17 -12 32t-30 23q-33 14 -76 14q-20 0 -42 -5.5t-39 -14.5
q-45 -23 -65 -78l-85 21q12 39 43 74.5z" />
    <glyph glyph-name="uni0434.loclBGR" horiz-adv-x="615" 
d="M545 540v-544q0 -74 -19.5 -121.5t-66.5 -80.5q-70 -49 -165 -49q-43 0 -83.5 15t-69.5 42q-41 25 -61 61l82 40q7 -12 23 -28q19 -22 48.5 -33t60.5 -11q34 0 64.5 9t52.5 27q27 22 36 50t9 80v54q-31 -33 -74.5 -49.5t-94.5 -16.5q-55 0 -104.5 22.5t-82.5 64.5
q-60 76 -60 199q0 56 14.5 107.5t45.5 90.5q33 42 82 64t105 22q52 0 99 -20t80 -56v61h79zM455.5 187q10.5 39 10.5 84q0 95 -42 148q-21 27 -53 41t-70 14q-41 0 -74 -15t-54 -45q-38 -50 -38 -143q0 -95 37 -144q21 -30 54.5 -45t71.5 -15t71 14t55 41q21 26 31.5 65z
" />
    <glyph glyph-name="uni0436.loclBGR" horiz-adv-x="744" 
d="M557 271l177 -271l-101 1l-146 232h-74v-233h-81v233h-74l-147 -232l-101 -1l177 271l-168 269h101l138 -233h74v413h81v-413h73l139 233h100z" />
    <glyph glyph-name="uni0437.loclBGR" horiz-adv-x="597" 
d="M85.5 462q22.5 34 59.5 57q31 19 71 27.5t81 8.5q96 0 153 -36q43 -28 66 -69t23 -91q0 -35 -13 -67t-38 -55q-18 -19 -35 -30q32 -21 53 -49q51 -52 51 -132q0 -54 -23 -99.5t-66 -75.5q-66 -46 -171 -46q-104 0 -170 46q-37 25 -59.5 62.5t-27.5 82.5l93 16
q2 -27 14 -50.5t33 -38.5q22 -16 51.5 -24.5t60.5 -8.5q78 0 123 33q24 18 36 44.5t11 58.5q1 32 -11 58.5t-36 43.5q-43 32 -118 34h-51v86h51q63 0 103 27q22 13 33.5 35.5t10.5 48.5q1 26 -10.5 48.5t-33.5 36.5q-40 27 -103 27t-103 -27q-38 -25 -43 -74l-93 15
q5 43 27.5 77z" />
    <glyph glyph-name="uni0438.loclBGR" horiz-adv-x="595" 
d="M525 540v-540h-80v58l-14 -15q-31 -28 -72 -42t-83 -14q-39 0 -75.5 12t-65.5 35q-51 40 -68.5 98.5t-16.5 141.5v266h90v-266q0 -62 12 -104t45 -68q38 -29 94 -29q54 0 91 32q36 31 47 87q6 25 6 72v276h90z" />
    <glyph glyph-name="uni0439.loclBGR" horiz-adv-x="595" 
d="M219 618.5q-31 18.5 -49.5 50t-18.5 68.5h72q0 -27 19 -46t45 -19q27 0 46 19t19 46h72q0 -37 -18.5 -68.5t-50 -50t-68.5 -18.5t-68 18.5zM525 540v-540h-80v58l-14 -15q-31 -28 -72 -42t-83 -14q-39 0 -75.5 12t-65.5 35q-51 40 -68.5 98.5t-16.5 141.5v266h90v-266
q0 -62 12 -104t45 -68q38 -29 94 -29q54 0 91 32q36 31 47 87q6 25 6 72v276h90z" />
    <glyph glyph-name="uni045D.loclBGR" horiz-adv-x="591" 
d="M419 606l-240 94l25 67l241 -95zM525 540v-540h-80v58l-14 -15q-31 -28 -72 -42t-83 -14q-39 0 -75.5 12t-65.5 35q-51 40 -68.5 98.5t-16.5 141.5v266h90v-266q0 -62 12 -104t45 -68q38 -29 94 -29q54 0 91 32q36 31 47 87q6 25 6 72v276h90z" />
    <glyph glyph-name="uni043A.loclBGR" horiz-adv-x="516" 
d="M161 0h-91l1 720h90v-397h56l171 217h104l-197 -254l221 -286h-105l-193 249h-57v-249z" />
    <glyph glyph-name="uni043B.loclBGR" horiz-adv-x="514" 
d="M257 427l-152 -427h-90l197 540h90l197 -540h-91z" />
    <glyph glyph-name="uni043D.loclBGR" horiz-adv-x="602" 
d="M532 540v-540h-89v242h-284v-242h-89v540h89v-209h284v209h89z" />
    <glyph glyph-name="uni043F.loclBGR" horiz-adv-x="595" 
d="M528.5 408q17.5 -58 16.5 -141v-267h-90v267q0 62 -12 103.5t-45 67.5q-36 29 -93 29q-55 0 -92 -32q-36 -30 -47 -86q-6 -25 -6 -73v-276h-90v540h80v-57l14 14q31 29 72 42.5t84 13.5q38 0 74.5 -12t65.5 -35q51 -40 68.5 -98z" />
    <glyph glyph-name="uni0442.loclBGR" horiz-adv-x="856" 
d="M794 438q12 -41 12 -106l-1 -332h-89l1 332q0 43 -7.5 67t-32.5 46q-15 14 -35 22t-41 8q-27 0 -51 -11t-40 -31t-21.5 -41t-5.5 -49v-11l-1 -332h-89l1 332q0 43 -7.5 67t-32.5 46q-15 14 -35 22t-41 8q-27 0 -51 -11t-40 -31t-21.5 -41t-5.5 -49v-343h-90v540h80v-58
q27 34 66.5 53t84.5 19q32 0 63.5 -11t55.5 -32q26 -22 40 -48l6 9q26 39 68 60.5t90 21.5q32 0 63.5 -11t55.5 -32q39 -32 51 -73z" />
    <glyph glyph-name="uni0447.loclBGR" horiz-adv-x="585" 
d="M515 540v-540h-90v181l-4 -4q-31 -29 -72 -42.5t-84 -13.5q-38 0 -74.5 12t-65.5 35q-51 40 -68.5 98t-16.5 141v133h90v-133q0 -62 12 -103.5t45 -67.5q36 -29 93 -29q55 0 92 32q36 30 47 86q6 25 6 73v142h90z" />
    <glyph glyph-name="uni0446.loclBGR" horiz-adv-x="654" 
d="M614 85v-170h-89v85h-80v58l-14 -15q-31 -28 -72 -42t-83 -14q-39 0 -75.5 12t-65.5 35q-51 40 -68.5 98.5t-16.5 141.5v266h90v-266q0 -62 12 -104t45 -68q38 -29 94 -29q54 0 91 32q36 31 47 87q6 25 6 72v276h90v-455h89z" />
    <glyph glyph-name="uni0448.loclBGR" horiz-adv-x="856" 
d="M786 540v-540h-80v58q-27 -34 -66.5 -53t-84.5 -19q-31 0 -62.5 11.5t-56.5 31.5q-26 22 -40 48l-6 -9q-26 -39 -68 -60.5t-90 -21.5q-31 0 -62.5 11.5t-56.5 31.5q-39 32 -51 73t-12 107l1 331h89l-1 -331q0 -44 7.5 -68t32.5 -46q15 -14 35 -21.5t41 -7.5q26 0 50.5 11
t40.5 30q16 20 21.5 41.5t5.5 48.5v12l1 331h89l-1 -331q0 -44 7.5 -68t32.5 -46q15 -14 35 -21.5t41 -7.5q26 0 50.5 11t40.5 30q16 20 21.5 41.5t5.5 48.5v343h90z" />
    <glyph glyph-name="uni0449.loclBGR" horiz-adv-x="915" 
d="M875 85v-170h-89v85h-80v58q-27 -34 -66.5 -53t-84.5 -19q-31 0 -62.5 11.5t-56.5 31.5q-26 22 -40 48l-6 -9q-26 -39 -68 -60.5t-90 -21.5q-31 0 -62.5 11.5t-56.5 31.5q-39 32 -51 73t-12 107l1 331h89l-1 -331q0 -44 7.5 -68t32.5 -46q15 -14 35 -21.5t41 -7.5
q26 0 50.5 11t40.5 30q16 20 21.5 41.5t5.5 48.5v12l1 331h89l-1 -331q0 -44 7.5 -68t32.5 -46q15 -14 35 -21.5t41 -7.5q26 0 50.5 11t40.5 30q16 20 21.5 41.5t5.5 48.5v343h90v-455h89z" />
    <glyph glyph-name="uni044C.loclBGR" horiz-adv-x="533" 
d="M161 540v-195h161q34 0 65.5 -12.5t55.5 -36.5t37 -56.5t13 -67.5q0 -34 -13 -66.5t-37 -55.5q-24 -24 -56 -37t-65 -13h-251l-1 540h91zM161 85h158q33 0 58 28q24 24 24 59q0 34 -23 59q-25 28 -59 28h-158v-174z" />
    <glyph glyph-name="uni044E.loclBGR" horiz-adv-x="809" 
d="M769 271q0 -118 -62 -197q-35 -44 -86.5 -66.5t-111.5 -22.5t-111.5 23t-86.5 66q-50 63 -60 152h-92v-226h-89v720h89v-405h92q12 91 60 152q34 42 86.5 65t111.5 23t111.5 -22.5t86.5 -65.5q62 -77 62 -196zM675 271q0 91 -39 142q-21 28 -54.5 43t-72.5 15t-73 -15
t-54 -43q-39 -51 -39 -142t39 -143q21 -28 54.5 -43t72.5 -15q38 0 72 15t55 43q39 52 39 143z" />
    <glyph glyph-name="uni0431.loclSRB" horiz-adv-x="588" 
d="M404.5 491.5q49.5 -19.5 82.5 -59.5q31 -37 46 -85t15 -100q1 -53 -16 -102t-51 -86q-36 -38 -85.5 -57t-103.5 -17q-53 -1 -103 20t-84 61q-61 70 -64 186l-1 59q0 84 10 153q20 134 111 200q45 32 102 44t127 12q56 0 116 -10v-83q-61 10 -128 10q-114 0 -168 -39
q-34 -24 -50.5 -64t-23.5 -96q32 35 73 54t89 19q57 0 106.5 -19.5zM227 418q-32 -13 -53 -38q-38 -45 -38 -127q0 -86 38 -129q21 -25 52.5 -38t68.5 -13q36 0 68 12.5t52 37.5q39 46 39 129q0 84 -39 128q-21 25 -52.5 38t-67.5 12q-36 1 -68 -12z" />
    <glyph glyph-name="alpha" unicode="&#x3b1;" horiz-adv-x="615" 
d="M571.5 114q10.5 -23 43.5 -28v-86q-88 4 -122 68q-35 -41 -85 -62t-108 -21q-59 0 -111 22.5t-87 66.5q-62 79 -62 197q0 119 62 196q34 42 86.5 65t111.5 23q53 0 99.5 -17.5t81.5 -51.5v54h79v-239q1 -10 1 -30t-1 -30v-58q1 -46 11.5 -69zM466 271q0 93 -39 142
q-20 28 -54 43t-73 15t-72.5 -15t-53.5 -43q-39 -49 -39 -142q0 -92 39 -143q21 -28 54.5 -43t71.5 -15q39 0 72.5 15t54.5 43q39 51 39 143z" />
    <glyph glyph-name="beta" unicode="&#x3b2;" horiz-adv-x="586" 
d="M537 279q14 -34 14 -71q0 -92 -63 -156q-33 -34 -78 -50.5t-97 -16.5q-89 0 -153 39v-264h-90v780q0 47 20.5 88t58.5 68q52 39 131 39q35 0 69.5 -10t60.5 -30q38 -27 59 -69t21 -87q0 -52 -32 -95q-17 -27 -47 -49q53 -21 86 -56q26 -26 40 -60zM461 206q0 31 -15.5 56
t-40.5 42q-50 34 -125 39v80q59 10 91 46q28 31 28 69q0 26 -12 49.5t-32 38.5q-33 25 -75 25q-44 0 -76 -25q-19 -14 -30.5 -37.5t-11.5 -46.5v-337q0 -36 10 -60.5t32 -41.5q40 -33 112 -33q34 0 63 12.5t49 36.5q33 41 33 87z" />
    <glyph glyph-name="uni03BC" unicode="&#x3bc;" horiz-adv-x="599" 
d="M555.5 114q10.5 -23 43.5 -28v-86q-79 4 -115 56q-15 -15 -24 -22q-29 -23 -65.5 -35t-75.5 -12q-42 0 -83 14t-72 42l-14 15v-238h-80v720h90v-276q0 -47 6 -72q11 -56 47 -87q37 -32 91 -32q56 0 94 29q33 26 45 68t12 104v266h90v-266v-19v-72q0 -46 10.5 -69z" />
    <glyph glyph-name="zero" unicode="0" horiz-adv-x="626" 
d="M414.5 5.5q47.5 20.5 81.5 58.5q33 37 46.5 79t13.5 95v245q0 55 -14 97.5t-47 78.5q-33 37 -80 56.5t-98 19.5q-55 0 -103 -19.5t-82 -56.5q-34 -39 -48 -80.5t-14 -95.5v-245q0 -53 14 -94.5t46 -78.5q33 -38 81.5 -59t101.5 -21q54 0 101.5 20.5zM386.5 631.5
q34.5 -19.5 55.5 -52.5q14 -22 19 -44.5t5 -51.5v-245q0 -31 -5.5 -54t-19.5 -44q-21 -32 -55 -51t-73 -18q-38 -1 -72 18t-55 51q-25 36 -25 98v245q0 61 24 97q21 32 55.5 51.5t72.5 18.5q39 1 73.5 -18.5z" />
    <glyph glyph-name="one" unicode="1" horiz-adv-x="406" 
d="M286 720v-720h-90v622l-136 -82v99l136 81h90z" />
    <glyph glyph-name="two" unicode="2" horiz-adv-x="580" 
d="M76 601.5q22 46.5 60 79.5q32 27 73 40.5t87 13.5q49 0 91.5 -17t73.5 -50q33 -31 51 -75t18 -91q0 -66 -25.5 -112t-83.5 -98l-231 -206h330v-85h-470l1 85l321 282q38 33 52.5 65.5t14.5 69.5q0 31 -12 59t-34 48q-19 19 -45.5 29.5t-55.5 10.5q-54 0 -94 -34
q-24 -21 -38 -50.5t-14 -62.5h-91q-1 52 21 98.5z" />
    <glyph glyph-name="three" unicode="3" horiz-adv-x="563" 
d="M488.5 312q14.5 -41 14.5 -86q0 -56 -21 -105.5t-61 -81.5q-32 -27 -73 -40t-84 -13q-41 0 -79.5 13.5t-70.5 38.5q-26 21 -45 49.5t-29 60.5l86 25q15 -46 47 -70q40 -32 94 -32q57 2 94 33q50 40 50 118q0 34 -11.5 64t-34.5 51q-39 35 -99 35q-39 0 -74 -19l-43 71
l223 211h-303v85h424v-88l-195 -184q90 -6 147 -65q29 -30 43.5 -71z" />
    <glyph glyph-name="four" unicode="4" horiz-adv-x="594" 
d="M544 217v-84h-75v-133h-90v133h-329v84l238 503h93l-237 -503h235v203h90v-203h75z" />
    <glyph glyph-name="five" unicode="5" horiz-adv-x="581" 
d="M473 720v-84h-299l-13 -220q29 23 64 35.5t71 12.5q43 0 84.5 -15.5t73.5 -44.5q38 -34 57.5 -79.5t19.5 -97.5q-1 -48 -20.5 -93t-52.5 -78q-34 -34 -79.5 -52t-96.5 -18q-46 0 -89 17t-75 48q-49 46 -68 113l86 23q11 -44 45 -74q44 -41 105 -41q31 0 59.5 11.5
t49.5 32.5q22 22 34 50.5t12 60.5q0 33 -13 62.5t-37 51.5q-22 19 -49 30t-56 11q-60 0 -101 -38q-18 -15 -33 -40l-80 46l22 370h379z" />
    <glyph glyph-name="six" unicode="6" horiz-adv-x="621" 
d="M454 582q-22 31 -56.5 49.5t-73.5 18.5q-40 0 -74.5 -18.5t-54.5 -49.5q-34 -44 -34 -110v-84q32 35 74.5 55.5t90.5 20.5q45 0 88 -17t76 -47q71 -69 71 -170q0 -49 -18.5 -94t-52.5 -79q-33 -33 -77.5 -52t-92.5 -19q-52 0 -99 19t-81 55q-38 38 -54 84t-16 105v223
q0 114 68 186q35 38 82.5 57t103.5 20q59 0 110.5 -24.5t86.5 -69.5zM408 114q23 19 37 46q15 30 15 66q0 24 -5 40q-8 29 -26.5 51.5t-43.5 36.5q-32 17 -68 17q-20 0 -41 -6q-29 -7 -51.5 -26t-36.5 -45q-16 -29 -16 -67q0 -24 5 -40q16 -54 66 -84q34 -20 73 -20
q24 0 40 5q29 7 52 26z" />
    <glyph glyph-name="seven" unicode="7" horiz-adv-x="513" 
d="M372 635h-332v85h423v-85l-259 -635h-91z" />
    <glyph glyph-name="eight" unicode="8" horiz-adv-x="591" 
d="M148 689q57 46 147 46q93 0 148 -46q34 -25 52 -65.5t18 -85.5q0 -66 -39 -112q-15 -20 -38 -40q32 -22 55 -56q40 -50 40 -119q0 -51 -17.5 -95.5t-53.5 -74.5q-33 -29 -76 -42.5t-89 -13.5t-89 14t-75 42q-34 30 -52 73.5t-19 91.5q0 33 10 65.5t30 58.5q23 34 55 56
q-26 23 -38 40q-39 47 -39 108q0 101 70 155zM206 456q33 -29 89 -29q57 0 90 29q33 28 33 86q0 24 -8.5 44.5t-24.5 34.5q-32 28 -85 28q-62 0 -94 -28t-34 -83q0 -55 34 -82zM427.5 150q9.5 26 9.5 56t-9.5 56t-28.5 44t-46 27t-58 9q-30 0 -57 -9t-46 -27
q-38 -35 -38 -100t38 -100q19 -18 46.5 -27t56.5 -9q30 0 57.5 9t46.5 27t28.5 44z" />
    <glyph glyph-name="nine" unicode="9" horiz-adv-x="621" 
d="M167 138q22 -31 57 -49.5t74 -18.5t74 18.5t55 49.5q34 46 34 110v84q-31 -35 -74.5 -55.5t-91.5 -20.5q-45 0 -87.5 17t-75.5 47q-72 69 -72 174q1 48 20 92t52 77q32 33 77 52t93 19q52 0 99 -19t81 -55q37 -37 53 -83.5t16 -105.5v-223q0 -57 -16 -103t-51 -83
q-71 -77 -189 -77q-58 0 -108.5 24.5t-85.5 69.5zM213 606q-23 -19 -37 -46q-15 -30 -15 -64q0 -21 6 -42q7 -29 25.5 -51.5t43.5 -36.5q32 -17 69 -17q21 0 40 6q29 7 52 26t37 45q16 29 16 66q0 20 -6 41q-14 52 -65 84q-34 20 -74 20q-23 0 -39 -5q-30 -7 -53 -26z" />
    <glyph glyph-name="zero.tf" horiz-adv-x="620" 
d="M411.5 5.5q48.5 20.5 82.5 59.5q32 37 45.5 78.5t13.5 94.5v245q0 54 -14 95.5t-48 80.5q-33 36 -79.5 56t-97.5 20q-54 0 -102.5 -19t-82.5 -57q-33 -37 -47.5 -79t-14.5 -97v-245q0 -53 14 -95t46 -79q35 -38 82 -58.5t101 -20.5q53 0 101.5 20.5zM382.5 631.5
q34.5 -19.5 55.5 -51.5q25 -37 25 -97v-245q0 -62 -25 -98q-21 -32 -55.5 -51t-72.5 -18q-38 -1 -72.5 18t-55.5 51q-14 21 -19 44t-5 54v245q0 29 5 51.5t18 44.5q21 33 55.5 52.5t73.5 18.5q38 1 72.5 -18.5z" />
    <glyph glyph-name="one.tf" horiz-adv-x="620" 
d="M391 720v-720h-90v622l-136 -82v99l136 81h90z" />
    <glyph glyph-name="two.tf" horiz-adv-x="620" 
d="M96 601.5q22 46.5 60 79.5q32 27 73 40.5t87 13.5q49 0 91.5 -17t73.5 -50q33 -31 51 -75t18 -91q0 -66 -25.5 -112t-83.5 -98l-231 -206h330v-85h-470l1 85l321 282q38 33 52.5 65.5t14.5 69.5q0 31 -12 59t-34 48q-19 19 -45.5 29.5t-55.5 10.5q-54 0 -94 -34
q-24 -21 -38 -50.5t-14 -62.5h-91q-1 52 21 98.5z" />
    <glyph glyph-name="three.tf" horiz-adv-x="620" 
d="M517.5 312q14.5 -41 14.5 -86q0 -56 -21 -105.5t-61 -81.5q-32 -27 -73 -40t-84 -13q-41 0 -79.5 13.5t-70.5 38.5q-26 21 -45 49.5t-29 60.5l86 25q15 -46 47 -70q40 -32 94 -32q57 2 94 33q50 40 50 118q0 34 -11.5 64t-34.5 51q-39 35 -99 35q-39 0 -74 -19l-43 71
l223 211h-303v85h424v-88l-195 -184q90 -6 147 -65q29 -30 43.5 -71z" />
    <glyph glyph-name="four.tf" horiz-adv-x="620" 
d="M564 217v-84h-75v-133h-90v133h-329v84l238 503h93l-237 -503h235v203h90v-203h75z" />
    <glyph glyph-name="five.tf" horiz-adv-x="620" 
d="M493 720v-84h-299l-13 -220q29 23 64 35.5t71 12.5q43 0 84.5 -15.5t73.5 -44.5q38 -34 57.5 -79.5t19.5 -97.5q-1 -48 -20.5 -93t-52.5 -78q-34 -34 -79.5 -52t-96.5 -18q-46 0 -89 17t-75 48q-49 46 -68 113l86 23q11 -44 45 -74q44 -41 105 -41q31 0 59.5 11.5
t49.5 32.5q22 22 34 50.5t12 60.5q0 33 -13 62.5t-37 51.5q-22 19 -49 30t-56 11q-60 0 -101 -38q-18 -15 -33 -40l-80 46l22 370h379z" />
    <glyph glyph-name="six.tf" horiz-adv-x="620" 
d="M448 582q-22 31 -56.5 49.5t-73.5 18.5q-40 0 -74.5 -18.5t-54.5 -49.5q-34 -44 -34 -110v-84q32 35 74.5 55.5t90.5 20.5q45 0 88 -17t76 -47q71 -69 71 -170q0 -49 -18.5 -94t-52.5 -79q-33 -33 -77.5 -52t-92.5 -19q-52 0 -99 19t-81 55q-38 38 -54 84t-16 105v223
q0 114 68 186q35 38 82.5 57t103.5 20q59 0 110.5 -24.5t86.5 -69.5zM402 114q23 19 37 46q15 30 15 66q0 24 -5 40q-8 29 -26.5 51.5t-43.5 36.5q-32 17 -68 17q-20 0 -41 -6q-29 -7 -51.5 -26t-36.5 -45q-16 -29 -16 -67q0 -24 5 -40q16 -54 66 -84q34 -20 73 -20
q24 0 40 5q29 7 52 26z" />
    <glyph glyph-name="seven.tf" horiz-adv-x="620" 
d="M434 635h-332v85h423v-85l-259 -635h-91z" />
    <glyph glyph-name="eight.tf" horiz-adv-x="620" 
d="M163 689q57 46 147 46q93 0 148 -46q34 -25 52 -65.5t18 -85.5q0 -66 -39 -112q-15 -20 -38 -40q32 -22 55 -56q40 -50 40 -119q0 -51 -17.5 -95.5t-53.5 -74.5q-33 -29 -76 -42.5t-89 -13.5t-89 14t-75 42q-34 30 -52 73.5t-19 91.5q0 33 10 65.5t30 58.5q23 34 55 56
q-26 23 -38 40q-39 47 -39 108q0 101 70 155zM221 456q33 -29 89 -29q57 0 90 29q33 28 33 86q0 24 -8.5 44.5t-24.5 34.5q-32 28 -85 28q-62 0 -94 -28t-34 -83q0 -55 34 -82zM442.5 150q9.5 26 9.5 56t-9.5 56t-28.5 44t-46 27t-58 9q-30 0 -57 -9t-46 -27
q-38 -35 -38 -100t38 -100q19 -18 46.5 -27t56.5 -9q30 0 57.5 9t46.5 27t28.5 44z" />
    <glyph glyph-name="nine.tf" horiz-adv-x="620" 
d="M172 139q22 -32 56.5 -50.5t73.5 -18.5q40 0 74.5 18.5t54.5 50.5q34 43 34 109v85q-31 -36 -74 -56t-91 -20q-46 0 -88.5 16.5t-75.5 47.5q-71 69 -71 169q0 49 18.5 94.5t52.5 78.5q33 34 77.5 52.5t92.5 18.5q52 0 99 -18.5t81 -54.5q38 -38 54 -84t16 -105v-224
q0 -57 -16.5 -102t-51.5 -83q-35 -39 -83 -58t-103 -20q-59 0 -110.5 24.5t-86.5 70.5zM218 607q-23 -19 -37 -46q-15 -31 -15 -67q0 -24 5 -40q8 -28 26.5 -50.5t43.5 -36.5q30 -17 69 -17q23 0 40 5q29 8 51.5 26.5t36.5 44.5q16 29 16 67q0 25 -5 41q-17 54 -66 83
q-33 21 -75 21q-16 0 -38 -5q-29 -7 -52 -26z" />
    <glyph glyph-name="fraction" unicode="&#x2044;" horiz-adv-x="691" 
d="M0 75l631 630l60 -60l-631 -630z" />
    <glyph glyph-name="period" unicode="." horiz-adv-x="270" 
d="M184 98v-98h-98v98h98z" />
    <glyph glyph-name="comma" unicode="," horiz-adv-x="278" 
d="M138.5 -88q-19.5 -26 -57.5 -26q-7 0 -21 2l6 41q52 -4 46 71h-52v113h98v-128q0 -47 -19.5 -73z" />
    <glyph glyph-name="colon" unicode=":" horiz-adv-x="309" 
d="M203 173v-98h-98v98h98zM204 465v-98h-98v98h98z" />
    <glyph glyph-name="semicolon" unicode=";" horiz-adv-x="261" 
d="M164.5 -88q-19.5 -26 -57.5 -26q-7 0 -21 2l6 41q52 -4 46 71h-52v113h98v-128q0 -47 -19.5 -73zM183 540v-98h-98v98h98z" />
    <glyph glyph-name="ellipsis" unicode="&#x2026;" horiz-adv-x="658" 
d="M178 98v-98h-98v98h98zM378 98v-98h-98v98h98zM578 98v-98h-98v98h98z" />
    <glyph glyph-name="exclam" unicode="!" horiz-adv-x="329" 
d="M209 720v-540h-89v540h89zM209 92v-92h-89v92h89z" />
    <glyph glyph-name="exclamdown" unicode="&#xa1;" horiz-adv-x="329" 
d="M120 540h89v-92h-89v92zM120 360h89v-540h-89v540z" />
    <glyph glyph-name="question" unicode="?" horiz-adv-x="534" 
d="M418 387q-11 -12 -44 -39q-42 -34 -55 -57q-12 -21 -14.5 -38.5t-2.5 -56.5h-94q0 41 5 71t20 57q12 23 27.5 38.5t41.5 35.5q30 22 54 47q18 21 25.5 43t7.5 50q0 46 -22 72q-32 40 -101 40q-61 0 -92 -31q-31 -28 -31 -80h-93q3 44 21 83t49 64q28 24 66 36.5t78 12.5
q53 0 98 -16.5t75 -50.5q47 -53 47 -128q0 -85 -66 -153zM208 110h94v-110h-94v110z" />
    <glyph glyph-name="questiondown" unicode="&#xbf;" horiz-adv-x="534" 
d="M326 431h-94v109h94v-109zM116 153q14 16 44 40q22 18 34.5 30t20.5 26q12 22 14.5 39t2.5 56h94q0 -41 -5 -71t-20 -57q-12 -23 -27.5 -38t-42.5 -36q-34 -26 -53 -46q-19 -21 -26 -43.5t-7 -50.5q0 -46 22 -72q32 -40 101 -40q61 0 92 31q31 28 31 81h93
q-3 -45 -21 -84t-49 -64q-28 -24 -66 -36.5t-78 -12.5q-53 0 -98 16.5t-75 50.5q-47 53 -47 129q0 84 66 152z" />
    <glyph glyph-name="periodcentered" unicode="&#xb7;" horiz-adv-x="600" 
d="M258 227.5q-18 17.5 -18 42.5q0 26 18 43t44 17q24 0 41 -17t17 -43q0 -25 -17 -42.5t-41 -17.5q-26 0 -44 17.5z" />
    <glyph glyph-name="bullet" unicode="&#x2022;" horiz-adv-x="670" 
d="M247 181q-37 36 -37 89q0 54 37 89.5t91 35.5q50 0 86 -36t36 -89q0 -35 -16.5 -63.5t-44.5 -45t-61 -16.5q-54 0 -91 36z" />
    <glyph glyph-name="asterisk" unicode="*" horiz-adv-x="446" 
d="M274 525l69 -96l-65 -48l-70 96l-70 -96l-65 48l70 96l-113 36l25 77l113 -36v118h81v-118l112 36l25 -77z" />
    <glyph glyph-name="numbersign" unicode="#" horiz-adv-x="924" 
d="M646 441l-40 -146h196l-22 -85h-196l-56 -209h-88l56 209h-152l-56 -209h-88l56 209h-196l23 85h196l39 146h-196l23 85h196l52 194h88l-53 -194h153l52 194h88l-53 -194h196l-22 -85h-196zM558 441h-152l-39 -146h152z" />
    <glyph glyph-name="slash" unicode="/" horiz-adv-x="403" 
d="M343 720l-192 -720h-91l192 720h91z" />
    <glyph glyph-name="backslash" unicode="\" horiz-adv-x="403" 
d="M343 0h-91l-192 720h91z" />
    <glyph glyph-name="exclamdown.case" horiz-adv-x="329" 
d="M120 720h89v-92h-89v92zM120 540h89v-540h-89v540z" />
    <glyph glyph-name="questiondown.case" horiz-adv-x="534" 
d="M326 611h-94v109h94v-109zM116 333q14 16 44 40q22 18 34.5 30t20.5 26q12 22 14.5 39t2.5 56h94q0 -41 -5 -71t-20 -57q-12 -23 -27.5 -38t-42.5 -36q-34 -26 -53 -46q-19 -21 -26 -43.5t-7 -50.5q0 -46 22 -72q32 -39 101 -39q61 0 92 31q31 27 31 80h93
q-3 -45 -21 -84t-49 -64q-28 -24 -66 -36.5t-78 -12.5q-54 0 -98.5 16.5t-74.5 51.5q-23 25 -35 58.5t-12 69.5q0 84 66 152z" />
    <glyph glyph-name="periodcentered.case" horiz-adv-x="600" 
d="M258 317.5q-18 17.5 -18 42.5q0 26 18 43t44 17q24 0 41 -17t17 -43q0 -25 -17 -42.5t-41 -17.5q-26 0 -44 17.5z" />
    <glyph glyph-name="parenleft" unicode="(" horiz-adv-x="407" 
d="M244 843q-35 -59 -58 -119t-39 -131q-27 -123 -27 -249q0 -152 27 -276q17 -73 40 -133t57 -117l73 42q-55 97 -80 215t-25 248q0 289 105 479z" />
    <glyph glyph-name="parenright" unicode=")" horiz-adv-x="407" 
d="M196 331q0 -132 -25.5 -252.5t-80.5 -218.5l74 -42q33 57 56 117.5t40 132.5q27 124 27 276q0 126 -27 249q-16 71 -39 131.5t-57 118.5l-74 -41q104 -186 106 -471z" />
    <glyph glyph-name="braceleft" unicode="{" horiz-adv-x="457" 
d="M367 -119h-57q-19 0 -32.5 13.5t-13.5 32.5v234q0 42 -24 75l-26 36l26 35q24 35 24 75v234q0 19 13.5 32.5t32.5 13.5h57v85h-57q-36 0 -66 -17.5t-47.5 -48t-17.5 -65.5v-234q0 -13 -8 -26l-43 -60q-7 -10 -7 -24t7 -24l43 -61q8 -11 8 -26v-234q0 -35 17.5 -65
t47.5 -47.5t66 -17.5h57v84z" />
    <glyph glyph-name="braceright" unicode="}" horiz-adv-x="457" 
d="M148 -203q35 0 65.5 17.5t48 47.5t17.5 65v234q0 15 8 26l43 61q8 11 8 24t-8 24l-43 60q-8 13 -8 26v234q0 35 -17.5 65.5t-48 48t-65.5 17.5h-58v-85h58q19 0 32.5 -13.5t13.5 -32.5v-234q0 -40 24 -75l25 -35l-25 -36q-24 -33 -24 -75v-234q0 -19 -13.5 -32.5
t-32.5 -13.5h-58v-84h58z" />
    <glyph glyph-name="bracketleft" unicode="[" horiz-adv-x="393" 
d="M201 810v-945h117v-81h-198v1107h198v-81h-117z" />
    <glyph glyph-name="bracketright" unicode="]" horiz-adv-x="393" 
d="M273 -216h-198v81h117v945h-117v81h198v-1107z" />
    <glyph glyph-name="parenleft.case" horiz-adv-x="407" 
d="M244 873q-35 -59 -58 -119t-39 -131q-27 -123 -27 -249q0 -152 27 -276q17 -73 40 -133t57 -117l73 42q-55 97 -80 215t-25 248q0 289 105 479z" />
    <glyph glyph-name="parenright.case" horiz-adv-x="407" 
d="M196 361q0 -132 -25.5 -252.5t-80.5 -218.5l74 -42q33 57 56 117.5t40 132.5q27 124 27 276q0 126 -27 249q-16 71 -39 131.5t-57 118.5l-74 -41q104 -186 106 -471z" />
    <glyph glyph-name="braceleft.case" horiz-adv-x="457" 
d="M367 -30h-57q-19 0 -32.5 13.5t-13.5 32.5v234q0 42 -24 75l-26 36l26 35q24 35 24 75v234q0 19 13.5 32.5t32.5 13.5h57v85h-57q-36 0 -66 -17.5t-47.5 -48t-17.5 -65.5v-234q0 -13 -8 -26l-43 -60q-7 -10 -7 -24t7 -24l43 -61q8 -11 8 -26v-234q0 -35 17.5 -65
t47.5 -47.5t66 -17.5h57v84z" />
    <glyph glyph-name="braceright.case" horiz-adv-x="457" 
d="M148 -114q35 0 65.5 17.5t48 47.5t17.5 65v234q0 15 8 26l43 61q8 11 8 24t-8 24l-43 60q-8 13 -8 26v234q0 35 -17.5 65.5t-48 48t-65.5 17.5h-58v-85h58q19 0 32.5 -13.5t13.5 -32.5v-234q0 -40 24 -75l25 -35l-25 -36q-24 -33 -24 -75v-234q0 -19 -13.5 -32.5
t-32.5 -13.5h-58v-84h58z" />
    <glyph glyph-name="bracketleft.case" horiz-adv-x="393" 
d="M201 863v-945h117v-81h-198v1107h198v-81h-117z" />
    <glyph glyph-name="bracketright.case" horiz-adv-x="393" 
d="M273 -164h-198v81h117v946h-117v81h198v-1108z" />
    <glyph glyph-name="hyphen" unicode="-" horiz-adv-x="420" 
d="M360 319v-73h-300v73h300z" />
    <glyph glyph-name="endash" unicode="&#x2013;" horiz-adv-x="540" 
d="M480 319v-73h-420v73h420z" />
    <glyph glyph-name="emdash" unicode="&#x2014;" horiz-adv-x="780" 
d="M720 319v-73h-660v73h660z" />
    <glyph glyph-name="underscore" unicode="_" horiz-adv-x="660" 
d="M660 -71v-73h-660v73h660z" />
    <glyph glyph-name="hyphen.case" horiz-adv-x="420" 
d="M360 397v-73h-300v73h300z" />
    <glyph glyph-name="endash.case" horiz-adv-x="540" 
d="M480 397v-73h-420v73h420z" />
    <glyph glyph-name="emdash.case" horiz-adv-x="780" 
d="M720 397v-73h-660v73h660z" />
    <glyph glyph-name="quotesinglbase" unicode="&#x201a;" horiz-adv-x="278" 
d="M138.5 -88q-19.5 -26 -57.5 -26q-7 0 -21 2l6 41q52 -4 46 71h-52v113h98v-128q0 -47 -19.5 -73z" />
    <glyph glyph-name="quotedblbase" unicode="&#x201e;" horiz-adv-x="480" 
d="M158.5 19q-19.5 -26 -57.5 -26q-7 0 -21 2l6 41q52 -4 46 71h-52v113h98v-128q0 -47 -19.5 -73zM299.5 19q-19.5 -26 -57.5 -26q-7 0 -21 2l6 41q52 -4 46 71h-52v113h98v-128q0 -47 -19.5 -73z" />
    <glyph glyph-name="quotedblleft" unicode="&#x201c;" horiz-adv-x="451" 
d="M133 725h98v-113h-52q-6 -74 46 -70l6 -42q-14 -2 -20 -2q-38 0 -58 26.5t-20 72.5v128zM273 725h98v-113h-51q-1 -6 -1 -17q0 -57 47 -53l5 -42q-14 -2 -20 -2q-38 0 -58 26.5t-20 72.5v128z" />
    <glyph glyph-name="quotedblright" unicode="&#x201d;" horiz-adv-x="451" 
d="M158.5 524q-19.5 -26 -57.5 -26q-7 0 -21 2l6 41q52 -4 46 71h-52v113h98v-128q0 -47 -19.5 -73zM299.5 524q-19.5 -26 -57.5 -26q-7 0 -21 2l6 41q52 -4 46 71h-52v113h98v-128q0 -47 -19.5 -73z" />
    <glyph glyph-name="quoteleft" unicode="&#x2018;" horiz-adv-x="243" 
d="M70 720h98v-113h-52q-6 -74 46 -70l6 -42q-14 -2 -20 -2q-38 0 -58 26.5t-20 72.5v128z" />
    <glyph glyph-name="quoteright" unicode="&#x2019;" horiz-adv-x="243" 
d="M153.5 519q-19.5 -26 -57.5 -26q-7 0 -21 2l6 41q52 -4 46 71h-52v113h98v-128q0 -47 -19.5 -73z" />
    <glyph glyph-name="guillemotleft" unicode="&#xab;" horiz-adv-x="553" 
d="M305 92l-142 179l142 178l-51 40l-174 -218l174 -219zM488 92l-143 179l143 178l-51 40l-174 -218l174 -219z" />
    <glyph glyph-name="guillemotright" unicode="&#xbb;" horiz-adv-x="553" 
d="M290 271l-174 218l-51 -40l143 -178l-143 -179l51 -40zM473 271l-174 218l-51 -40l142 -178l-142 -179l51 -40z" />
    <glyph glyph-name="guilsinglleft" unicode="&#x2039;" horiz-adv-x="622" 
d="M140 270l237 237l45 -46l-191 -191l191 -191l-45 -45z" />
    <glyph glyph-name="guilsinglright" unicode="&#x203a;" horiz-adv-x="622" 
d="M200 79l191 191l-191 191l46 46l236 -237l-236 -236z" />
    <glyph glyph-name="quotedbl" unicode="&#x22;" horiz-adv-x="417" 
d="M149 720v-180h-89v180h89zM317 720v-180h-89v180h89z" />
    <glyph glyph-name="quotesingle" unicode="'" horiz-adv-x="229" 
d="M149 720v-180h-89v180h89z" />
    <glyph glyph-name="guillemotleft.case" horiz-adv-x="553" 
d="M305 182l-142 179l142 178l-51 40l-174 -218l174 -219zM488 182l-143 179l143 178l-51 40l-174 -218l174 -219z" />
    <glyph glyph-name="guillemotright.case" horiz-adv-x="553" 
d="M290 361l-174 218l-51 -40l143 -178l-143 -179l51 -40zM473 361l-174 218l-51 -40l142 -178l-142 -179l51 -40z" />
    <glyph glyph-name="guilsinglleft.case" horiz-adv-x="622" 
d="M140 360l237 237l45 -46l-191 -191l191 -191l-45 -45z" />
    <glyph glyph-name="guilsinglright.case" horiz-adv-x="622" 
d="M200 169l191 191l-191 191l46 46l236 -237l-236 -236z" />
    <glyph glyph-name="cent" unicode="&#xa2;" horiz-adv-x="562" 
d="M442 230l85 -36q-16 -28 -29 -45q-30 -36 -71 -58t-89 -28v-93h-73v93q-49 5 -91 27t-72 59q-60 75 -62 196q2 121 62 197q59 75 163 86v92h73v-92q48 -6 89 -28t71 -58q19 -26 29 -47l-84 -36q-6 16 -17 28q-21 29 -54.5 44t-71.5 15t-71.5 -15t-54.5 -44
q-38 -48 -40 -142q2 -92 40 -142q21 -28 54.5 -43t71.5 -15t71.5 15t54.5 43q9 12 16 27z" />
    <glyph glyph-name="dollar" unicode="$" horiz-adv-x="583" 
d="M523 182q0 -46 -22 -88t-61 -67q-42 -30 -104 -39v-87h-89v88q-44 8 -80 30.5t-60 56.5q-47 61 -47 137h90q0 -23 8.5 -46.5t23.5 -40.5q20 -26 48 -40.5t60 -14.5q29 0 56.5 8t47.5 25q36 30 36 80q0 23 -9.5 41.5t-31.5 34.5q-20 15 -44 27t-62 28l-46 20
q-85 37 -124 85q-18 22 -29 52t-11 63q0 41 17 79.5t46 65.5q46 41 111 52v88h89v-90q72 -16 118 -69q54 -60 55 -140h-93q0 47 -33 85q-39 44 -93 44q-27 0 -50.5 -9t-40.5 -26q-33 -31 -33 -79q0 -38 22 -64q15 -19 40.5 -34t66.5 -32q70 -28 105 -46.5t64 -45.5
q59 -54 59 -132z" />
    <glyph glyph-name="Euro" unicode="&#x20ac;" horiz-adv-x="670" 
d="M583 105l47 -74q-76 -46 -176 -46q-78 0 -144.5 29.5t-111.5 86.5q-48 61 -67 140h-91v74h80q-2 30 -2 45q0 14 2 44h-80v74h92q19 81 66 142q45 57 111.5 86t144.5 29q99 0 176 -45l-48 -75q-55 35 -132 35q-54 0 -102.5 -22t-77.5 -63q-29 -38 -43 -87h273v-74h-285
q-2 -30 -2 -44q0 -15 2 -45h285v-74h-272q15 -50 42 -86q30 -42 80.5 -63.5t108.5 -21.5q68 0 124 35z" />
    <glyph glyph-name="florin" unicode="&#x192;" horiz-adv-x="765" 
d="M649.5 725q36.5 -10 55.5 -21l-41 -74q-3 3 -29.5 11.5t-57.5 8.5q-42 0 -80 -23.5t-47 -81.5l-25 -148h209v-73h-221l-22 -131q-17 -108 -73 -158t-129 -50q-56 0 -129 30l38 76q11 -6 36.5 -13.5t50.5 -7.5q42 0 73.5 32.5t43.5 103.5l19 118h-165v73h177l22 136
q17 106 77.5 154t139.5 48q41 0 77.5 -10z" />
    <glyph glyph-name="uni20B4" unicode="&#x20b4;" horiz-adv-x="650" 
d="M590 468v-74h-529l-1 74h366l3 4q22 26 22 64q0 48 -33 79q-17 17 -40.5 26t-50.5 9q-54 0 -93 -44q-27 -29 -32 -70h-93q6 71 54 125q30 35 73 54.5t92 19.5q45 0 84.5 -14t68.5 -41t46 -65.5t17 -79.5q0 -37 -12 -67h58zM590 252h-372q-31 -28 -31 -68q0 -50 36 -80
q20 -17 47.5 -25t56.5 -8q32 0 60 14.5t48 40.5q21 22 29 58h91q-7 -59 -45 -108q-31 -43 -80 -67t-107 -24q-41 0 -80 11t-66 31q-39 25 -61 67t-22 88q0 37 14 70h-48v74h530v-74z" />
    <glyph glyph-name="uni20BD" unicode="&#x20bd;" horiz-adv-x="726" 
d="M680 573q15 -39 16 -80q0 -38 -14 -75.5t-39 -67.5q-30 -38 -77 -60.5t-99 -22.5h-218v-91h211v-73h-211v-103h-89v103h-80v73h80v91h-80v84h80v369h307q40 0 75 -13q57 -19 96 -65q27 -30 42 -69zM595.5 444.5q8.5 22.5 8.5 44.5q0 62 -39 102q-19 20 -45.5 32t-52.5 12
h-218v-284h218q29 0 57.5 14t48.5 39q14 18 22.5 40.5z" />
    <glyph glyph-name="sterling" unicode="&#xa3;" horiz-adv-x="621" 
d="M261 85h267v-85h-468v85h39q29 0 50.5 21.5t21.5 50.5v165h-111v85h111v139q0 54 25.5 97t70 67.5t98.5 24.5q135 0 196 -179l-81 -26q-19 61 -46.5 90.5t-69.5 29.5q-46 0 -74.5 -29.5t-28.5 -78.5v-135h172v-85h-172v-237z" />
    <glyph glyph-name="yen" unicode="&#xa5;" horiz-adv-x="575" 
d="M375 373h108v-73h-150v-113h150v-74h-150v-113h-90v113h-150v74h150v113h-150v73h108l-201 347h104l184 -318l183 318h104z" />
    <glyph glyph-name="plus" unicode="+" horiz-adv-x="600" 
d="M540 246h-203v-204h-73v204h-204v73h204v203h73v-203h203v-73z" />
    <glyph glyph-name="minus" unicode="&#x2212;" horiz-adv-x="540" 
d="M480 319v-73h-420v73h420z" />
    <glyph glyph-name="multiply" unicode="&#xd7;" horiz-adv-x="512" 
d="M308 288l144 -144l-52 -52l-144 144l-144 -144l-52 52l144 144l-143 143l52 52l143 -143l144 143l52 -52z" />
    <glyph glyph-name="equal" unicode="=" horiz-adv-x="750" 
d="M120 328h510v73h-510v-73zM120 139h510v74h-510v-74z" />
    <glyph glyph-name="notequal" unicode="&#x2260;" horiz-adv-x="750" 
d="M470 328l-94 -115h254v-74h-315l-77 -94l-58 45l40 49h-100v74h161l95 115h-256v73h316l78 94l57 -44l-41 -50h100v-73h-160z" />
    <glyph glyph-name="greater" unicode="&#x3e;" horiz-adv-x="622" 
d="M200 79l191 191l-191 191l46 46l236 -237l-236 -236z" />
    <glyph glyph-name="less" unicode="&#x3c;" horiz-adv-x="622" 
d="M140 270l237 237l45 -46l-191 -191l191 -191l-45 -45z" />
    <glyph glyph-name="plusminus" unicode="&#xb1;" horiz-adv-x="600" 
d="M540 417v-73h-203v-124h-73v124h-204v73h204v123h73v-123h203zM60 148h480v-74h-480v74z" />
    <glyph glyph-name="asciitilde" unicode="~" horiz-adv-x="680" 
d="M560 307q0 -35 -15 -61q-12 -20 -32.5 -33.5t-42.5 -17.5q-15 -3 -30 -3q-45 0 -99 26q-16 8 -24 11q-27 13 -43.5 19t-32.5 6q-20 0 -30 -9.5t-10 -24.5q0 -12 4 -20h-81q-4 15 -4 34q0 36 14 61q12 21 32.5 34t43.5 17q15 3 30 3q45 0 99 -26q16 -8 24 -11
q27 -13 43.5 -19t32.5 -6q20 0 30 10.5t10 25.5q0 6 -4 18h81q4 -22 4 -34z" />
    <glyph glyph-name="asciicircum" unicode="^" horiz-adv-x="673" 
d="M297 736l236 -237l-45 -45l-191 191l-191 -191l-46 45z" />
    <glyph glyph-name="percent" unicode="%" horiz-adv-x="871" 
d="M150 399q-41 24 -65.5 65.5t-24.5 90.5q0 48 25 89.5t66.5 66t88.5 24.5q49 0 90 -24t65.5 -65.5t24.5 -90.5t-24.5 -90.5t-65.5 -65.5t-90 -24t-90 24zM90 75l631 630l60 -60l-631 -630zM317 478.5q32 32.5 32 76.5q0 45 -32 77t-77 32q-44 0 -76.5 -32t-32.5 -77
q0 -44 32.5 -76.5t76.5 -32.5q45 0 77 32.5zM541 9q-41 24 -65.5 65.5t-24.5 90.5q0 48 25 89.5t66.5 66t88.5 24.5q49 0 90 -24t65.5 -65.5t24.5 -90.5t-24.5 -90.5t-65.5 -65.5t-90 -24t-90 24zM708 88.5q32 32.5 32 76.5q0 45 -32 77t-77 32q-44 0 -76.5 -32t-32.5 -77
q0 -44 32.5 -76.5t76.5 -32.5q45 0 77 32.5z" />
    <glyph glyph-name="greater.case" horiz-adv-x="622" 
d="M200 169l191 191l-191 191l46 46l236 -237l-236 -236z" />
    <glyph glyph-name="less.case" horiz-adv-x="622" 
d="M140 360l237 237l45 -46l-191 -191l191 -191l-45 -45z" />
    <glyph glyph-name="arrowup" unicode="&#x2191;" horiz-adv-x="713" 
d="M548 443l-155 155v-598h-73v597l-154 -154l-46 45l237 237l236 -237z" />
    <glyph glyph-name="arrowright" unicode="&#x2192;" horiz-adv-x="1005" 
d="M865 276l-237 -237l-45 45l154 155h-597v73h598l-155 154l45 46z" />
    <glyph glyph-name="arrowdown" unicode="&#x2193;" horiz-adv-x="713" 
d="M593 232l-236 -237l-237 237l46 45l154 -154v597h73v-598l155 155z" />
    <glyph glyph-name="arrowleft" unicode="&#x2190;" horiz-adv-x="1005" 
d="M865 239h-597l154 -155l-46 -45l-236 237l236 236l46 -46l-155 -154h598v-73z" />
    <glyph glyph-name="carriagereturn" unicode="&#x21b5;" horiz-adv-x="809" 
d="M749 720v-481h-481l154 -155l-46 -45l-236 237l236 236l46 -46l-155 -154l409 1v407h73z" />
    <glyph glyph-name="arrowright.case" horiz-adv-x="1005" 
d="M865 361l-237 -237l-45 45l154 155h-597v73h598l-155 154l45 46z" />
    <glyph glyph-name="arrowleft.case" horiz-adv-x="1005" 
d="M865 324h-597l154 -155l-46 -45l-236 237l236 236l46 -46l-155 -154h598v-73z" />
    <glyph glyph-name="at" unicode="@" horiz-adv-x="942" 
d="M689.5 631q92.5 -50 142.5 -142.5t50 -218.5q0 -131 -53.5 -177t-113.5 -46q-47 0 -86 24.5t-59 65.5q-41 -30 -99 -30q-74 0 -118.5 44.5t-44.5 118.5t45 118.5t118 44.5q74 0 119 -44.5t45 -118.5v-56q0 -34 23.5 -57.5t56.5 -23.5q81 0 81 137q0 154 -85.5 239.5
t-239.5 85.5q-89 0 -162 -32.5t-117.5 -105t-44.5 -187.5t44.5 -187.5t117.5 -105t162 -32.5v-86q-127 0 -219.5 49.5t-142 142t-49.5 219.5t49.5 219.5t142 142t219.5 49.5q126 0 218.5 -50zM527 211.5q22 18.5 22 58.5t-22 58.5t-56 18.5t-55.5 -18.5t-21.5 -58.5
t22 -58.5t55 -18.5q34 0 56 18.5z" />
    <glyph glyph-name="ampersand" unicode="&#x26;" horiz-adv-x="615" 
d="M555 40l-70 58q-14 -30 -39.5 -54.5t-55.5 -37.5q-50 -21 -108 -21q-106 0 -170 61q-31 30 -46.5 71t-15.5 87q0 69 32 122q20 36 60 59q-30 28 -49 61q-12 20 -20 44.5t-8 46.5q0 60 27.5 106.5t79.5 70.5q46 21 107 21q84 0 137 -40q39 -25 58 -70l-74 -33
q-13 30 -45.5 46t-71.5 16q-40 0 -74 -16q-28 -13 -42 -38.5t-14 -57.5q0 -45 27 -80q11 -15 33 -33l210 -174v120h88v-192l96 -81zM209 327q-35 -15 -53 -45t-18 -79q0 -63 34 -97q19 -21 48.5 -30.5t60.5 -9.5q43 0 75 16q47 23 61 74z" />
    <glyph glyph-name="copyright" unicode="&#xa9;" horiz-adv-x="851" 
d="M619.5 -64q88.5 52 140 140.5t51.5 193.5t-51.5 193.5t-140 140t-193.5 51.5t-193.5 -51.5t-140.5 -140t-52 -193.5t52 -193.5t140.5 -140.5t193.5 -52t193.5 52zM275 9.5q-69 40.5 -109.5 109.5t-40.5 151t40.5 150.5t109.5 109t151 40.5q81 0 150 -40.5t109 -109
t40 -150.5t-40.5 -151t-109 -109.5t-149.5 -40.5q-82 0 -151 40.5zM529 353q-3 8 -11 19q-15 21 -39 31.5t-51 10.5q-57 0 -89 -42q-29 -36 -29 -101q0 -62 29 -100q14 -20 38.5 -31t50.5 -11t49.5 10.5t40.5 31.5q7 9 11 18l67 -29q-12 -21 -22 -32q-26 -33 -64.5 -49.5
t-84.5 -16.5q-42 0 -81 17.5t-63 48.5q-46 57 -46 143q2 91 46 145q55 65 147 65q44 0 82.5 -16.5t63.5 -48.5q14 -17 22 -34z" />
    <glyph glyph-name="registered" unicode="&#xae;" horiz-adv-x="635" 
d="M441.5 744.5q56.5 -33.5 90 -90t33.5 -123.5t-33.5 -124t-90 -90.5t-123.5 -33.5t-124 33.5t-90.5 90.5t-33.5 124t33.5 123.5t90.5 90t124 33.5t123.5 -33.5zM226 688.5q-42 -24.5 -66.5 -66t-24.5 -91.5t24.5 -92t66.5 -66.5t92 -24.5q49 0 91 24.5t67 66.5t25 92
t-25 91.5t-67 66t-91 24.5q-50 0 -92 -24.5zM341 650q34 0 56.5 -22.5t22.5 -55.5q0 -48 -43 -70l43 -87h-54l-39 79h-45v-79h-49v235h108zM282 540h57q13 0 22.5 10t9.5 22q0 15 -10.5 24t-21.5 9h-57v-65z" />
    <glyph glyph-name="trademark" unicode="&#x2122;" horiz-adv-x="908" 
d="M60 720h326v-63h-129v-312h-68v312h-129v63zM848 345h-68v232l-107 -232h-42l-107 232v-232h-69v375h62l135 -276l135 276h61v-375z" />
    <glyph glyph-name="degree" unicode="&#xb0;" horiz-adv-x="450" 
d="M120 399q-41 24 -65.5 65.5t-24.5 90.5q0 48 25 89.5t66.5 66t88.5 24.5q49 0 90 -24t65.5 -65.5t24.5 -90.5t-24.5 -90.5t-65.5 -65.5t-90 -24t-90 24zM287 478.5q32 32.5 32 76.5q0 45 -32 77t-77 32q-44 0 -76.5 -32t-32.5 -77q0 -44 32.5 -76.5t76.5 -32.5
q45 0 77 32.5z" />
    <glyph glyph-name="bar" unicode="|" horiz-adv-x="269" 
d="M179 720v-720h-89v720h89z" />
    <glyph glyph-name="uni2116" unicode="&#x2116;" horiz-adv-x="1115" 
d="M546 163v557h90v-720h-81l-384 558v-558h-91v720h81zM795 399q-41 24 -65.5 65.5t-24.5 90.5q0 48 25 89.5t66.5 66t88.5 24.5q49 0 90 -24t65.5 -65.5t24.5 -90.5t-24.5 -90.5t-65.5 -65.5t-90 -24t-90 24zM962 478.5q32 32.5 32 76.5q0 45 -32 77t-77 32
q-44 0 -76.5 -32t-32.5 -77q0 -44 32.5 -76.5t76.5 -32.5q45 0 77 32.5zM1035 319v-73h-300v73h300z" />
    <glyph glyph-name="at.case" horiz-adv-x="942" 
d="M689.5 686q92.5 -50 142.5 -142.5t50 -218.5q0 -131 -53.5 -177t-113.5 -46q-47 0 -86 24.5t-59 65.5q-41 -30 -99 -30q-74 0 -118.5 44.5t-44.5 118.5t45 118.5t118 44.5q74 0 119 -44.5t45 -118.5v-56q0 -34 23.5 -57.5t56.5 -23.5q81 0 81 137q0 154 -85.5 239.5
t-239.5 85.5q-89 0 -162 -32.5t-117.5 -105t-44.5 -187.5t44.5 -187.5t117.5 -105t162 -32.5v-86q-127 0 -219.5 49.5t-142 142t-49.5 219.5t49.5 219.5t142 142t219.5 49.5q126 0 218.5 -50zM527 266.5q22 18.5 22 58.5t-22 58.5t-56 18.5t-55.5 -18.5t-21.5 -58.5
t22 -58.5t55 -18.5q34 0 56 18.5z" />
    <glyph glyph-name="copyright.case" horiz-adv-x="851" 
d="M619.5 27q88.5 52 140 140.5t51.5 193.5t-51.5 193.5t-140 140t-193.5 51.5t-193.5 -51.5t-140.5 -140t-52 -193.5t52 -193.5t140.5 -140.5t193.5 -52t193.5 52zM275 100.5q-69 40.5 -109.5 109.5t-40.5 151t40.5 150.5t109.5 109t151 40.5q81 0 150 -40.5t109 -109
t40 -150.5t-40.5 -151t-109 -109.5t-149.5 -40.5q-82 0 -151 40.5zM529 444q-3 8 -11 19q-15 21 -39 31.5t-51 10.5q-57 0 -89 -42q-29 -36 -29 -101q0 -62 29 -100q14 -20 38.5 -31t50.5 -11t49.5 10.5t40.5 31.5q7 9 11 18l67 -29q-12 -21 -22 -32q-26 -33 -64.5 -49.5
t-84.5 -16.5q-42 0 -81 17.5t-63 48.5q-46 57 -46 143q2 91 46 145q55 65 147 65q44 0 82.5 -16.5t63.5 -48.5q14 -17 22 -34z" />
    </font>
</defs>
</svg>
